<svg viewBox="0 0 1920 205" fill="none" xmlns="http://www.w3.org/2000/svg">
<rect y="102" width="102" height="1920" transform="rotate(-90 0 102)" fill="#E4E4E4"/>
<rect y="204" width="102" height="80" transform="rotate(-90 0 204)" fill="#E4E4E4"/>
<rect x="1845" y="204" width="102" height="82" transform="rotate(-90 1845 204)" fill="#E4E4E4"/>
<rect x="920" y="204" width="102" height="80" transform="rotate(-90 920 204)" fill="#E4E4E4"/>
<rect x="1150" y="204" width="102" height="80" transform="rotate(-90 1150 204)" fill="#E4E4E4"/>
<rect x="1005" y="169" width="67" height="7" transform="rotate(-90 1005 169)" fill="#E4E4E4"/>
<rect x="1236" y="169" width="67" height="7" transform="rotate(-90 1236 169)" fill="#E4E4E4"/>
<rect x="1466" y="169" width="67" height="7" transform="rotate(-90 1466 169)" fill="#E4E4E4"/>
<rect x="1699" y="169" width="67" height="7" transform="rotate(-90 1699 169)" fill="#E4E4E4"/>
<rect x="775" y="169" width="67" height="7" transform="rotate(-90 775 169)" fill="#E4E4E4"/>
<rect x="546" y="169" width="67" height="7" transform="rotate(-90 546 169)" fill="#E4E4E4"/>
<rect x="316" y="169" width="67" height="7" transform="rotate(-90 316 169)" fill="#E4E4E4"/>
<rect x="85" y="169" width="67" height="7" transform="rotate(-90 85 169)" fill="#E4E4E4"/>
<rect x="1077" y="169" width="67" height="7" transform="rotate(-90 1077 169)" fill="#E4E4E4"/>
<rect x="1308" y="169" width="67" height="7" transform="rotate(-90 1308 169)" fill="#E4E4E4"/>
<rect x="1538" y="169" width="67" height="7" transform="rotate(-90 1538 169)" fill="#E4E4E4"/>
<rect x="1771" y="169" width="67" height="7" transform="rotate(-90 1771 169)" fill="#E4E4E4"/>
<rect x="847" y="169" width="67" height="7" transform="rotate(-90 847 169)" fill="#E4E4E4"/>
<rect x="618" y="169" width="67" height="7" transform="rotate(-90 618 169)" fill="#E4E4E4"/>
<rect x="388" y="169" width="67" height="7" transform="rotate(-90 388 169)" fill="#E4E4E4"/>
<rect x="157" y="169" width="67" height="7" transform="rotate(-90 157 169)" fill="#E4E4E4"/>
<rect x="1017" y="169" width="67" height="7" transform="rotate(-90 1017 169)" fill="#E4E4E4"/>
<rect x="1248" y="169" width="67" height="7" transform="rotate(-90 1248 169)" fill="#E4E4E4"/>
<rect x="1478" y="169" width="67" height="7" transform="rotate(-90 1478 169)" fill="#E4E4E4"/>
<rect x="1711" y="169" width="67" height="7" transform="rotate(-90 1711 169)" fill="#E4E4E4"/>
<rect x="787" y="169" width="67" height="7" transform="rotate(-90 787 169)" fill="#E4E4E4"/>
<rect x="558" y="169" width="67" height="7" transform="rotate(-90 558 169)" fill="#E4E4E4"/>
<rect x="328" y="169" width="67" height="7" transform="rotate(-90 328 169)" fill="#E4E4E4"/>
<rect x="97" y="169" width="67" height="7" transform="rotate(-90 97 169)" fill="#E4E4E4"/>
<rect x="1089" y="169" width="67" height="7" transform="rotate(-90 1089 169)" fill="#E4E4E4"/>
<rect x="1320" y="169" width="67" height="7" transform="rotate(-90 1320 169)" fill="#E4E4E4"/>
<rect x="1550" y="169" width="67" height="7" transform="rotate(-90 1550 169)" fill="#E4E4E4"/>
<rect x="1783" y="169" width="67" height="7" transform="rotate(-90 1783 169)" fill="#E4E4E4"/>
<rect x="859" y="169" width="67" height="7" transform="rotate(-90 859 169)" fill="#E4E4E4"/>
<rect x="630" y="169" width="67" height="7" transform="rotate(-90 630 169)" fill="#E4E4E4"/>
<rect x="400" y="169" width="67" height="7" transform="rotate(-90 400 169)" fill="#E4E4E4"/>
<rect x="169" y="169" width="67" height="7" transform="rotate(-90 169 169)" fill="#E4E4E4"/>
<rect x="1029" y="169" width="67" height="7" transform="rotate(-90 1029 169)" fill="#E4E4E4"/>
<rect x="1260" y="169" width="67" height="7" transform="rotate(-90 1260 169)" fill="#E4E4E4"/>
<rect x="1490" y="169" width="67" height="7" transform="rotate(-90 1490 169)" fill="#E4E4E4"/>
<rect x="1723" y="169" width="67" height="7" transform="rotate(-90 1723 169)" fill="#E4E4E4"/>
<rect x="799" y="169" width="67" height="7" transform="rotate(-90 799 169)" fill="#E4E4E4"/>
<rect x="570" y="169" width="67" height="7" transform="rotate(-90 570 169)" fill="#E4E4E4"/>
<rect x="340" y="169" width="67" height="7" transform="rotate(-90 340 169)" fill="#E4E4E4"/>
<rect x="109" y="169" width="67" height="7" transform="rotate(-90 109 169)" fill="#E4E4E4"/>
<rect x="1101" y="169" width="67" height="7" transform="rotate(-90 1101 169)" fill="#E4E4E4"/>
<rect x="1332" y="169" width="67" height="7" transform="rotate(-90 1332 169)" fill="#E4E4E4"/>
<rect x="1562" y="169" width="67" height="7" transform="rotate(-90 1562 169)" fill="#E4E4E4"/>
<rect x="1795" y="169" width="67" height="7" transform="rotate(-90 1795 169)" fill="#E4E4E4"/>
<rect x="871" y="169" width="67" height="7" transform="rotate(-90 871 169)" fill="#E4E4E4"/>
<rect x="642" y="169" width="67" height="7" transform="rotate(-90 642 169)" fill="#E4E4E4"/>
<rect x="412" y="169" width="67" height="7" transform="rotate(-90 412 169)" fill="#E4E4E4"/>
<rect x="181" y="169" width="67" height="7" transform="rotate(-90 181 169)" fill="#E4E4E4"/>
<rect x="1041" y="169" width="67" height="7" transform="rotate(-90 1041 169)" fill="#E4E4E4"/>
<rect x="1272" y="169" width="67" height="7" transform="rotate(-90 1272 169)" fill="#E4E4E4"/>
<rect x="1502" y="169" width="67" height="7" transform="rotate(-90 1502 169)" fill="#E4E4E4"/>
<rect x="1735" y="169" width="67" height="7" transform="rotate(-90 1735 169)" fill="#E4E4E4"/>
<rect x="811" y="169" width="67" height="7" transform="rotate(-90 811 169)" fill="#E4E4E4"/>
<rect x="582" y="169" width="67" height="7" transform="rotate(-90 582 169)" fill="#E4E4E4"/>
<rect x="352" y="169" width="67" height="7" transform="rotate(-90 352 169)" fill="#E4E4E4"/>
<rect x="121" y="169" width="67" height="7" transform="rotate(-90 121 169)" fill="#E4E4E4"/>
<rect x="1113" y="169" width="67" height="7" transform="rotate(-90 1113 169)" fill="#E4E4E4"/>
<rect x="1344" y="169" width="67" height="7" transform="rotate(-90 1344 169)" fill="#E4E4E4"/>
<rect x="1574" y="169" width="67" height="7" transform="rotate(-90 1574 169)" fill="#E4E4E4"/>
<rect x="1807" y="169" width="67" height="7" transform="rotate(-90 1807 169)" fill="#E4E4E4"/>
<rect x="883" y="169" width="67" height="7" transform="rotate(-90 883 169)" fill="#E4E4E4"/>
<rect x="654" y="169" width="67" height="7" transform="rotate(-90 654 169)" fill="#E4E4E4"/>
<rect x="424" y="169" width="67" height="7" transform="rotate(-90 424 169)" fill="#E4E4E4"/>
<rect x="193" y="169" width="67" height="7" transform="rotate(-90 193 169)" fill="#E4E4E4"/>
<rect x="1053" y="169" width="67" height="7" transform="rotate(-90 1053 169)" fill="#E4E4E4"/>
<rect x="1284" y="169" width="67" height="7" transform="rotate(-90 1284 169)" fill="#E4E4E4"/>
<rect x="1514" y="169" width="67" height="7" transform="rotate(-90 1514 169)" fill="#E4E4E4"/>
<rect x="1747" y="169" width="67" height="7" transform="rotate(-90 1747 169)" fill="#E4E4E4"/>
<rect x="823" y="169" width="67" height="7" transform="rotate(-90 823 169)" fill="#E4E4E4"/>
<rect x="594" y="169" width="67" height="7" transform="rotate(-90 594 169)" fill="#E4E4E4"/>
<rect x="364" y="169" width="67" height="7" transform="rotate(-90 364 169)" fill="#E4E4E4"/>
<rect x="133" y="169" width="67" height="7" transform="rotate(-90 133 169)" fill="#E4E4E4"/>
<rect x="1125" y="169" width="67" height="7" transform="rotate(-90 1125 169)" fill="#E4E4E4"/>
<rect x="1356" y="169" width="67" height="7" transform="rotate(-90 1356 169)" fill="#E4E4E4"/>
<rect x="1586" y="169" width="67" height="7" transform="rotate(-90 1586 169)" fill="#E4E4E4"/>
<rect x="1819" y="169" width="67" height="7" transform="rotate(-90 1819 169)" fill="#E4E4E4"/>
<rect x="895" y="169" width="67" height="7" transform="rotate(-90 895 169)" fill="#E4E4E4"/>
<rect x="666" y="169" width="67" height="7" transform="rotate(-90 666 169)" fill="#E4E4E4"/>
<rect x="436" y="169" width="67" height="7" transform="rotate(-90 436 169)" fill="#E4E4E4"/>
<rect x="205" y="169" width="67" height="7" transform="rotate(-90 205 169)" fill="#E4E4E4"/>
<rect x="1065" y="169" width="67" height="7" transform="rotate(-90 1065 169)" fill="#E4E4E4"/>
<rect x="1296" y="169" width="67" height="7" transform="rotate(-90 1296 169)" fill="#E4E4E4"/>
<rect x="1526" y="169" width="67" height="7" transform="rotate(-90 1526 169)" fill="#E4E4E4"/>
<rect x="1759" y="169" width="67" height="7" transform="rotate(-90 1759 169)" fill="#E4E4E4"/>
<rect x="835" y="169" width="67" height="7" transform="rotate(-90 835 169)" fill="#E4E4E4"/>
<rect x="606" y="169" width="67" height="7" transform="rotate(-90 606 169)" fill="#E4E4E4"/>
<rect x="376" y="169" width="67" height="7" transform="rotate(-90 376 169)" fill="#E4E4E4"/>
<rect x="145" y="169" width="67" height="7" transform="rotate(-90 145 169)" fill="#E4E4E4"/>
<rect x="1137" y="169" width="67" height="7" transform="rotate(-90 1137 169)" fill="#E4E4E4"/>
<rect x="1368" y="169" width="67" height="7" transform="rotate(-90 1368 169)" fill="#E4E4E4"/>
<rect x="1598" y="169" width="67" height="7" transform="rotate(-90 1598 169)" fill="#E4E4E4"/>
<rect x="1831" y="169" width="67" height="7" transform="rotate(-90 1831 169)" fill="#E4E4E4"/>
<rect x="907" y="169" width="67" height="7" transform="rotate(-90 907 169)" fill="#E4E4E4"/>
<rect x="678" y="169" width="67" height="7" transform="rotate(-90 678 169)" fill="#E4E4E4"/>
<rect x="448" y="169" width="67" height="7" transform="rotate(-90 448 169)" fill="#E4E4E4"/>
<rect x="217" y="169" width="67" height="7" transform="rotate(-90 217 169)" fill="#E4E4E4"/>
<rect x="1380" y="204" width="102" height="80" transform="rotate(-90 1380 204)" fill="#E4E4E4"/>
<rect x="1611" y="204" width="102" height="82" transform="rotate(-90 1611 204)" fill="#E4E4E4"/>
<rect x="460" y="204" width="102" height="80" transform="rotate(-90 460 204)" fill="#E4E4E4"/>
<rect x="690" y="204" width="102" height="80" transform="rotate(-90 690 204)" fill="#E4E4E4"/>
<rect x="230" y="204" width="102" height="80" transform="rotate(-90 230 204)" fill="#E4E4E4"/>
<circle cx="796" cy="175" r="3" fill="#D9D9D9"/>
<circle cx="564" cy="178" r="3" fill="#D9D9D9"/>
<circle cx="335" cy="178" r="3" fill="#D9D9D9"/>
<circle cx="103" cy="178" r="3" fill="#D9D9D9"/>
<circle cx="1025" cy="181" r="3" fill="#D9D9D9"/>
<circle cx="1258" cy="179" r="3" fill="#D9D9D9"/>
<circle cx="1484" cy="180" r="3" fill="#D9D9D9"/>
<circle cx="1717" cy="180" r="3" fill="#D9D9D9"/>
<circle cx="811" cy="181" r="3" fill="#D9D9D9"/>
<circle cx="579" cy="184" r="3" fill="#D9D9D9"/>
<circle cx="350" cy="184" r="3" fill="#D9D9D9"/>
<circle cx="118" cy="184" r="3" fill="#D9D9D9"/>
<circle cx="1040" cy="187" r="3" fill="#D9D9D9"/>
<circle cx="1273" cy="185" r="3" fill="#D9D9D9"/>
<circle cx="1499" cy="186" r="3" fill="#D9D9D9"/>
<circle cx="1732" cy="186" r="3" fill="#D9D9D9"/>
<circle cx="832" cy="193" r="3" fill="#D9D9D9"/>
<circle cx="600" cy="196" r="3" fill="#D9D9D9"/>
<circle cx="371" cy="196" r="3" fill="#D9D9D9"/>
<circle cx="139" cy="196" r="3" fill="#D9D9D9"/>
<circle cx="1061" cy="199" r="3" fill="#D9D9D9"/>
<circle cx="1294" cy="197" r="3" fill="#D9D9D9"/>
<circle cx="1520" cy="198" r="3" fill="#D9D9D9"/>
<circle cx="1753" cy="198" r="3" fill="#D9D9D9"/>
<circle cx="818" cy="196" r="3" fill="#D9D9D9"/>
<circle cx="586" cy="199" r="3" fill="#D9D9D9"/>
<circle cx="357" cy="199" r="3" fill="#D9D9D9"/>
<circle cx="125" cy="199" r="3" fill="#D9D9D9"/>
<circle cx="1047" cy="202" r="3" fill="#D9D9D9"/>
<circle cx="1280" cy="200" r="3" fill="#D9D9D9"/>
<circle cx="1506" cy="201" r="3" fill="#D9D9D9"/>
<circle cx="1739" cy="201" r="3" fill="#D9D9D9"/>
<circle cx="835" cy="178" r="3" fill="#D9D9D9"/>
<circle cx="603" cy="181" r="3" fill="#D9D9D9"/>
<circle cx="374" cy="181" r="3" fill="#D9D9D9"/>
<circle cx="142" cy="181" r="3" fill="#D9D9D9"/>
<circle cx="1064" cy="184" r="3" fill="#D9D9D9"/>
<circle cx="1297" cy="182" r="3" fill="#D9D9D9"/>
<circle cx="1523" cy="183" r="3" fill="#D9D9D9"/>
<circle cx="1756" cy="183" r="3" fill="#D9D9D9"/>
<circle cx="862" cy="190" r="3" fill="#D9D9D9"/>
<circle cx="630" cy="193" r="3" fill="#D9D9D9"/>
<circle cx="401" cy="193" r="3" fill="#D9D9D9"/>
<circle cx="169" cy="193" r="3" fill="#D9D9D9"/>
<circle cx="1091" cy="196" r="3" fill="#D9D9D9"/>
<circle cx="1324" cy="194" r="3" fill="#D9D9D9"/>
<circle cx="1550" cy="195" r="3" fill="#D9D9D9"/>
<circle cx="1783" cy="195" r="3" fill="#D9D9D9"/>
<circle cx="881" cy="184" r="3" fill="#D9D9D9"/>
<circle cx="649" cy="187" r="3" fill="#D9D9D9"/>
<circle cx="420" cy="187" r="3" fill="#D9D9D9"/>
<circle cx="188" cy="187" r="3" fill="#D9D9D9"/>
<circle cx="1110" cy="190" r="3" fill="#D9D9D9"/>
<circle cx="1343" cy="188" r="3" fill="#D9D9D9"/>
<circle cx="1569" cy="189" r="3" fill="#D9D9D9"/>
<circle cx="1802" cy="189" r="3" fill="#D9D9D9"/>
<circle cx="898" cy="193" r="3" fill="#D9D9D9"/>
<circle cx="666" cy="196" r="3" fill="#D9D9D9"/>
<circle cx="437" cy="196" r="3" fill="#D9D9D9"/>
<circle cx="205" cy="196" r="3" fill="#D9D9D9"/>
<circle cx="1127" cy="199" r="3" fill="#D9D9D9"/>
<circle cx="1360" cy="197" r="3" fill="#D9D9D9"/>
<circle cx="1586" cy="198" r="3" fill="#D9D9D9"/>
<circle cx="1819" cy="198" r="3" fill="#D9D9D9"/>
<circle cx="907" cy="178" r="3" fill="#D9D9D9"/>
<circle cx="675" cy="181" r="3" fill="#D9D9D9"/>
<circle cx="446" cy="181" r="3" fill="#D9D9D9"/>
<circle cx="214" cy="181" r="3" fill="#D9D9D9"/>
<circle cx="1136" cy="184" r="3" fill="#D9D9D9"/>
<circle cx="1369" cy="182" r="3" fill="#D9D9D9"/>
<circle cx="1595" cy="183" r="3" fill="#D9D9D9"/>
<circle cx="1828" cy="183" r="3" fill="#D9D9D9"/>
<circle cx="785" cy="196" r="3" fill="#D9D9D9"/>
<circle cx="553" cy="199" r="3" fill="#D9D9D9"/>
<circle cx="324" cy="199" r="3" fill="#D9D9D9"/>
<circle cx="92" cy="199" r="3" fill="#D9D9D9"/>
<circle cx="1014" cy="202" r="3" fill="#D9D9D9"/>
<circle cx="1247" cy="200" r="3" fill="#D9D9D9"/>
<circle cx="1473" cy="201" r="3" fill="#D9D9D9"/>
<circle cx="1706" cy="201" r="3" fill="#D9D9D9"/>
</svg>
