<svg  viewBox="0 0 504 547" fill="none" xmlns="http://www.w3.org/2000/svg">
<path d="M385.07 275.848C342.071 275.848 307.213 214.769 307.213 139.424C307.213 64.0792 342.071 3 385.07 3C428.069 3 462.926 64.0792 462.926 139.424C462.926 214.769 428.069 275.848 385.07 275.848Z" fill="black" stroke="#E4E4E4" stroke-width="4.68168" stroke-miterlimit="10"/>
<path d="M201.032 528.19C201.125 528.846 199.206 528.237 198.878 528.284C199.44 527.348 201.547 528.284 201.032 528.19Z" fill="#E4E4E4"/>
<path d="M206.835 518.449L205.992 518.543C206.741 518.075 207.35 517.607 208.052 517.138C207.631 517.56 207.256 518.028 206.835 518.449Z" fill="#E4E4E4"/>
<path d="M207.21 508.525C210.534 509.508 206.508 512.13 207.632 513.956L208.381 514.283L205.665 514.939C206.18 512.832 208.053 510.07 207.21 508.572V508.525Z" fill="#E4E4E4"/>
<path d="M199.858 503.421C201.169 503.702 200.935 502.297 200.327 504.591C200.186 504.498 200.092 504.451 199.999 504.404C199.999 504.217 199.999 503.936 199.858 503.421Z" fill="#E4E4E4"/>
<path d="M200.001 504.356C199.954 505.34 198.878 503.748 200.001 504.356V504.356Z" fill="#E4E4E4"/>
<path d="M200.513 499.723L199.39 501.081C198.594 500.846 198.406 499.676 197.845 500.144C198.406 498.787 199.202 498.974 200.466 499.676L200.513 499.723Z" fill="#E4E4E4"/>
<path d="M202.904 498.32L202.436 499.069C202.108 498.976 201.968 498.788 202.904 498.32Z" fill="#E4E4E4"/>
<path d="M201.497 500.565L202.48 499.02C203.042 499.16 204.119 499.16 202.152 499.722C203.136 499.535 202.152 499.909 201.544 500.565H201.497Z" fill="#E4E4E4"/>
<path d="M202.013 501.361C202.762 502.063 203.277 503.046 204.354 501.642C204.026 504.263 201.638 503.936 202.013 501.361Z" fill="#E4E4E4"/>
<path d="M210.673 508.012L211.609 509.089L210.439 509.979C211.001 509.51 209.596 507.919 210.673 508.012Z" fill="#E4E4E4"/>
<path d="M198.083 491.625C198.785 491.437 200.002 491.859 200.938 491.859L200.236 492.936C199.674 492.467 199.113 491.578 198.083 491.625Z" fill="#E4E4E4"/>
<path d="M200.937 491.857L201.967 490.219C202.248 491.53 201.733 491.857 200.937 491.857Z" fill="#E4E4E4"/>
<path d="M206.603 497.806L204.169 500.428L206.603 497.292V497.806Z" fill="#E4E4E4"/>
<path d="M197.333 486.053L195.788 487.13C196.537 486.521 197.333 485.913 198.035 485.304L197.333 486.1V486.053Z" fill="#E4E4E4"/>
<path d="M196.91 482.31C195.693 483.153 194.476 481.889 193.774 482.638C193.821 481.608 194.804 480.531 195.693 479.548C195.272 480.484 195.553 481.327 196.864 482.263L196.91 482.31Z" fill="#E4E4E4"/>
<path d="M197.002 478.002C196.768 478.471 196.253 479.032 195.738 479.594C195.972 479.079 196.346 478.564 197.002 478.002Z" fill="#E4E4E4"/>
<path d="M201.313 487.739C200.892 487.692 199.722 487.598 199.16 486.849L201.22 487.13C201.22 487.13 201.266 487.505 201.313 487.692V487.739Z" fill="#E4E4E4"/>
<path d="M201.263 487.176H201.216C201.076 486.52 200.982 486.099 200.935 485.912C200.935 486.052 201.076 486.474 201.263 487.176Z" fill="#E4E4E4"/>
<path d="M201.31 487.881V487.741C201.31 487.741 201.543 487.787 201.31 487.881Z" fill="#E4E4E4"/>
<path d="M204.45 493.967C205.433 492.983 206.416 490.97 208.336 492.609C207.072 493.405 205.948 492.468 204.45 493.967Z" fill="#E4E4E4"/>
<path d="M203.886 488.254L204.541 489.799C204.026 489.799 203.23 489.658 202.715 490.127L203.886 488.207V488.254Z" fill="#E4E4E4"/>
<path d="M204.45 487.412L203.888 488.254L203.654 487.693L204.45 487.412Z" fill="#E4E4E4"/>
<path d="M199.343 480.342C200.092 479.499 199.999 478.75 199.999 477.861C200.561 478.704 200.935 479.593 201.076 480.483C200.467 480.717 199.437 481.325 199.343 480.342Z" fill="#E4E4E4"/>
<path d="M200.518 483.616L200.611 483.429C200.611 483.429 200.844 483.569 200.518 483.616Z" fill="#E4E4E4"/>
<path d="M198.173 469.48C198.173 469.48 198.454 469.48 198.547 469.527L198.219 469.621V469.48H198.173Z" fill="#E4E4E4"/>
<path d="M201.5 480.578C202.015 481.186 201.593 481.701 201.078 482.169C201.172 481.608 201.219 481.046 201.078 480.484C201.359 480.39 201.546 480.344 201.453 480.578H201.5Z" fill="#E4E4E4"/>
<path d="M197.52 475.474C197.988 475.755 198.409 476.083 198.831 476.41C198.128 476.176 197.052 475.661 197.52 475.474Z" fill="#E4E4E4"/>
<path d="M200.001 483.293L199.954 483.386C199.486 483.246 199.72 483.246 200.001 483.293Z" fill="#E4E4E4"/>
<path d="M200 483.291C200.234 482.917 200.655 482.542 201.03 482.167C200.936 482.589 200.796 483.01 200.562 483.432C200.421 483.385 200.187 483.338 199.953 483.291H200Z" fill="#E4E4E4"/>
<path d="M210.067 463.909C208.288 464.471 207.071 466.765 209.412 467.935C208.429 469.855 202.249 470.136 198.597 469.574C199.393 469.34 200.095 469.199 200.798 467.327C201.921 467.654 203.934 470.323 205.245 468.591C205.667 466.203 204.169 466.999 202.998 466.156C205.479 466.484 205.62 462.645 209.038 462.271L208.335 464.471C208.85 464.377 209.506 463.488 210.114 463.909H210.067Z" fill="#E4E4E4"/>
<path d="M199.483 472.478V473.18C198.922 472.525 198.079 472.15 196.44 471.495C197.049 470.231 197.704 469.856 198.266 469.622L199.296 472.759L199.53 472.478H199.483Z" fill="#E4E4E4"/>
<path d="M199.954 476.127C201.827 475.238 202.389 473.459 204.683 473.974C204.917 475.94 203.278 475.659 202.623 477.017C202.529 473.833 201.687 478.141 200.142 476.127C199.908 476.783 199.908 477.345 199.908 477.907C199.58 477.392 199.159 476.923 198.69 476.502H198.831V476.549C199.112 476.642 199.252 476.642 199.112 476.549V476.455C199.393 476.362 199.627 476.268 199.814 476.174C199.252 475.378 199.252 476.174 199.112 476.455L198.831 476.549C198.971 475.472 199.205 474.348 199.299 473.225C199.767 473.833 199.861 474.629 199.861 476.127H199.954Z" fill="#E4E4E4"/>
<path d="M212.455 490.407C212.455 490.407 212.127 490.36 211.987 490.36C212.221 490.126 212.362 490.032 212.455 490.407Z" fill="#E4E4E4"/>
<path d="M211.095 489.236C210.861 489.517 210.065 489.798 210.346 490.547C211.048 491.155 211.329 490.453 211.984 490.406C211.516 490.921 210.72 492.185 209.597 490.828L209.831 490.547C208.988 489.329 206.273 488.019 206.038 488.253C207.864 488.393 209.222 488.534 211.095 489.189V489.236Z" fill="#E4E4E4"/>
<path d="M206.18 482.307L206.648 479.498L208.615 480.528L207.585 480.621C208.287 482.072 206.929 481.932 206.18 482.26V482.307Z" fill="#E4E4E4"/>
<path d="M197.144 469.434L195.131 470.23L197.706 468.077L197.144 469.434Z" fill="#E4E4E4"/>
<path d="M196.581 466.061L194.802 466.623L195.692 465.452L196.581 466.061Z" fill="#E4E4E4"/>
<path d="M189.561 270.321L190.263 269.759C189.982 270.04 189.748 270.227 189.561 270.321Z" fill="#E4E4E4"/>
<path d="M188.297 275.705L187.361 275.611C187.922 275.471 188.297 275.471 188.297 275.705Z" fill="#E4E4E4"/>
<path d="M170.366 382.822C168.353 382.166 165.403 381.558 167.463 381.136L169.523 380.949C169.383 381.885 169.804 382.447 170.366 382.822Z" fill="#E4E4E4"/>
<path d="M172.285 320.462C172.285 320.462 172.707 320.696 172.894 320.79C172.192 321.071 171.583 321.352 170.975 321.633C171.396 321.258 171.817 320.884 172.285 320.462Z" fill="#E4E4E4"/>
<path d="M180.666 319.574L179.309 318.075C179.777 318.403 180.198 318.871 180.666 319.574Z" fill="#E4E4E4"/>
<path d="M202.061 243.169L204.308 243.262C203.699 244.48 203.044 243.496 202.061 243.169Z" fill="#E4E4E4"/>
<path d="M187.03 431.698C185.953 430.996 185.391 430.34 185.064 429.732C186.562 430.481 188.528 430.855 187.03 431.698Z" fill="#E4E4E4"/>
<path d="M168.167 266.857C168.635 266.436 169.103 266.342 169.524 266.483C169.056 266.904 168.588 267.091 168.167 266.857Z" fill="#E4E4E4"/>
<path d="M184.128 426.925C184.362 427.018 184.55 427.159 184.737 427.299C184.643 428.095 184.643 428.891 185.065 429.734C183.941 429.172 183.098 428.376 184.128 426.971V426.925Z" fill="#E4E4E4"/>
<path d="M274.251 165.17C274.251 165.17 274.345 164.982 274.345 164.842C274.485 165.076 274.392 165.123 274.251 165.17Z" fill="#E4E4E4"/>
<path d="M296.863 133.104C296.488 133.104 295.973 133.291 295.458 133.431C295.645 133.197 296.067 133.104 296.863 133.104Z" fill="#E4E4E4"/>
<path d="M192.09 452.907C192.137 453.656 191.903 453.094 192.09 452.907V452.907Z" fill="#E4E4E4"/>
<path d="M200.794 454.123C200.794 454.123 201.215 453.701 201.684 453.561C201.215 453.748 200.981 453.935 200.794 454.123Z" fill="#E4E4E4"/>
<path d="M193.681 415.734C193.681 415.734 193.681 415.734 193.681 415.687C194.149 415.78 194.056 415.78 193.681 415.734Z" fill="#E4E4E4"/>
<path d="M193.308 453.702C192.98 453.514 192.699 453.28 192.465 452.953C192.652 453.046 192.933 453.28 193.308 453.702Z" fill="#E4E4E4"/>
<path d="M192.321 453.844C192.321 453.844 192.555 454.219 192.695 454.406C192.414 454.593 192.18 454.593 192.321 453.844Z" fill="#E4E4E4"/>
<path d="M191.947 451.924C192.041 452.345 192.228 452.673 192.462 453.001C192.275 452.907 192.181 452.86 192.087 452.954C192.087 452.72 192.041 452.439 191.9 451.924H191.947Z" fill="#E4E4E4"/>
<path d="M224.628 197.194C224.628 197.194 224.628 197.054 224.628 196.96C225.751 196.96 225.424 197.147 224.628 197.194Z" fill="#E4E4E4"/>
<path d="M185.91 358.432C185.91 358.432 185.864 358.479 185.817 358.525L185.724 358.432H185.91Z" fill="#E4E4E4"/>
<path d="M186.797 355.529C184.55 357.121 185.018 357.683 185.721 358.432L179.822 358.806L186.797 355.529Z" fill="#E4E4E4"/>
<path d="M194.149 258.01L195.273 260.304C198.831 259.274 198.316 257.542 200.188 259.93C194.149 258.01 197.286 266.063 191.246 264.377L192.183 265.922C192.183 265.595 192.604 265.641 192.651 265.314C194.898 268.404 187.782 265.595 187.782 268.731C187.969 269.855 188.625 270.791 189.561 270.323C188.812 270.932 188.156 271.54 187.454 272.149C187.407 272.851 188.531 272.945 188.578 272.289L187.22 275.567H187.407C186.331 275.847 184.552 276.597 183.756 276.971C184.411 278.048 184.505 276.69 185.254 277.112C184.598 277.626 183.943 278.141 183.288 278.703C184.739 279.874 186.612 278.61 186.705 277.252C192.417 280.436 184.786 278.469 187.595 283.104L188.765 281.465C192.042 283.338 190.497 284.462 192.276 286.849C191.2 286.194 187.548 281.746 185.582 283.479C185.909 284.181 186.003 284.977 184.505 285.866C186.705 286.288 186.003 287.271 185.628 288.628L188.578 289.05C187.501 290.361 186.003 289.986 184.552 290.688C184.552 292.421 186.799 293.076 188.671 293.731C188.718 296.4 185.254 291.391 184.224 294.434C185.113 296.821 183.709 298.179 181.602 300.707C182.445 302.393 183.475 300.614 184.224 301.269L181.696 302.439C181.696 302.767 182.445 302.72 182.819 302.72C181.836 303.797 179.823 302.533 178.887 304.359C175.563 304.64 183.381 308.526 179.542 310.586C180.385 311.194 181.368 310.398 182.538 310.586C180.01 313.629 180.666 313.207 177.295 315.782L179.214 318.029C176.967 316.391 174.299 318.451 172.145 320.417C171.068 319.808 170.085 319.293 169.617 318.966L168.072 322.056C168.587 322.43 169.57 322.056 170.834 321.541C170.6 321.775 170.366 321.962 170.132 322.102C171.256 323.179 172.988 322.571 174.626 321.775C174.018 321.447 173.362 321.072 172.754 320.698C174.58 319.902 176.546 319.247 178.325 319.387C177.997 319.574 177.716 319.949 177.529 320.37C177.997 320.183 178.465 320.043 178.746 320.136C179.074 320.23 178.419 320.557 177.67 321.026L181.04 321.634L179.729 321.822L181.883 325.52C178.746 328.329 173.831 331.091 172.894 335.726C175.188 334.368 176.827 335.118 179.729 334.79C176.499 333.9 180.759 331.325 180.01 329.172C180.385 330.342 181.789 329.968 182.211 329.64L179.683 333.807C182.023 333.526 181.555 334.509 182.632 335.398C177.857 335.071 179.87 338.676 178.606 340.501C180.198 340.408 181.743 339.799 181.134 337.88C184.926 339.612 175.89 341.391 179.261 343.17C179.261 342.702 178.934 342.468 179.683 342.14C178.465 343.451 180.057 346.073 181.274 345.23V344.762C182.304 347.852 182.819 354.453 179.168 355.764C179.683 355.67 183.756 354.359 184.505 354.032C180.525 356.794 176.593 359.65 172.707 362.646C175.937 361.382 184.317 361.522 185.582 358.432C186.237 359.088 186.986 359.884 186.143 361.756C185.535 361.382 181.04 361.569 180.9 362.365C185.067 363.442 183.147 363.254 186.892 364.893C185.956 364.284 180.993 366.438 181.508 367.655C182.258 367.281 186.658 366.438 187.08 365.876L182.819 370.23C183.522 369.2 187.08 368.966 188.718 369.247C187.641 369.2 189.514 371.822 189.233 372.758L187.735 371.775C189.421 374.959 181.462 377.206 182.819 380.577C183.756 379.828 188.952 377.674 190.076 379.219C187.735 380.764 178.699 386.476 177.67 390.221L179.308 390.361L178.372 393.264C181.743 390.549 188.671 383.901 191.2 380.811C192.745 381.747 193.025 380.623 193.494 382.59C195.085 382.824 195.273 380.904 195.179 380.343L197.426 384.462C194.336 385.212 195.46 388.816 192.932 389.425C193.4 387.459 193.962 385.539 194.524 383.62C191.48 384.322 186.799 389.097 188.437 392.094C189.889 392.515 193.587 389.753 194.617 389.519C193.728 390.268 193.634 393.17 194.477 393.217L195.647 391.344C197.333 392.749 192.604 395.511 196.162 396.682C196.584 397.337 200.703 397.571 198.971 398.273C195.179 398.273 184.552 401.504 182.258 403.189C182.585 403.376 186.846 405.951 188.812 406.232C191.902 406.56 194.57 402.253 197.192 402.534C196.396 402.861 195.6 403.845 195.366 404.266C196.303 404.781 197.801 403.095 197.988 404.875C195.039 406.185 199.393 408.199 195.694 406.513C195.366 408.433 196.911 408.058 197.426 410.024C195.273 410.071 191.387 414.004 191.059 415.97C191.808 415.596 192.932 415.642 193.447 415.642C194.851 418.92 196.864 420.23 197.941 423.367C198.784 423.367 200.188 424.631 201.265 423.554C200.891 424.21 200.001 424.959 200.235 425.942C203.466 426.925 199.908 423.648 203.559 424.023C201.827 424.725 201.967 427.347 201.359 429.126C198.503 429.594 199.767 426.083 200.422 424.35C196.677 425.614 193.54 429.36 192.932 433.199C192.885 436.101 195.741 433.526 195.366 434.135C197.66 438.817 190.17 440.408 194.149 443.592C197.052 444.435 198.971 442.188 200.797 441.953C201.031 439.519 198.269 439.144 197.894 437.693L199.58 439.098C200.142 438.161 200.329 436.523 199.346 436.008C201.967 436.663 202.389 444.201 205.572 447.431C205.011 448.367 204.449 449.772 203.325 449.491V448.18C201.031 447.665 201.265 451.223 199.954 450.006C199.018 452.019 197.379 454.454 199.112 456.373L202.014 456.045C201.172 456.233 199.954 455.015 200.61 454.173C199.627 455.437 205.338 456.607 202.014 458.667L199.673 457.59C198.69 459.603 196.396 462.319 197.707 464.051C194.758 463.864 197.941 463.489 194.336 462.974C198.643 463.115 192.745 458.012 197.473 458.807C193.353 458.386 195.179 456.748 191.527 455.764C192.464 455.577 193.447 455.905 192.557 454.407C192.791 454.266 193.072 453.985 193.26 453.798C193.26 453.798 193.213 453.751 193.166 453.704H193.306C193.306 453.704 193.447 453.658 193.353 453.798C193.868 454.079 194.43 454.266 194.992 454.219C196.864 452.815 196.022 450.146 196.818 448.929C196.069 448.086 195.928 449.678 194.758 449.397L195.928 447.571C193.868 448.04 191.761 445.98 191.293 448.648L190.544 446.588C189.046 445.699 188.063 444.201 188.578 442.89C187.829 442.047 190.029 439.706 188.718 441.064L188.859 437.365L188.344 437.506C186.986 434.369 189.467 429.734 184.598 427.253C184.739 425.989 184.973 424.631 183.756 422.993L181.93 423.227C182.07 421.635 178.746 419.575 180.338 418.358C175.188 418.405 176.967 411.803 175.282 409.556L177.482 408.714C176.78 407.028 176.827 405.155 177.061 402.674L179.074 402.159C180.104 399.772 176.078 397.852 175.329 394.809C174.626 395.23 175.095 395.933 175.703 396.307C169.992 394.247 176.64 387.786 172.379 385.586C172.847 384.556 172.426 384.041 171.771 383.62C171.771 383.713 171.771 383.76 171.771 383.854C171.724 383.76 171.677 383.667 171.63 383.526C171.162 383.292 170.647 383.011 170.226 382.73C170.834 382.917 171.302 383.152 171.583 383.339C171.443 382.683 171.396 381.7 171.63 380.623L169.336 380.858C169.336 380.858 169.336 380.717 169.336 380.623C168.306 379.921 170.179 379.593 171.911 379.64C172.145 379.078 172.473 378.517 172.894 378.049C169.196 378.283 173.409 375.286 169.383 375.24C171.022 374.116 169.477 370.136 173.222 368.685C172.707 368.779 172.379 368.545 172.52 369.06C171.771 368.123 171.115 367.187 172.005 365.97L169.102 366.204L172.332 363.02C170.319 362.037 169.196 361.616 167.37 363.535C169.945 359.415 168.025 360.492 170.647 356.981L168.868 357.496C168.681 356.466 170.834 354.359 169.242 353.985C165.404 352.252 166.714 342.655 162.969 336.85C168.54 337.505 160.207 334.228 164.467 333.619C163.156 333.385 162.36 332.543 161.33 333.619C162.407 330.389 158.99 328.985 162.407 326.597C161.096 326.269 160.581 327.346 159.785 327.065C160.02 326.784 160.862 325.988 160.066 325.707C159.317 325.426 158.99 326.222 158.475 326.737C158.615 323.46 162.594 323.039 166.293 322.711C164.514 321.166 164.748 320.323 167.136 319.153C165.918 318.591 164.608 317.655 164.186 319.668C163.905 318.591 162.501 312.833 165.45 312.786C164.701 312.411 165.263 311.241 165.638 310.96C165.497 308.479 165.31 308.245 165.731 305.857L166.153 306.559C169.804 305.857 167.089 304.593 167.651 302.72H167.276C164.982 298.039 168.681 300.941 166.199 296.26L168.4 296.775C173.269 296.962 165.965 292.561 168.213 290.22L169.336 291.297C171.209 290.22 163.484 286.428 163.109 284.883C162.735 284.509 162.36 285.258 161.986 285.632C159.785 281.372 164.982 285.632 166.106 283.01C164.654 282.215 161.986 282.964 162.08 280.997C161.003 279.78 168.213 276.643 165.778 273.46C166.855 274.303 167.932 275.098 169.102 274.068C169.992 272.289 165.918 267.748 170.132 266.952C169.851 266.625 169.57 266.437 169.289 266.344C170.6 265.126 172.286 262.083 174.533 261.802C167.463 258.057 180.994 254.171 174.252 251.877C174.907 250.473 175.516 249.021 176.218 247.617L175.469 247.476C176.125 244.527 178.138 244.152 180.104 243.872C179.917 243.076 179.121 243.263 178.746 243.169C179.027 238.581 179.636 238.3 184.318 236.521L182.351 235.21C183.896 234.883 181.883 227.954 186.237 225.332C186.003 225.239 185.535 225.098 185.113 225.239C189.748 222.43 185.347 211.802 193.54 214.752L196.958 213.207C195.366 216.952 200.376 214.705 200.657 216.858C201.874 215.828 200.657 212.083 199.299 213.441L199.486 213.909C195.366 212.036 201.031 208.899 198.503 207.308C203.185 200.8 206.321 193.216 211.237 187.364L213.203 190.266L214.842 188.206C214.702 187.176 213.484 185.725 212.314 187.176C211.565 185.117 215.685 185.959 216.247 186.427C217.745 182.776 212.361 184.742 213.063 183.852L214.327 182.869V183.384C216.247 183.431 217.37 184.321 218.821 182.635C219.336 181.137 217.838 180.622 218.166 180.154C217.979 179.967 218.026 179.779 218.728 179.452L220.928 176.877L221.865 179.733C223.831 179.639 223.971 177.439 225.001 180.716C223.316 175.706 232.913 171.165 233.054 169.292C235.91 169.527 237.361 168.169 239.234 166.483C239.093 167.279 240.685 169.901 242.136 168.356C237.689 163.862 243.588 163.862 242.37 159.133C242.839 162.41 247.895 156.184 248.269 161.1C249.44 159.648 247.005 159.086 247.333 157.12C252.202 156.652 254.449 150.566 259.552 148.506C260.02 149.161 259.88 150.706 261.518 151.221L261.94 146.259C263.063 146.071 265.076 149.957 265.404 146.493C265.498 147.242 265.638 148.365 266.387 148.225C270.039 144.058 275.236 142.373 280.292 140.594C285.348 138.815 290.217 136.802 294.103 131.558C293.26 133.524 294.197 133.384 295.273 133.056C294.712 133.665 295.929 134.976 296.163 136.099C297.24 134.648 298.27 133.15 299.44 131.745C301.125 134.461 304.075 130.622 305.339 133.337L303.841 133.197C306.556 136.053 303.56 141.39 305.152 145.603C302.015 142.326 302.109 152.719 297.333 148.365C296.959 149.442 298.363 149.536 298.363 150.613C296.959 149.068 295.882 148.974 294.524 150.425L294.899 150.8C290.03 152.204 288.719 154.732 284.178 158.197L283.616 155.996C282.633 156.746 282.68 157.495 282.399 158.244C279.683 155.762 285.395 156.699 282.726 153.843C283.101 158.478 275.002 157.682 276.359 162.738C274.721 163.581 275.657 160.21 274.018 161.1L274.253 162.551L272.989 161.193C272.052 162.036 272.38 163.862 272.895 164.938C273.082 164.658 273.784 164.798 274.112 164.751C273.55 166.952 270.039 166.39 269.805 167.139L270.929 165.547C265.872 166.905 261.706 171.68 256.088 172.195L255.807 171.118C251.546 171.68 253.981 173.74 250.142 175.519L250.423 175.613C249.159 175.285 247.942 175.519 247.099 176.315C248.691 176.643 247.005 179.358 248.925 179.639C244.477 180.528 246.397 179.639 241.809 178.328L242.417 180.06C240.685 179.452 240.123 178.843 238.204 179.873C240.498 179.873 238.906 182.729 241.668 183.01C240.966 188.675 234.318 184.461 236.565 189.845C231.79 187.691 237.548 185.397 236.003 185.351C235.676 183.572 232.352 183.806 231.602 185.117C230.666 186.193 234.131 191.25 231.602 193.59C231.837 193.356 232.117 193.59 232.352 193.309C232.352 195.089 229.308 193.871 229.683 196.446C226.968 195.088 228.419 198.085 225.516 195.744L228.325 193.965C226.406 194.62 222.052 192.935 221.537 196.587C222.239 196.914 223.597 196.914 224.439 196.821C224.674 198.178 222.754 197.57 222.988 198.974C225.938 201.268 226.219 196.68 229.589 197.195C230.104 198.927 225.142 198.038 228.747 200.051C224.018 197.617 226.921 202.907 222.52 202.158L224.299 203.516C223.784 203.562 222.52 203.469 222.099 204.03L225.095 204.967C222.005 204.826 224.393 209.087 222.286 209.602C224.72 206.793 220.741 207.261 220.507 205.014C215.17 206.746 223.363 210.772 219.336 214.096C219.992 213.722 219.851 211.24 218.4 211.474C218.166 212.551 218.026 214.096 218.634 215.22C216.247 217.701 217.089 213.441 215.123 213.815C216.621 216.39 213.25 214.564 211.659 215.313L213.484 216.624C212.408 220.65 208.99 214.798 208.381 218.731L211.846 219.246C211.284 219.62 210.675 219.948 210.114 220.323L212.454 221.4C209.786 222.008 209.879 222.851 209.458 224.864C208.335 223.647 205.853 222.898 204.823 224.349C205.338 226.081 206.977 224.864 205.432 226.83C206.93 227.064 208.756 227.486 207.539 225.473C208.241 225.754 209.037 225.753 209.739 226.034C210.348 227.907 208.381 228.89 207.913 229.686C208.007 229.358 208.1 228.937 207.913 228.609L203.419 230.154C203.887 231.044 204.683 230.997 205.479 230.95C204.917 231.465 203.746 231.372 203.044 232.214C204.776 232.87 206.415 233.853 207.913 232.963L204.496 234.883C205.104 235.445 205.666 237.458 206.462 237.364C206.602 239.471 201.218 239.752 201.406 242.654C201.031 242.654 200.61 242.701 200.142 243.076C199.58 245.417 200.75 248.132 197.333 249.677L199.814 252.392C198.316 254.124 196.771 248.834 194.289 251.737C192.37 253.75 196.537 253.656 197.052 254.827C194.992 255.342 191.106 256.325 192.838 259.462C193.681 258.947 193.4 258.198 193.915 257.589L194.149 258.01ZM185.535 283.479C186.097 283.057 187.735 282.355 186.518 281.7C183.849 281.746 184.973 282.449 185.535 283.479ZM176.686 324.49C177.435 324.069 177.061 323.46 176.171 322.805C175.984 323.32 176.078 323.881 176.686 324.49ZM191.48 444.622L191.574 444.528C190.357 443.639 190.825 443.967 191.48 444.622ZM193.166 446.729C192.932 447.056 192.651 447.15 192.323 447.15C192.838 446.822 192.698 446.261 192.323 445.699C192.932 445.699 193.447 445.886 193.166 446.729ZM219.243 180.809V181.605C220.601 181.231 219.945 181.043 219.243 180.809Z" fill="#E4E4E4"/>
<path d="M179.683 319.666C179.309 319.525 178.888 319.479 178.466 319.432C178.841 319.198 179.262 319.198 179.683 319.666Z" fill="#E4E4E4"/>
<path d="M201.637 243.166C201.637 243.166 201.637 243.12 201.637 243.073C201.778 243.073 201.918 243.12 202.059 243.166H201.637Z" fill="#E4E4E4"/>
<path d="M198.831 403.189C198.363 402.814 197.848 402.674 197.379 402.58C197.894 402.393 198.409 402.44 198.831 403.189Z" fill="#E4E4E4"/>
<path d="M193.165 460.444L193.305 458.759C193.399 459.508 193.961 459.649 194.382 459.929C193.867 460.023 193.025 459.929 193.165 460.444Z" fill="#E4E4E4"/>
<path d="M210.114 470.649C209.88 470.93 210.208 471.164 209.974 471.445L208.944 471.586C208.757 470.603 209.459 469.713 210.114 470.649Z" fill="#E4E4E4"/>
<path d="M200.795 459.928C202.668 459.553 202.34 460.723 202.246 461.894C202.246 461.847 202.246 461.753 202.246 461.707C199.765 462.69 200.28 461.332 200.842 459.928H200.795Z" fill="#E4E4E4"/>
<path d="M202.296 462.179C202.296 462.553 202.296 462.881 202.484 463.209C201.501 463.583 202.156 462.834 202.296 462.179Z" fill="#E4E4E4"/>
<path d="M192.884 450.143C193.492 450.517 190.636 451.173 191.479 451.22C189.326 452.484 193.211 446.959 192.884 450.143Z" fill="#E4E4E4"/>
<path d="M207.115 459.228L204.727 459.415L206.366 458.338L207.115 459.228Z" fill="#E4E4E4"/>
<path d="M202.997 450.941L204.12 452.533C203.746 452.627 203.559 452.907 203.465 453.235C203.09 452.158 202.295 451.128 202.997 450.941Z" fill="#E4E4E4"/>
<path d="M203.467 453.236C203.654 453.798 203.794 454.36 203.467 454.781C203.42 454.454 203.279 453.798 203.467 453.236Z" fill="#E4E4E4"/>
<path d="M207.115 456.606L206.506 456.232L205.991 455.015L207.115 456.606Z" fill="#E4E4E4"/>
<path d="M196.675 432.309V430.202C197.378 429.734 198.033 430.109 197.939 430.905C197.565 431.56 197.518 432.356 196.675 432.309Z" fill="#E4E4E4"/>
<path d="M204.682 436.102C204.074 435.727 203.559 435.867 202.716 435.821L205.478 434.884L204.682 436.148V436.102Z" fill="#E4E4E4"/>
<path d="M203.463 430.295C204.165 429.873 204.727 426.783 205.382 429.265C204.68 429.733 204.68 431.84 203.463 430.295Z" fill="#E4E4E4"/>
<path d="M190.264 402.812L190.405 403.28L185.863 404.731L190.264 402.812Z" fill="#E4E4E4"/>
<path d="M193.21 374.302C194.942 376.174 190.542 375.659 192.508 377.251C191.572 378.094 190.916 375.94 190.12 376.736C190.822 375.051 190.027 374.536 193.21 374.302Z" fill="#E4E4E4"/>
<path d="M190.121 376.784C190.028 377.065 189.84 377.346 189.653 377.673C189.84 377.205 189.981 376.971 190.121 376.784Z" fill="#E4E4E4"/>
<path d="M301.779 128.935L303.09 127.53L302.481 129.356L301.779 128.935Z" fill="#E4E4E4"/>
<path d="M305.713 131.465L305.291 128.422L306.93 130.81C306.555 130.81 305.806 130.716 305.713 131.465Z" fill="#E4E4E4"/>
<path d="M190.78 288.487H190.03C189.281 288.112 189.281 287.785 189.281 287.082L190.78 288.487Z" fill="#E4E4E4"/>
<path d="M192.933 269.431L192.886 269.759L190.452 268.401L192.933 269.431Z" fill="#E4E4E4"/>
<path d="M201.405 255.529C201.264 256.185 200.422 256.653 200.281 257.308C201.264 256.185 198.268 254.125 201.405 255.529Z" fill="#E4E4E4"/>
<path d="M170.838 414.334C259.416 414.334 331.935 467.611 338.161 535.074C334.51 529.41 329.688 524.494 323.882 521.123C309.931 513.024 291.391 513.726 278.095 522.808C269.949 528.38 264.004 536.526 256.7 543.221C256.419 543.502 256.092 543.736 255.811 543.97L215.642 543.829C207.402 534.419 201.456 521.029 189.939 516.114C178.844 511.338 165.876 516.02 156.044 522.996C147.196 529.316 139.705 537.462 130.716 543.501L90.3133 543.361C85.7253 538.118 83.0099 531.189 78.7027 525.571C68.0753 511.619 46.4928 507.546 31.5114 516.629C20.7904 523.136 14.236 534.606 4.96631 542.987H3C4.1236 471.825 78.7964 414.381 170.791 414.381L170.838 414.334Z" fill="black" stroke="#E4E4E4" stroke-width="4.68168" stroke-miterlimit="10"/>
<path d="M399.863 102.535C386.573 102.535 375.799 91.7612 375.799 78.4711C375.799 65.181 386.573 54.4072 399.863 54.4072C413.153 54.4072 423.927 65.181 423.927 78.4711C423.927 91.7612 413.153 102.535 399.863 102.535Z" fill="black" stroke="#E4E4E4" stroke-width="4.68168" stroke-miterlimit="10"/>
<path d="M404.127 97.0081C396.163 97.0081 389.707 90.5522 389.707 82.5885C389.707 74.6248 396.163 68.1689 404.127 68.1689C412.09 68.1689 418.546 74.6248 418.546 82.5885C418.546 90.5522 412.09 97.0081 404.127 97.0081Z" fill="black" stroke="#E4E4E4" stroke-width="4.68168" stroke-miterlimit="10"/>
<path d="M402.348 208.292C386.834 208.292 374.258 199.929 374.258 189.613C374.258 179.296 386.834 170.933 402.348 170.933C417.861 170.933 430.438 179.296 430.438 189.613C430.438 199.929 417.861 208.292 402.348 208.292Z" stroke="#E4E4E4" stroke-width="4.68168" stroke-miterlimit="10"/>
<path d="M409.242 188.274C408.221 187.48 408.038 186.009 408.832 184.989C409.626 183.969 411.097 183.785 412.117 184.579L409.242 188.274ZM412.117 184.579L483.044 239.776L480.169 243.471L409.242 188.274L412.117 184.579Z" fill="#E4E4E4"/>
<path d="M398.947 190.664C398.417 189.484 398.944 188.099 400.124 187.57C401.303 187.04 402.688 187.567 403.218 188.746L398.947 190.664ZM403.218 188.746L440.016 270.723L435.745 272.64L398.947 190.664L403.218 188.746Z" fill="#E4E4E4"/>
<path d="M401.445 195.757C391.594 195.757 383.608 190.81 383.608 184.708C383.608 178.606 391.594 173.659 401.445 173.659C411.297 173.659 419.283 178.606 419.283 184.708C419.283 190.81 411.297 195.757 401.445 195.757Z" fill="black" stroke="#E4E4E4" stroke-width="4.68168" stroke-miterlimit="10"/>
<path d="M427.614 289.063C425.413 281.432 429.814 273.426 437.445 271.226C445.076 269.026 453.082 273.426 455.282 281.057C455.282 281.151 455.282 281.198 455.282 281.292L427.707 289.391C427.707 289.391 427.614 289.157 427.567 289.016L427.614 289.063Z" fill="#E4E4E4" stroke="#E4E4E4" stroke-width="4.68168" stroke-miterlimit="10"/>
<path d="M480.294 242.422C484.789 236.008 493.543 234.416 500.004 238.676L483.665 262.319C477.298 257.731 475.8 248.882 480.294 242.422Z" fill="#E4E4E4" stroke="#E4E4E4" stroke-width="4.68168" stroke-miterlimit="10"/>
<path d="M492.139 255.108C489.321 255.108 487.036 252.824 487.036 250.005C487.036 247.187 489.321 244.902 492.139 244.902C494.958 244.902 497.242 247.187 497.242 250.005C497.242 252.824 494.958 255.108 492.139 255.108Z" fill="black" stroke="black" stroke-width="4.68168" stroke-miterlimit="10"/>
<path d="M441.25 289.941C438.431 289.941 436.147 287.657 436.147 284.838C436.147 282.02 438.431 279.735 441.25 279.735C444.068 279.735 446.353 282.02 446.353 284.838C446.353 287.657 444.068 289.941 441.25 289.941Z" fill="black" stroke="black" stroke-width="4.68168" stroke-miterlimit="10"/>
</svg>
