<svg  viewBox="0 0 813 521" fill="none" xmlns="http://www.w3.org/2000/svg">
<path d="M263.874 330.712H502.41C526.851 330.712 546.665 350.526 546.665 374.967V430.471C546.665 454.912 526.851 474.726 502.41 474.726H263.874C239.432 474.726 219.618 454.912 219.618 430.471V374.967C219.618 350.526 239.432 330.712 263.874 330.712Z" stroke="#E4E4E4" stroke-width="3.68794" stroke-miterlimit="10"/>
<path d="M382.144 445.039C376.441 445.039 371.817 440.085 371.817 433.975C371.817 427.865 376.441 422.911 382.144 422.911C387.847 422.911 392.47 427.865 392.47 433.975C392.47 440.085 387.847 445.039 382.144 445.039Z" fill="black" stroke="#E4E4E4" stroke-width="3.68794" stroke-miterlimit="10"/>
<path d="M458.118 390.31C452.415 390.31 447.792 385.357 447.792 379.246C447.792 373.136 452.415 368.183 458.118 368.183C463.821 368.183 468.444 373.136 468.444 379.246C468.444 385.357 463.821 390.31 458.118 390.31Z" fill="black" stroke="#E4E4E4" stroke-width="3.68794" stroke-miterlimit="10"/>
<path d="M310.157 391.304C304.454 391.304 299.831 386.351 299.831 380.241C299.831 374.13 304.454 369.177 310.157 369.177C315.86 369.177 320.484 374.13 320.484 380.241C320.484 386.351 315.86 391.304 310.157 391.304Z" fill="black" stroke="#E4E4E4" stroke-width="3.68794" stroke-miterlimit="10"/>
<path d="M45.2885 103.424C43.8871 103.978 43.9609 102.355 43.6658 102.171C46.1736 101.765 45.3623 103.83 45.2885 103.424Z" fill="#E4E4E4"/>
<path d="M69.849 100.252L69.2957 99.7729L73.1312 100.4L69.849 100.252Z" fill="#E4E4E4"/>
<path d="M92.1968 95.4583C90.5741 98.4455 83.9727 96.5278 80.211 98.3717L79.6947 99.1093L77.445 97.4129C82.35 96.6384 88.9145 96.7859 92.2336 95.4583H92.1968Z" fill="#E4E4E4"/>
<path d="M103.334 87.823C102.744 88.9663 106.1 88.2655 100.531 88.5975C100.789 88.4499 100.863 88.3762 101.011 88.2655C101.49 88.1918 102.191 88.0812 103.334 87.823Z" fill="#E4E4E4"/>
<path d="M101.011 88.2669C102.45 87.1605 98.5774 88.5988 101.011 88.2669V88.2669Z" fill="#E4E4E4"/>
<path d="M112.261 87.2322L108.942 86.7528C109.532 86.0521 112.335 85.5358 111.229 85.2407C114.585 85.2776 113.958 85.9783 112.224 87.2322H112.261Z" fill="#E4E4E4"/>
<path d="M115.507 88.7833L113.81 88.5989C114.068 88.3039 114.474 88.1563 115.507 88.7833Z" fill="#E4E4E4"/>
<path d="M110.233 88.23L113.81 88.5619C113.405 89.0413 113.478 89.8896 112.188 88.4881C112.556 89.2257 111.782 88.5619 110.233 88.23Z" fill="#E4E4E4"/>
<path d="M108.314 88.8926C106.618 89.7039 104.368 90.3678 107.687 90.8472C101.602 91.3266 102.192 89.372 108.314 88.8926Z" fill="#E4E4E4"/>
<path d="M93.8219 97.9302L91.646 99.1104L89.4701 98.631C90.5396 98.8891 93.8219 97.082 93.8219 97.9302Z" fill="#E4E4E4"/>
<path d="M132.027 83.8794C132.285 84.4326 131.068 85.4652 130.884 86.2028L128.486 85.7602C129.667 85.2808 131.953 84.7276 132.027 83.8794Z" fill="#E4E4E4"/>
<path d="M130.884 86.1628L134.461 86.8267C131.327 87.1955 130.7 86.8267 130.884 86.1628Z" fill="#E4E4E4"/>
<path d="M116.428 91.6233C114.436 91.1438 112.445 90.7751 110.453 90.3694C112.814 90.7382 115.174 91.107 117.534 91.5495L116.428 91.6602V91.6233Z" fill="#E4E4E4"/>
<path d="M145.6 82.9563L143.534 81.7761L147.185 83.5832L145.6 82.9563Z" fill="#E4E4E4"/>
<path d="M154.635 82.9189C153.123 81.8863 156.663 81.0381 155.04 80.4111C157.511 80.5587 159.613 81.4806 161.494 82.3289C159.503 81.8863 157.364 81.9969 154.598 82.9189H154.635Z" fill="#E4E4E4"/>
<path d="M164.667 83.5073C163.671 83.2491 162.639 82.8066 161.495 82.3271C162.565 82.5853 163.598 82.9172 164.667 83.5073Z" fill="#E4E4E4"/>
<path d="M140.474 86.2006C140.732 85.8318 141.212 84.9467 143.166 84.4304L141.838 86.09C141.433 86.09 140.953 86.1638 140.437 86.2006H140.474Z" fill="#E4E4E4"/>
<path d="M141.838 86.1661H141.875C143.387 85.9817 144.42 85.908 144.862 85.8711C144.494 85.908 143.572 86.0186 141.838 86.1661Z" fill="#E4E4E4"/>
<path d="M140.14 86.2383C140.14 86.2383 140.362 86.2383 140.472 86.2383C140.362 86.3858 140.288 86.4596 140.14 86.2383Z" fill="#E4E4E4"/>
<path d="M125.427 89.2241C127.566 89.9248 131.918 90.5149 127.898 92.2114C126.349 91.2525 128.636 90.2936 125.427 89.2241Z" fill="#E4E4E4"/>
<path d="M138.519 88.3038L134.831 88.8939C134.868 88.4882 135.495 87.8244 134.463 87.4556L138.556 88.3038H138.519Z" fill="#E4E4E4"/>
<path d="M140.364 88.7092L138.52 88.3036L139.885 88.0823L140.364 88.7092Z" fill="#E4E4E4"/>
<path d="M158.212 85.0221C159.835 85.6859 161.605 85.7597 163.633 85.8335C161.494 86.1654 159.282 86.3129 157.18 86.3498C156.885 85.8703 155.926 84.9852 158.249 85.0221H158.212Z" fill="#E4E4E4"/>
<path d="M150.245 85.6477C150.245 85.6477 150.503 85.6846 150.614 85.7215C150.393 85.869 150.208 85.9059 150.245 85.6477Z" fill="#E4E4E4"/>
<path d="M183.327 86.386L182.995 86.681L182.921 86.386H183.327Z" fill="#E4E4E4"/>
<path d="M156.812 86.6423C155.19 86.9373 154.231 86.6423 153.309 86.1628C154.526 86.2735 155.78 86.3472 157.181 86.3472C157.329 86.5685 157.329 86.716 156.812 86.6423Z" fill="#E4E4E4"/>
<path d="M170.199 84.3569C169.351 84.652 168.392 84.9101 167.396 85.1683C168.208 84.6889 169.904 83.9513 170.199 84.3569Z" fill="#E4E4E4"/>
<path d="M151.131 85.2412L150.873 85.1674C151.389 84.7986 151.316 84.983 151.131 85.2412Z" fill="#E4E4E4"/>
<path d="M151.132 85.2407C151.98 85.4251 152.644 85.7939 153.308 86.1258C152.312 86.0152 151.427 85.9046 150.616 85.6833C150.8 85.5726 151.021 85.3882 151.132 85.2407Z" fill="#E4E4E4"/>
<path d="M188.6 96.8601C188.453 95.3481 184.359 93.7254 180.708 95.1637C177.241 93.9098 179.712 89.2261 182.995 86.6814C183.068 87.3452 183.031 87.8984 186.682 88.9679C185.355 89.6686 178.421 90.4431 181.482 91.8814C186.277 92.8771 185.465 91.5495 187.863 90.9594C185.761 92.619 193.837 94.0573 192.546 96.6388L188.416 95.3849C188.305 95.7906 189.78 96.5651 188.6 96.8601Z" fill="#E4E4E4"/>
<path d="M175.952 86.4976L174.44 86.2763C176.173 86.055 177.464 85.5387 179.788 84.5061C182.295 85.3543 182.812 85.9075 182.959 86.3869L175.436 86.2394L175.952 86.4607V86.4976Z" fill="#E4E4E4"/>
<path d="M167.579 86.1276C168.759 87.7503 172.374 88.4879 170.124 90.1843C165.698 89.9999 167.026 88.746 164.371 88.0822C171.562 88.5616 162.306 87.1233 167.506 86.312C166.104 86.0169 164.813 85.9063 163.596 85.8694C164.887 85.6481 166.141 85.4269 167.358 85.1687C167.284 85.2056 167.247 85.2425 167.174 85.2793C166.842 85.4637 166.768 85.5744 167.1 85.4637C167.1 85.4637 167.21 85.4637 167.247 85.4637C167.284 85.685 167.432 85.8694 167.579 86.0538C169.681 85.7588 167.911 85.6481 167.247 85.4637C167.247 85.39 167.174 85.3162 167.174 85.2425L174.402 86.2382C172.853 86.4226 170.972 86.3488 167.542 86.0907L167.579 86.1276Z" fill="#E4E4E4"/>
<path d="M131.955 95.2724C132.176 95.1248 132.14 95.0142 132.14 94.9036C132.619 95.0511 132.803 95.1617 131.955 95.2724Z" fill="#E4E4E4"/>
<path d="M134.793 94.0946C134.277 93.9102 133.798 93.3201 132.138 93.6151C130.737 94.2052 132.212 94.3896 132.138 94.9059C131.105 94.574 128.524 94.0577 131.622 93.0251L132.138 93.2095C134.941 92.3981 138.518 90.2222 138.002 90.0378C137.264 91.513 136.564 92.5456 134.793 94.0946Z" fill="#E4E4E4"/>
<path d="M151.241 90.1855C153.233 90.4068 155.224 90.5543 157.216 90.8125L154.228 92.2508L154.376 91.4026C151.02 91.8451 151.721 90.7756 151.278 90.1855H151.241Z" fill="#E4E4E4"/>
<path d="M184.065 85.6486L183.327 83.9153L186.683 86.46L184.065 85.6486Z" fill="#E4E4E4"/>
<path d="M191.885 86.3846L191.7 84.9094L193.692 85.9052L191.885 86.3846Z" fill="#E4E4E4"/>
<path d="M154.781 351.587L154.191 353.062C154.412 352.361 154.597 351.919 154.781 351.587Z" fill="#E4E4E4"/>
<path d="M154.783 340.595L155.483 340.263C155.114 340.817 154.819 341.038 154.783 340.595Z" fill="#E4E4E4"/>
<path d="M136.824 191.86C134.279 193.188 131.624 195.327 131.919 193.667L132.657 192.081C134.353 192.376 135.681 192.192 136.824 191.86Z" fill="#E4E4E4"/>
<path d="M100.459 263.59C100.164 263.553 99.8685 263.48 99.6104 263.443C99.5366 262.631 99.4997 261.857 99.4629 261.156C99.7579 261.894 100.127 262.742 100.495 263.627L100.459 263.59Z" fill="#E4E4E4"/>
<path d="M97.3969 269.714L100.679 271.226C99.8309 271.004 98.7983 270.525 97.3969 269.714Z" fill="#E4E4E4"/>
<path d="M123.102 398.974C122.328 398.79 121.59 398.642 120.816 398.421C123.139 397.13 122.512 398.421 123.102 398.974Z" fill="#E4E4E4"/>
<path d="M239.679 143.844C238.942 146.352 238.02 148.196 237.024 149.671C238.094 146.647 238.13 143.881 239.679 143.844Z" fill="#E4E4E4"/>
<path d="M172.007 347.678C171.675 348.858 171.343 349.338 170.974 349.264C171.269 348.084 171.601 347.383 172.007 347.678Z" fill="#E4E4E4"/>
<path d="M232.415 155.387C232.599 154.945 232.821 154.576 233.005 154.133C234.443 152.916 235.771 151.589 237.025 149.708C236.287 151.957 234.886 154.281 232.415 155.424V155.387Z" fill="#E4E4E4"/>
<path d="M145.563 358.74C145.563 358.74 145.931 358.74 146.116 358.703C146.116 358.924 145.895 358.888 145.563 358.74Z" fill="#E4E4E4"/>
<path d="M214.083 382.345C213.641 381.718 212.793 380.833 212.018 379.984C212.498 380.316 213.125 381.017 214.083 382.345Z" fill="#E4E4E4"/>
<path d="M224.964 90.9209C224.705 90.6627 223.083 90.1833 224.964 90.9209V90.9209Z" fill="#E4E4E4"/>
<path d="M214.636 94.6082C214.968 94.8663 215.19 95.1613 215.153 95.5301C215.079 95.1245 214.895 94.8294 214.636 94.6082Z" fill="#E4E4E4"/>
<path d="M213.272 159.701L213.161 159.775C213.346 159.222 213.309 159.332 213.272 159.701Z" fill="#E4E4E4"/>
<path d="M221.904 90.6646C222.641 90.6646 223.527 90.8121 224.449 90.9965C224.006 90.9965 223.232 90.8489 221.904 90.6646Z" fill="#E4E4E4"/>
<path d="M222.493 90.036C221.829 89.8885 221.313 89.8147 220.796 89.7041C220.612 89.3722 220.907 89.2615 222.493 90.036Z" fill="#E4E4E4"/>
<path d="M227.582 92.0268C226.512 91.5842 225.443 91.1786 224.447 90.9942C224.853 90.9942 225.037 90.9942 224.963 90.9204C225.517 91.1417 226.291 91.5105 227.582 92.0637V92.0268Z" fill="#E4E4E4"/>
<path d="M35.4033 385.515C35.4033 385.515 35.3296 385.33 35.2558 385.256C35.9565 384.113 35.8459 384.629 35.4033 385.515Z" fill="#E4E4E4"/>
<path d="M92.1608 183.451C92.1608 183.451 92.3078 183.451 92.3813 183.414C92.3078 183.488 92.2343 183.561 92.1608 183.598V183.451Z" fill="#E4E4E4"/>
<path d="M85.6327 186.328C89.2837 186.07 90.427 185.074 92.1603 183.562C92.2709 185.258 92.4184 186.955 92.6766 188.614C90.4638 187.656 88.1405 186.881 85.6327 186.291V186.328Z" fill="#E4E4E4"/>
<path d="M146.743 376.514C146.927 375.26 147.038 373.97 147.038 372.716C143.129 375.482 142.281 378.174 142.096 374.523C143.239 375.039 144.272 374.597 145.194 373.638C146.042 372.642 146.817 371.13 147.591 369.618C148.919 366.52 150.099 363.385 152.496 363.791L152.127 361.246C151.98 361.91 151.685 361.947 151.537 362.574C151.021 360.103 152.054 359.513 153.307 358.739C154.525 357.964 156.295 357.005 156.221 353.907C156.073 351.731 155.52 350.219 154.783 351.584C155.447 350.109 155.815 348.56 156.295 347.011C156.258 345.646 155.373 345.978 155.41 347.306C155.705 344.946 155.594 342.585 155.631 340.225L155.483 340.299C156.258 339.229 157.032 336.795 157.401 335.541C156.442 333.808 156.995 336.537 156.332 336.168C156.59 334.767 156.737 333.402 156.774 332.001C155.078 330.747 154.82 334.14 155.225 336.795C152.533 335.357 152.717 334.619 152.976 333.218C153.234 331.89 153.75 329.714 151.058 326.617L151.574 330.157C148.144 328.866 148.403 325.99 145.194 323.371C145.784 323.556 147.554 324.809 149.177 325.584C150.689 326.432 152.054 326.801 151.98 324.588C151.132 323.629 150.357 322.375 150.357 319.831C148.771 320.605 148.071 318.577 146.854 316.143L144.936 317.544C143.977 314.815 145.047 314.299 144.936 312.234C142.649 309.689 140.842 310.316 139.146 310.758C135.347 306.997 143.83 311.644 139.92 306.517C136.085 303.788 134.462 300.912 130.922 296.043C127.787 294.495 130.442 297.519 129.078 297.261L127.934 293.905C127.308 293.462 127.16 294.089 127.049 294.384C125.464 292.208 128.377 292.392 125.537 289.368C126.238 286.602 116.502 287.303 114.068 281.845C112.629 281.624 113.699 283.394 112.851 283.873C108.278 278.009 108.72 279.042 105.659 273.289C104 272.662 102.377 271.924 100.717 271.224C104.774 272.293 102.34 267.609 100.496 263.59C102.045 263.811 103.373 263.995 104.147 264.217C102.783 262.483 101.529 260.713 100.349 258.943C99.5373 258.685 99.3898 259.68 99.4635 261.119C99.2792 260.676 99.1316 260.234 99.021 259.902C96.8082 258.869 96.587 260.639 96.882 262.778C97.804 263.036 98.7259 263.221 99.6111 263.405C99.7954 265.581 99.943 267.757 98.7628 268.568C98.6153 268.052 98.1359 267.351 97.5458 266.614C97.6196 267.204 97.5827 267.646 97.2876 267.683C96.9557 267.72 96.7713 266.835 96.3656 265.581L93.3784 266.356L93.821 265.36C91.2763 263.553 88.7685 261.598 86.4082 259.459C84.3798 252.452 84.4167 245.814 81.7245 236.483C80.8394 239.47 78.9954 238.18 76.8933 239.139C80.2493 240.761 79.2167 247.068 82.6834 251.456C80.987 249.17 80.36 250.239 80.4337 251.087C79.8437 249.502 79.4012 247.879 78.9586 246.256C78.4792 244.67 78.1103 243.011 77.8153 241.351C76.2295 242.31 75.6026 240.061 74.0536 237.774C76.1558 238.069 76.0082 236.114 75.5656 233.607C75.3812 232.316 75.0494 230.878 74.7912 229.513C74.6437 228.112 74.533 226.747 74.6437 225.751C73.4266 225.641 72.1359 226.895 73.611 231.726C71.472 229.402 72.394 227.226 73.1685 225.346C74.0905 223.391 75.0862 221.695 73.8692 219.039C73.7586 220.256 74.1274 220.883 73.4635 221.4C73.8323 219.961 74.0536 217.527 73.9061 215.609C73.8692 213.692 73.6848 212.253 72.9841 213.028L72.7628 214.282C72.8735 210.078 74.7912 203.513 78.1472 199.014C81.3558 194.33 85.5231 191.97 86.9245 192.744C86.7401 192.375 83.5685 190.716 82.7203 190.642C88.9529 189.462 94.7061 190.015 99.7955 191.49C98.726 190.495 98.4309 188.134 97.7302 186.106C97.0295 184.114 95.8125 182.381 92.3458 183.377C93.8947 182.049 95.9969 180.5 100.201 179.91C99.021 180.722 98.6522 184.741 100.312 184.299C101.934 182.086 102.672 181.422 103.483 180.795C104.332 180.168 105.254 179.504 107.909 177.587C106.176 178.619 109.273 182.16 112.003 181.496C111.449 180.98 111.486 177.365 110.306 177.144C113.072 177.992 115.727 179.025 118.235 180.168C116.391 179.615 117.534 176.702 119.12 175.374C118.42 176.185 125.5 174.858 127.418 175.263L124.394 176.333C132.544 175.448 132.36 182.012 140.105 181.865C139.183 180.98 137.855 176.554 141.764 176.075C143.534 178.177 149.509 186.475 156.922 187.581L158.176 186.253C160.02 186.512 161.9 186.844 163.781 186.991C161.827 185.737 158.434 183.598 154.93 181.385C151.5 179.173 148.071 176.886 145.6 175.595C148.439 174.6 146.411 174.194 150.542 174.194C151.943 173.014 148.255 172.534 147.038 172.461C150.283 172.202 153.381 171.87 156.368 171.354C156.258 172.608 158.065 173.051 159.909 173.456C161.753 173.788 163.634 174.009 163.597 175.079C160.056 174.784 156.627 174.268 153.16 173.567C152.754 176.038 159.651 180.39 166.658 178.619C168.207 177.292 164.556 174.563 164.593 173.678C165.588 174.378 171.194 174.046 171.637 173.235C170.604 173.014 169.608 172.866 168.576 172.608C171.895 170.912 175.361 174.378 178.976 170.69C180.414 170.026 182.221 166.191 182.959 167.408C181.705 170.948 183.991 179.357 186.573 180.722C186.831 180.537 188.712 179.025 190.63 177.365C192.51 175.595 194.428 173.678 194.944 172.608C195.682 170.985 194.133 170.285 192.658 169.621C191.146 168.92 189.634 168.219 190.261 166.892C190.629 167.482 192.289 167.629 192.953 167.556C194.17 166.265 191.404 166.007 194.723 164.642C196.456 166.597 200.993 160.807 197.231 165.675C200.698 164.531 200.255 163.351 203.795 161.175C203.537 163.278 210.102 163.646 213.532 161.802C212.978 161.434 213.126 160.253 213.2 159.7C218.953 154.722 221.055 150.997 225.591 145.834C225.517 144.948 226.956 141.924 225.222 142.367C226.107 141.851 227.398 141.666 228.542 139.933C228.873 135.47 225.739 143.547 225.259 139.564C226.624 140.228 229.832 136.356 231.787 133.995C233.52 135.802 228.947 140.412 226.403 142.109C228.763 143.953 235.069 141.703 239.532 134.475C242.445 128.463 238.536 131.192 239.31 130.234C240.601 124.407 241.744 121.788 242.814 119.096C243.22 117.768 243.662 116.367 243.478 114.634C243.293 112.9 242.63 110.724 240.712 108.327C238.647 106.741 237.835 107.331 237.245 108.143C236.655 108.954 236.286 110.024 235.475 109.987C235.991 111.13 236.434 112.126 236.839 113.048C237.356 113.933 237.725 114.781 238.13 115.556C238.573 116.33 238.905 117.141 239.163 117.953C239.458 118.764 239.642 119.575 239.605 120.461C239.31 119.022 238.72 117.621 238.204 116.33C237.909 118.063 237.688 121.235 238.02 123.042C237.282 121.456 237.356 116.736 234.959 112.015C232.635 107.258 227.583 103.57 223.452 102.758C222.456 101.541 220.17 100.029 221.608 99.6974C222.42 100.103 223.268 100.509 224.042 100.988C227.14 100.546 219.949 96.8946 223.563 97.5953C220.354 95.0875 216.224 92.2478 210.729 92.3215L209.401 94.4236C209.586 93.7598 213.052 93.6123 214.417 94.608C212.315 93.1329 205.971 96.3414 204.017 93.2435C205.271 92.8378 206.525 92.4322 207.815 92.1002C204.238 90.5513 199.923 87.7116 195.239 87.9697C197.526 85.9045 196.272 88.3017 199.812 86.0151C196.641 88.9286 211.688 87.1215 206.709 89.9981C210.581 87.4166 212.831 89.4449 218.252 88.0066C217.92 88.7442 216.187 88.9286 220.612 89.7031C220.76 89.9612 221.129 90.3669 221.387 90.6251C221.534 90.6251 221.571 90.6251 221.682 90.6251C221.571 90.6251 221.498 90.6251 221.424 90.6251C221.571 90.7726 221.608 90.8095 221.313 90.6251C220.17 90.6251 219.248 90.8095 218.842 91.1045C219.69 92.174 221.756 93.2066 223.821 94.2761C225.886 95.4194 227.988 96.5995 228.837 97.6322C231.381 98.6279 228.246 96.3414 229.943 96.3783C230.828 97.374 231.676 98.4804 232.414 99.5499C233.631 98.2222 240.38 102.758 235.364 97.1158C237.171 98.4435 238.831 100.103 240.38 101.873C242.039 103.164 243.699 105.156 244.953 107.295C245.506 108.401 245.986 109.544 246.354 110.614C246.686 111.683 246.797 112.753 246.871 113.638C247.498 115.261 247.239 117.4 247.055 118.69C246.76 119.981 246.539 120.497 247.166 119.096C247.055 122.673 246.317 125.956 245.359 129.017L245.727 129.201C244.805 133.885 242.408 137.941 239.937 141.777C237.429 145.649 234.885 149.337 232.82 154.021C230.57 155.902 228.431 157.524 225.407 160.991L225.739 162.651C224.3 163.683 222.53 165.638 220.834 167.371C219.1 169.031 217.478 170.469 216.408 170.322C216.039 172.977 212.573 175.706 208.516 177.956C204.422 180.168 199.812 181.939 197.12 183.524L196.125 181.939C192.363 183.856 188.306 184.815 183.18 185.811L182.959 184.151C178.386 184.225 172.374 188.54 165.256 189.425C165.81 189.978 167.617 189.573 168.76 188.909C164.925 191.527 160.241 191.417 155.852 190.937C151.464 190.421 147.37 189.499 143.756 190.863C141.949 190.236 140.658 190.458 139.404 190.863C139.552 190.863 139.736 190.9 139.847 190.937C139.662 190.937 139.404 190.937 139.109 190.937C138.334 191.195 137.523 191.527 136.638 191.785C137.376 191.38 138.076 191.085 138.703 190.937C137.339 190.9 135.273 190.642 133.319 190.236L132.471 192.007C132.471 192.007 132.176 192.007 132.028 191.97C130.11 192.634 130.479 191.122 131.512 189.794C130.516 189.499 129.594 189.167 128.893 188.761C127.418 191.638 123.73 187.913 121.849 191.122C121.149 190.421 118.788 190.347 116.465 190.126C114.142 189.978 111.781 189.72 110.97 188.319C110.97 188.724 110.49 189.056 111.486 188.835C109.495 189.646 107.651 190.495 105.585 190.273L105.512 192.67C103.815 192.191 102.082 191.822 100.275 191.527C98.3572 193.961 98.0252 195.178 100.976 195.547C97.6933 195.731 96.4763 196.285 95.4436 196.727C94.3741 197.207 93.4153 197.502 90.5756 198.424L91.7926 199.309C90.5018 200.452 86.9614 201.595 87.4408 203.365C87.3302 205.836 85.1543 210.114 84.6012 215.904C84.048 221.658 85.5969 228.739 88.8054 233.385C86.482 233.127 87.2565 234.234 88.5104 235.487C89.7274 236.741 91.1656 238.18 89.8011 239.139C91.0181 239.286 92.2352 240.356 92.1983 238.364C93.9685 243.896 97.8409 244.707 97.9515 249.539C99.1685 249.428 98.3571 247.658 99.2054 247.768C99.316 248.248 99.6479 249.723 100.496 249.797C101.308 249.87 100.644 248.617 100.422 247.658C103.778 252.157 102.119 254.591 100.238 256.988C103.447 258.205 104.332 259.348 104.848 262.336C106.323 262.336 108.351 262.815 105.659 259.975C107.282 261.414 116.907 267.462 115.727 269.453C116.649 269.417 118.346 271.224 118.678 271.814C122.845 274.764 123.361 274.838 127.271 278.046L125.906 277.53C125.795 280.997 128.893 280.554 131.954 283.357L132.028 283.062C136.38 285.164 137.044 286.086 137.671 286.861C138.334 287.672 138.961 288.409 143.313 290.696L141.727 291.655C140.768 293.388 142.649 294.347 145.157 295.601C147.665 296.855 150.763 298.551 152.017 301.17L149.915 300.322C150.468 301.87 152.717 302.682 155.262 303.493C157.77 304.305 160.499 305.263 161.605 306.554C162.269 306.997 161.458 305.3 161.052 304.341C167.617 310.685 159.761 306.554 162.49 312.344C164.113 312.861 164.666 309.431 166.805 313.377C167.654 314.225 168.317 317.544 168.539 321.343C169.018 325.068 169.129 329.124 170.973 331.78C169.756 330.673 168.576 329.678 168.428 332.628C168.502 334.841 170.051 337.643 170.678 340.594C171.047 342.069 171.342 343.544 171.305 344.909C171.194 346.273 170.862 347.49 170.051 348.486C170.309 349.076 170.53 349.297 170.788 349.334C170.014 352.727 168.317 360.177 166.215 361.726C167.58 362.795 167.801 364.602 167.285 366.631C166.842 368.696 165.773 371.019 164.482 373.122C163.339 375.261 162.048 377.178 161.347 378.727C160.683 380.276 160.647 381.456 161.937 382.083C160.167 385.107 158.471 388.131 156.332 390.934L156.959 391.045C155.299 393.995 153.566 395.581 152.127 396.614C150.689 397.683 149.435 398.126 148.108 398.458C147.333 399.822 148.476 399.38 148.771 399.49C145.858 403.473 143.829 405.317 141.801 406.719C139.699 408.083 137.376 408.821 133.319 409.853L133.577 411.845C132.36 411.956 129.815 414.463 126.054 416.861C122.366 419.368 117.387 421.655 112.556 422.024C112.703 422.208 112.998 422.466 113.773 422.466C108.351 422.946 102.451 425.564 96.882 426.781C94.116 427.482 91.5345 427.777 89.3586 427.556C87.2196 427.371 85.5231 426.523 84.6012 424.826C82.3146 424.236 80.0281 423.609 77.8153 422.798C86.5926 423.019 76.7458 419.848 80.3969 419.036C77.1884 418.373 71.5458 420.106 75.6394 420.917L76.3401 420.659C77.4465 424.495 65.4238 420.217 65.1657 422.319C63.0267 421.802 60.8877 421.249 58.7855 420.585C56.6465 419.995 54.5812 419.331 52.516 418.52C48.3855 417.192 44.1075 415.201 40.2352 412.878C36.2891 410.517 32.5642 407.567 29.3557 403.842C26.1472 400.154 23.5288 395.249 22.6805 389.754C23.7132 390.455 24.7458 391.082 25.7784 391.635C25.2621 389.422 24.8933 387.062 25.0408 384.739C24.5983 382.895 22.9756 381.899 23.0125 387.357C22.1642 385.956 22.5699 383.558 23.4919 381.788C24.377 379.981 25.7047 378.838 25.9628 378.875C27.1798 374.191 26.3316 374.67 24.8564 376.146C23.4919 377.621 22.238 380.424 22.6437 378.801C23.1231 377.363 23.7132 375.924 24.4139 374.67L24.2664 375.703C25.5203 374.302 26.4423 373.748 27.438 372.9C28.4338 372.052 29.4664 370.946 31.1997 368.77C33.1543 365.783 31.1997 366.299 32.1217 365.229C31.9742 365.119 32.2692 364.676 33.6337 363.717C35.5883 361.836 37.6536 360.214 39.7557 358.702C39.3132 359.845 38.8707 361.062 38.5019 362.205C41.821 361.025 44.2182 358.222 42.7061 362.058C43.7387 359.107 49.3812 355.383 55.1713 352.69C60.9614 349.887 66.8621 348.117 68.0791 347.085C72.7628 347.085 76.8564 345.831 82.0195 344.392C80.8025 345.13 80.655 347.601 85.0068 346.347C82.3146 341.811 92.7515 342.475 96.0706 338.639C94.5217 340.041 97.8777 339.709 100.939 339.672C104.037 339.672 106.876 339.893 104.369 341.737C108.167 341.073 104.479 339.819 107.356 338.529C116.612 340.004 128.008 337.348 139.441 340.225C139.478 340.889 137.449 341.479 139.662 342.917C141.838 342.29 144.051 341.59 146.3 341.073C148.476 341.995 147.407 345.167 151.98 344.171C151.279 344.503 150.21 345.056 151.574 345.683C162.749 347.417 173.296 352.653 182.885 358.849C192.658 365.008 201.546 372.015 211.798 378.1C208.664 376.809 210.102 378.322 211.725 380.055C210.434 379.133 210.618 381.198 209.77 381.604C212.499 383.337 215.302 385.07 217.957 387.025C217.293 389.865 224.264 395.175 222.862 397.425C222.42 396.54 221.94 395.618 221.461 394.733C221.608 399.453 213.237 394.069 210.913 396.835C210.766 394.29 208.147 392.815 205.344 391.303C202.578 389.68 199.665 387.984 198.743 384.001C197.157 383.522 198.89 385.697 197.747 385.771C197.526 383.522 196.198 381.862 192.842 379.907L192.953 380.461C188.933 376.92 185.651 374.818 182.073 373.011C178.533 371.167 174.698 369.47 169.203 367.184L170.788 366.041C168.428 365.008 167.654 365.303 166.4 365.192C165.662 363.348 167.285 364.123 168.981 364.861C170.641 365.672 172.374 366.483 171.858 364.529C169.498 365.266 165.441 363.201 161.347 361.578C157.29 359.845 153.16 358.665 151.464 360.177C147.739 359.034 153.197 358.591 149.435 357.448L148.108 358.185L147.554 356.526C144.973 356.083 143.387 357.079 143.055 357.964C143.682 358.001 144.678 358.665 145.305 358.886C141.838 359.218 136.38 356.305 135.163 356.526L138.961 356.636C128.672 353.28 115.543 353.834 105.106 352.469L105.844 351.584C101.787 351.104 100.164 351.51 98.5047 352.063C96.8451 352.58 95.1117 353.207 90.7231 353.649L91.0919 353.797C89.2111 353.243 86.8139 353.428 84.4536 354.018C86.8139 354.424 80.8394 356.821 83.9004 357.153C75.16 357.817 79.5118 357.005 73.021 355.788L72.1727 357.485C69.9231 357.005 69.5174 356.415 65.2025 357.743C69.038 357.448 63.3586 360.73 67.7104 360.656C64.0224 363.754 60.7032 364.455 57.9373 365.229C55.1713 365.93 53.0692 366.704 52.3316 369.581C46.7628 368.364 58.2692 363.902 55.8352 364.344C57.0522 362.279 51.3728 363.533 48.9756 365.34C46.5047 367.036 46.9472 371.978 42.4479 376.146C42.8536 375.703 43.0749 375.851 43.5543 375.445C42.5955 377.621 39.3501 377.879 39.4607 380.866C38.133 380.866 37.8011 381.678 37.5799 382.268C37.2848 382.858 37.1004 383.337 35.5883 383.19C36.2153 381.53 37.1742 380.018 38.3912 378.617C37.248 379.686 35.5884 380.534 34.3345 382.157C33.1174 383.706 32.3061 386.177 33.56 388.832C34.0394 388.279 34.6295 386.656 35.1827 385.734C35.9203 387.099 34.7401 388.537 35.9203 389.865C37.2848 389.238 37.1004 387.91 37.1373 386.251C37.1373 384.628 37.7274 382.636 39.3132 381.899C39.5714 382.71 38.7231 383.595 38.2805 384.407C37.8011 385.218 37.8011 385.771 39.3869 385.329C37.3586 385.919 37.3586 387.283 37.9118 388.463C38.4281 389.754 39.1657 390.861 38.8338 393.295L40.2352 392.188C40.2352 392.778 40.2352 394.29 41.0096 395.175C41.1203 394.18 41.4153 393.184 41.7103 392.262C41.6366 393.958 43.0011 394.917 44.4025 395.581C45.8408 396.282 47.3529 396.761 48.3117 398.089C43.2961 393.885 45.804 398.79 42.743 397.794C45.177 401.629 47.2054 401.482 49.0494 401.15C51.004 400.781 52.8111 400.339 57.0891 402.662C55.872 401.998 52.221 401.482 53.6224 403.141C55.3926 403.658 58.1954 403.99 59.6338 403.584C65.977 406.239 57.9742 404.985 60.4082 406.977C63.3954 405.649 63.3954 408.968 66.3458 410.37L66.8252 408.636C70.882 409.042 71.2139 410.038 71.472 410.96C71.7302 411.919 71.9515 412.841 75.75 412.767L73.021 409.817C74.238 410.222 75.455 410.702 76.709 411.034L76.1926 408.968C80.065 410.849 81.4664 410.665 85.4862 410.148C84.5274 411.329 85.9657 413.505 89.6905 413.357C92.1614 412.177 88.2153 411.808 93.3784 411.697C92.1245 410.775 90.8338 409.337 88.6948 411.07C88.4366 410.517 87.5515 410.001 87.2933 409.448C88.5841 408.784 90.1699 408.636 91.682 408.673C93.194 408.673 94.6323 408.673 95.5174 408.636C94.8536 408.784 94.0054 408.968 93.6366 409.263L97.3983 410.112L101.234 410.702C102.266 409.853 101.234 409.485 100.275 409.116C101.75 409.042 102.967 409.706 105.106 409.3C104.221 407.973 104 406.645 100.939 406.497C103.262 406.682 105.549 406.497 107.909 406.497C108.167 405.723 110.675 403.768 109.679 403.547C112.814 401.74 119.231 402.883 123.066 399.38C123.435 399.49 123.988 399.453 125.021 399.085C128.893 396.319 130.922 392.557 136.085 390.197C136.195 388.869 136.269 387.541 136.306 386.287C139.404 383.411 136.085 391.746 141.359 386.804C145.268 383.263 140.769 383.964 141.248 382.12C143.682 380.94 148.55 378.395 148.587 373.085C147.481 374.302 147.37 375.592 146.448 376.736L146.743 376.514ZM152.054 324.625C152.054 325.768 151.574 328.018 152.791 328.424C154.377 326.727 153.123 326.1 152.054 324.625ZM91.5714 259.312C91.7558 260.381 92.9359 261.266 94.5217 262.004C93.8578 261.045 92.899 260.123 91.5714 259.312ZM242.703 106.963C242.703 106.963 242.703 107.11 242.703 107.147C243.957 108.622 244.178 109.249 244.105 109.028C243.994 108.844 243.515 107.958 242.666 106.926L242.703 106.963ZM237.54 101.246C237.208 100.546 237.393 100.398 237.798 100.435C237.798 101.173 239.052 102.353 240.306 103.902C239.605 103.717 238.794 103.164 237.54 101.246ZM33.3756 365.082L32.7855 366.299C35.1827 364.676 34.2976 364.934 33.3756 365.082Z" fill="#E4E4E4"/>
<path d="M97.7289 268.977C98.2083 268.977 98.4665 268.792 98.7615 268.608C98.909 269.161 98.7246 269.419 97.7289 268.977Z" fill="#E4E4E4"/>
<path d="M123.544 399.085L123.434 399.196C123.434 399.196 123.212 399.085 123.139 399.011L123.581 399.122L123.544 399.085Z" fill="#E4E4E4"/>
<path d="M191.736 165.162C190.925 165.899 190.519 166.416 190.298 166.895C190.04 166.49 190.372 166.047 191.736 165.162Z" fill="#E4E4E4"/>
<path d="M206.304 86.2024L209.992 87.1244C208.185 86.7925 207.484 87.1244 206.562 87.2719C206.673 86.8662 207.447 86.3499 206.304 86.2024Z" fill="#E4E4E4"/>
<path d="M174.66 94.9404C174.144 94.7191 173.554 94.9035 173.074 94.6453L173.222 93.834C175.434 93.9446 176.91 94.6453 174.66 94.9404Z" fill="#E4E4E4"/>
<path d="M202.357 91.7325C201.914 93.2077 199.775 92.4701 197.304 91.9538C197.452 91.9538 197.599 91.9907 197.747 91.9907C197.194 89.8148 199.812 90.7736 202.357 91.7325Z" fill="#E4E4E4"/>
<path d="M196.753 91.8448C195.978 91.6972 195.204 91.6235 194.466 91.6235C194.245 90.7753 195.425 91.5128 196.753 91.8448Z" fill="#E4E4E4"/>
<path d="M230.682 94.8293C229.17 94.4605 230.718 92.6534 229.649 92.8009C229.28 91.547 231.419 93.2435 232.562 94.7555C233.706 96.3782 234.001 97.374 230.645 94.7924L230.682 94.8293Z" fill="#E4E4E4"/>
<path d="M199.887 96.4541L200.956 94.6838L202.173 96.3065L199.887 96.4541Z" fill="#E4E4E4"/>
<path d="M219.433 98.2237C218.105 98.0024 216.741 97.8549 215.413 97.7074C215.524 97.4123 215.081 97.1173 214.491 96.8591C216.925 97.2648 219.691 97.7074 219.433 98.2237Z" fill="#E4E4E4"/>
<path d="M214.49 96.898C213.2 96.6768 212.019 96.4186 211.356 96.0129C212.056 96.1236 213.531 96.4555 214.49 96.898Z" fill="#E4E4E4"/>
<path d="M205.159 97.5243L206.376 97.2661L209.142 97.4874L205.159 97.5243Z" fill="#E4E4E4"/>
<path d="M237.133 132.964C236.395 134.292 235.695 135.583 234.846 136.8C234.072 136.911 234.293 135.693 235.142 134.329C235.953 133.554 236.801 132.116 237.133 132.964Z" fill="#E4E4E4"/>
<path d="M234.333 119.873C234.739 120.869 235.145 120.905 235.772 121.532L233.485 121.606L234.333 119.873Z" fill="#E4E4E4"/>
<path d="M232.045 130.604C231.344 130.825 228.246 134.993 230.237 130.678C230.975 130.604 232.672 127.1 232.045 130.604Z" fill="#E4E4E4"/>
<path d="M188.565 173.57L189.598 173.164L190.926 176.668L188.565 173.57Z" fill="#E4E4E4"/>
<path d="M133.024 172.683C138.224 171.798 134.278 175.007 138.925 173.937C140.105 174.822 135.126 174.822 136.343 175.597C133.245 174.638 131.549 175.154 133.024 172.683Z" fill="#E4E4E4"/>
<path d="M136.344 175.595C136.823 175.743 137.376 175.927 137.93 176.186C137.044 175.927 136.602 175.743 136.344 175.595Z" fill="#E4E4E4"/>
<path d="M223.858 390.79L226.624 393.113C225.849 392.744 225.038 392.412 224.227 392.044L223.858 390.753V390.79Z" fill="#E4E4E4"/>
<path d="M225.555 397.796L227.989 397.095L227.362 400.009C226.993 399.308 226.329 397.943 225.518 397.759L225.555 397.796Z" fill="#E4E4E4"/>
<path d="M144.455 319.943L144.861 319.501C145.598 319.538 145.93 320.054 146.631 321.087L144.455 319.98V319.943Z" fill="#E4E4E4"/>
<path d="M152.091 354.833V354.169C152.791 354.685 153.455 355.202 154.082 355.718L152.091 354.833Z" fill="#E4E4E4"/>
<path d="M137.669 381.974C138.407 381.052 139.513 380.056 140.177 378.987C138.444 380.978 139.624 383.892 137.669 381.974Z" fill="#E4E4E4"/>
<path d="M585.755 105.896C584.981 104.938 586.529 104.458 586.64 104.163C587.488 106.081 585.386 106.081 585.755 105.896Z" fill="#E4E4E4"/>
<path d="M594.497 124.52L594.755 123.856L595.419 127.138L594.497 124.52Z" fill="#E4E4E4"/>
<path d="M607.329 137.651C604.305 138.61 602.571 133.115 599.769 131.345H598.957L599.51 128.837C601.871 132.009 604.71 136.545 607.329 137.651Z" fill="#E4E4E4"/>
<path d="M617.766 137.614C616.881 138.315 618.909 139.2 615.959 137.024C616.18 137.024 616.254 137.024 616.365 136.987C616.66 137.135 617.029 137.319 617.729 137.614H617.766Z" fill="#E4E4E4"/>
<path d="M616.367 136.987C617.695 136.729 615.04 136.102 616.367 136.987V136.987Z" fill="#E4E4E4"/>
<path d="M622.708 140.307C622.155 139.827 621.602 139.385 621.122 138.832C621.712 138.5 623.372 138.795 622.892 138.205C624.589 139.2 624.109 139.717 622.708 140.344V140.307Z" fill="#E4E4E4"/>
<path d="M624.148 142.702C623.816 142.517 623.484 142.259 623.189 142.038C623.447 141.853 623.705 141.853 624.148 142.702Z" fill="#E4E4E4"/>
<path d="M621.196 140.6L623.15 142.038C622.745 142.37 622.45 143.181 622.228 141.448C622.192 142.222 621.933 141.448 621.196 140.6Z" fill="#E4E4E4"/>
<path d="M619.833 140.488C618.543 140.599 616.846 140.341 618.579 141.963C616.662 141.004 616.145 139.972 616.477 139.677C616.846 139.308 618.026 139.677 619.833 140.488Z" fill="#E4E4E4"/>
<path d="M606.37 140.378C605.67 140.231 605.043 139.973 604.342 139.751L603.605 137.981C603.973 138.866 606.924 139.825 606.37 140.378Z" fill="#E4E4E4"/>
<path d="M635.582 140.009C635.766 140.562 634.918 141.558 634.77 142.296C634.144 142.148 633.627 141.927 633.037 141.742C633.848 141.374 635.508 140.857 635.582 140.046V140.009Z" fill="#E4E4E4"/>
<path d="M634.806 142.296C635.728 142.554 636.576 142.812 637.535 143.033C635.138 143.365 634.695 142.923 634.806 142.296Z" fill="#E4E4E4"/>
<path d="M623.888 145.615C622.634 144.693 621.527 143.587 620.458 142.591C621.749 143.661 623.15 144.915 624.699 145.8L623.888 145.615Z" fill="#E4E4E4"/>
<path d="M646.238 138.607L644.357 137.574L647.677 139.086L646.238 138.607Z" fill="#E4E4E4"/>
<path d="M654.388 137.835C652.839 136.913 656.231 135.843 654.609 135.327C657.043 135.327 659.292 136.138 661.247 136.913C659.182 136.47 656.969 136.691 654.388 137.835Z" fill="#E4E4E4"/>
<path d="M664.532 138.166C663.499 137.87 662.43 137.391 661.213 136.912C662.356 137.17 663.462 137.539 664.532 138.166Z" fill="#E4E4E4"/>
<path d="M642.255 142.186C642.439 141.817 642.734 140.895 644.32 140.268L643.398 142.002C643.066 142.075 642.661 142.112 642.255 142.186Z" fill="#E4E4E4"/>
<path d="M643.4 142.038V141.964C644.69 141.743 645.539 141.595 645.944 141.521C645.612 141.595 644.875 141.743 643.4 142.038Z" fill="#E4E4E4"/>
<path d="M641.997 142.221C641.997 142.221 642.182 142.221 642.292 142.184C642.219 142.369 642.145 142.406 641.997 142.221Z" fill="#E4E4E4"/>
<path d="M630.675 144.95C632.113 145.909 635.617 146.647 632.335 148.122C631.191 147.052 632.962 146.315 630.675 144.95Z" fill="#E4E4E4"/>
<path d="M640.855 144.362L637.905 145.063C637.905 144.657 638.384 143.994 637.536 143.625C638.643 143.883 639.712 144.141 640.855 144.362Z" fill="#E4E4E4"/>
<path d="M642.404 144.658L640.855 144.363L641.961 144.068L642.404 144.658Z" fill="#E4E4E4"/>
<path d="M658.002 139.677C659.625 140.304 661.358 140.268 663.386 140.452C661.174 140.673 659.035 140.931 657.043 141.079C656.748 140.599 655.752 139.788 658.002 139.677Z" fill="#E4E4E4"/>
<path d="M650.59 140.859C650.59 140.859 650.811 140.859 650.922 140.896C650.737 141.043 650.59 141.117 650.59 140.859Z" fill="#E4E4E4"/>
<path d="M683.706 146.132L683.264 146.206L683.337 145.948L683.706 146.132Z" fill="#E4E4E4"/>
<path d="M656.711 141.41C655.236 141.815 654.277 141.52 653.392 141.151C654.498 141.151 655.715 141.188 657.006 141.115C657.153 141.336 657.19 141.483 656.674 141.446L656.711 141.41Z" fill="#E4E4E4"/>
<path d="M670.467 139.569C669.508 139.753 668.402 139.79 667.332 140.011C668.217 139.532 670.209 139.126 670.467 139.569Z" fill="#E4E4E4"/>
<path d="M651.365 140.416C651.365 140.416 651.217 140.379 651.143 140.379C651.586 139.974 651.549 140.158 651.365 140.416Z" fill="#E4E4E4"/>
<path d="M651.363 140.416C652.137 140.563 652.801 140.858 653.428 141.153C652.543 141.153 651.658 141.043 650.92 140.932C651.068 140.785 651.252 140.6 651.363 140.453V140.416Z" fill="#E4E4E4"/>
<path d="M682.343 157.676C682.749 157.049 682.528 155.832 681.606 154.836C680.721 153.767 679.209 152.808 677.438 152.845C675.226 150.447 678.729 146.833 683.265 146.243C683.007 146.833 682.86 147.313 685.478 150.263C684.667 150.226 682.749 149.267 681.163 149.046C679.577 148.788 678.508 148.898 679.504 150.189C681.385 151.554 682.122 152.144 682.86 152.218C683.56 152.328 684.187 152.107 685.367 152.55C682.897 152.734 687.949 158.45 685.109 159.63C684.593 158.487 683.819 157.528 683.155 156.422C682.86 156.717 683.339 158.081 682.38 157.676H682.343Z" fill="#E4E4E4"/>
<path d="M676.147 143.108C675.63 142.887 675.151 142.555 674.635 142.407C676.515 142.776 677.991 142.666 680.904 142.666C683.191 144.657 683.412 145.432 683.338 145.948C682.084 145.321 680.867 144.694 679.613 144.104L675.704 142.739L676.183 143.145L676.147 143.108Z" fill="#E4E4E4"/>
<path d="M667.443 140.97C668.55 142.666 671.979 143.994 669.472 145.285C665.231 144.51 666.632 143.588 664.05 142.666C671.205 143.625 661.985 141.597 667.37 141.117C665.931 140.748 664.604 140.49 663.387 140.416C664.751 140.269 666.042 140.085 667.296 139.937C667.222 139.937 667.185 139.974 667.111 140.011C666.779 140.195 666.632 140.306 667.038 140.195C667.038 140.195 667.148 140.232 667.185 140.232C667.185 140.453 667.333 140.675 667.443 140.859C669.656 140.822 667.849 140.453 667.185 140.232C667.185 140.158 667.111 140.085 667.111 139.974C669.619 140.49 672.164 141.302 674.598 142.26C672.938 142.039 670.947 141.449 667.406 140.822L667.443 140.97Z" fill="#E4E4E4"/>
<path d="M635.652 151.405C635.652 151.405 635.8 151.147 635.837 151.037C636.242 151.184 636.39 151.332 635.652 151.405Z" fill="#E4E4E4"/>
<path d="M638.087 150.263C637.608 150.115 637.202 149.488 635.8 149.747C634.62 150.3 635.874 150.521 635.8 151.037C634.878 150.705 632.739 150.078 635.358 149.156L635.8 149.341C638.161 148.64 641 146.243 640.521 146.095C640.005 147.608 639.525 148.677 638.05 150.263H638.087Z" fill="#E4E4E4"/>
<path d="M651.918 145.285C653.725 145.322 655.532 145.396 657.339 145.543L654.758 147.129V146.281C651.844 146.945 652.398 145.875 651.918 145.285Z" fill="#E4E4E4"/>
<path d="M684.778 145.874C684.852 145.21 684.888 144.583 684.888 143.956C685.663 145.321 686.253 146.796 686.843 148.16L684.778 145.874Z" fill="#E4E4E4"/>
<path d="M691.452 151.516L692.226 150.262C692.632 151 692.89 151.775 693.185 152.549C692.595 152.217 692.079 151.811 691.452 151.516Z" fill="#E4E4E4"/>
<path d="M794.494 446.846L794.568 448.1C794.457 447.547 794.457 447.141 794.494 446.846Z" fill="#E4E4E4"/>
<path d="M789.922 439.359L790.365 438.732C790.328 439.322 790.18 439.618 789.922 439.359Z" fill="#E4E4E4"/>
<path d="M656.233 306.115C657.671 307.848 660.105 309.287 658.446 309.324L656.786 309.028C656.823 307.775 656.675 306.853 656.233 306.078V306.115Z" fill="#E4E4E4"/>
<path d="M723.611 383.155C723.353 383.155 723.095 383.191 722.799 383.228C722.652 382.491 722.504 381.79 722.357 381.126C722.726 381.753 723.168 382.417 723.611 383.155Z" fill="#E4E4E4"/>
<path d="M721.397 389.572L724.421 390.236C723.684 390.199 722.688 389.977 721.397 389.572Z" fill="#E4E4E4"/>
<path d="M780.738 489.183C780 489.072 779.336 488.998 778.599 488.851C780.295 487.449 780.074 488.666 780.738 489.183Z" fill="#E4E4E4"/>
<path d="M695.177 226.013C694.771 228.152 694.144 229.628 693.517 230.918C693.96 228.337 693.702 225.976 695.177 226.013Z" fill="#E4E4E4"/>
<path d="M807.769 435.451C808.064 436.521 807.953 437.148 807.621 437.259C807.363 436.115 807.29 435.451 807.769 435.451Z" fill="#E4E4E4"/>
<path d="M690.495 235.896C690.532 235.527 690.68 235.195 690.753 234.826C691.749 233.72 692.708 232.577 693.556 230.954C693.224 232.835 692.524 234.863 690.532 235.896H690.495Z" fill="#E4E4E4"/>
<path d="M632.666 403.144C632.481 403.144 632.26 403.071 632.075 403.071C632.112 402.849 632.334 402.96 632.666 403.144Z" fill="#E4E4E4"/>
<path d="M567.278 408.566C567.905 408.64 568.864 408.566 569.823 408.566C569.38 408.677 568.606 408.714 567.278 408.566Z" fill="#E4E4E4"/>
<path d="M706.093 180.54C706.203 180.244 705.908 178.843 706.093 180.54V180.54Z" fill="#E4E4E4"/>
<path d="M698.202 174.27C698.128 174.639 697.944 174.934 697.612 175.081C697.944 174.86 698.128 174.602 698.202 174.27Z" fill="#E4E4E4"/>
<path d="M674.195 242.241L674.121 242.352C674.121 241.836 674.121 241.91 674.195 242.241Z" fill="#E4E4E4"/>
<path d="M704.913 178.142C705.209 178.732 705.504 179.395 705.762 180.17C705.577 179.838 705.319 179.211 704.913 178.142Z" fill="#E4E4E4"/>
<path d="M705.726 178.364C705.541 177.811 705.431 177.368 705.283 176.926C705.504 176.667 705.689 176.815 705.726 178.364Z" fill="#E4E4E4"/>
<path d="M706.277 182.865C706.166 181.906 706.055 181.021 705.76 180.173C705.908 180.468 706.055 180.615 706.092 180.505C706.129 180.984 706.203 181.685 706.277 182.828V182.865Z" fill="#E4E4E4"/>
<path d="M695.253 499.806C695.253 499.806 695.068 499.806 694.921 499.806C694.146 498.552 694.589 498.958 695.253 499.806Z" fill="#E4E4E4"/>
<path d="M656.75 344.542C656.75 344.542 656.75 344.432 656.677 344.358C656.75 344.395 656.824 344.469 656.86 344.505H656.714L656.75 344.542Z" fill="#E4E4E4"/>
<path d="M659.774 349.338C659.516 346.204 658.409 345.54 656.897 344.47C658.446 343.88 659.958 343.253 661.47 342.626C660.843 344.802 660.29 347.052 659.774 349.338Z" fill="#E4E4E4"/>
<path d="M795.711 466.946C795.416 465.914 795.157 464.881 794.826 463.922C791.986 466.799 792.06 468.975 790.769 466.209C793.24 466.651 793.94 464.07 794.309 461.525C794.604 458.98 794.567 456.51 797.001 456.03L795.748 454.371C795.858 454.887 795.563 454.997 795.674 455.477C794.309 453.928 795.01 453.264 795.932 452.232C796.891 451.236 797.887 449.945 796.78 447.732C795.748 446.294 794.678 445.556 794.567 446.81C794.457 445.556 794.272 444.266 794.014 442.938C793.35 442.016 792.76 442.717 793.387 443.602C792.539 441.905 791.617 440.209 790.511 438.586L790.437 438.697C790.584 437.554 790.216 435.23 789.921 434.161C788.335 433.46 790.068 435.12 789.33 435.23C788.888 434.087 788.335 432.98 787.818 431.874C785.864 431.8 787.118 434.677 788.74 436.3C785.864 436.779 785.643 436.152 785.237 434.935C784.868 433.718 784.241 431.948 780.627 430.805C781.291 431.69 782.028 432.501 782.655 433.386C779.262 434.124 778.082 431.763 774.062 430.989C775.316 430.694 782.618 432.059 780.443 428.702C779.373 428.297 778.156 427.596 777.013 425.494C775.943 426.895 774.542 425.346 772.44 423.797L771.26 425.863C769.342 423.724 770.153 422.839 769.305 421.032C766.465 419.483 764.916 420.663 763.441 421.548C758.794 419.077 768.088 420.995 763.035 417.307C758.794 415.721 756.655 413.25 752.894 409.23C749.833 408.271 752.599 410.742 751.271 410.705L749.943 407.644C749.353 407.312 749.243 407.939 749.169 408.234C747.583 406.39 750.238 406.132 747.509 403.661C748.062 400.932 739.138 402.924 736.851 398.019C735.56 398.019 736.556 399.531 735.782 400.121C731.54 395.179 732.02 396.101 729.069 391.196L724.57 390.2C728.221 390.385 725.861 386.439 723.759 383.083C725.16 382.972 726.377 382.824 727.115 382.861L722.948 378.768C722.173 378.768 722.21 379.727 722.468 381.054C722.247 380.685 722.026 380.317 721.878 380.022C719.702 379.69 719.85 381.386 720.403 383.304C721.251 383.267 722.099 383.193 722.911 383.156C723.353 385.111 723.611 387.176 722.652 388.172C722.468 387.729 721.989 387.176 721.399 386.66C721.509 387.176 721.509 387.619 721.251 387.729C720.956 387.84 720.735 387.066 720.255 386.07L717.748 387.619L718.043 386.549L710.851 384.005C707.716 378.952 705.872 373.162 699.271 367.778C700.045 370.507 697.98 370.691 696.874 372.683C700.119 371.871 701.889 377.034 705.872 378.915C703.807 377.919 703.66 379.1 703.955 379.727L698.496 373.715C697.648 375.412 696.357 374.01 694.218 373.605C697.501 371.281 690.567 368.441 688.465 365.712C687.617 366.634 687.58 368.146 691.084 369.99C685.921 369.99 688.687 363.352 683.855 362.946C684.63 363.5 685.183 363.647 685.146 364.385C683.855 362.246 678.84 359.812 679.282 361.434L680.057 362.024C677.254 360.402 673.234 357.451 670.173 354.427C667.075 351.403 665.01 348.268 665.748 346.793C665.416 347.051 663.83 350.149 663.719 350.924C663.092 345.65 662.871 340.376 663.203 335.398C661.875 337.979 654.278 339.049 656.896 344.285C655.532 343.327 653.762 342.11 652.397 338.717C653.43 339.417 657.155 338.458 656.417 337.168C651.512 335.766 653.43 335.988 648.414 333.037C649.816 334.18 652.36 330.345 651.069 328.243C650.701 328.907 647.308 330.05 647.418 331.156C647.418 328.538 647.787 325.883 648.193 323.412C648.193 325.145 645.095 325.108 643.399 324.112C644.394 324.518 641.223 318.47 641.37 316.478L643.03 319.06C641.739 315.372 642.735 313.196 644.026 311.168C645.206 309.139 646.607 307.332 646.423 303.939C645.574 304.714 641.149 306.3 640.633 302.39C641.665 301.505 644.394 299.661 647.05 297.67C648.451 296.674 649.852 295.605 651.033 294.498C652.323 293.392 653.356 292.249 654.094 291.032L653.208 289.704C654.02 288.413 654.868 287.196 655.753 285.979C653.799 286.717 650.664 288.45 647.64 290.81C644.652 293.134 641.776 296.158 640.338 298.518C639.6 295.531 638.936 297.559 639.674 293.244C638.789 291.511 637.609 295.346 637.387 296.674C637.572 293.171 637.94 289.704 638.604 286.311C639.747 286.827 640.817 285.094 641.923 283.471C643.067 281.849 644.136 280.226 645.058 280.742C643.14 283.766 641.26 286.901 639.711 290.331C640.928 290.81 642.845 289.556 644.837 287.639C646.791 285.684 648.672 282.992 649.668 279.931C649.336 278.013 645.095 279.525 644.357 279.119C645.427 278.529 648.267 273.772 647.972 272.961L645.611 275.063C646.275 271.154 651.07 270.858 651.033 265.88C651.586 264.478 650.479 260.311 651.881 260.79C653.061 264.441 660.548 268.978 663.129 268.719C663.129 268.203 664.604 260.975 664.346 258.799C663.793 255.554 657.929 258.983 657.45 256.254C658.077 256.549 659.478 255.849 660.031 255.517C660.4 253.894 657.929 254.927 660.031 252.234C662.428 253.156 663.719 246.481 662.687 252.087C665.121 249.8 664.235 248.915 666.522 245.854C667.149 247.772 673.013 246.223 675.484 243.973C674.857 243.752 674.599 242.683 674.488 242.166C678.102 236.561 679.172 233.02 682.38 227.783C682.159 226.972 683.044 224.095 681.458 224.612C682.306 224.095 683.413 223.837 684.409 222.215C684.298 218.047 682.048 225.644 681.163 221.956C682.565 222.51 685.294 218.822 687.211 216.793C688.945 218.563 684.74 222.51 682.638 224.317C685.257 225.902 690.604 223.542 694.809 217.973C697.685 213.327 693.887 215.023 694.661 214.359C696.284 209.639 698.165 208.016 699.861 206.43C701.484 204.844 702.959 203.258 702.627 198.538C701.078 194.776 698.718 197.874 697.427 196.878C696.099 200.935 697.427 203.59 696.505 206.393C696.579 205.176 696.505 203.922 696.542 202.705C695.583 203.885 694.329 206.393 694.366 208.016C693.923 206.467 695.214 202.595 695.878 197.985C696.579 193.412 696.505 188.101 695.288 184.561C695.841 183.233 696.173 180.836 697.132 181.795V184.192C698.976 186.294 698.828 179.324 699.898 182.348C700.525 178.918 701.521 174.529 698.902 170.104H696.468C697.095 169.883 698.865 172.538 698.533 174.05C698.791 172.944 697.353 171.432 696.284 169.883C695.067 168.371 694.108 166.859 694.882 165.199C695.878 165.937 696.8 166.785 697.759 167.633C697.501 163.982 697.132 158.561 693.444 155.168C696.652 155.5 693.887 156.127 698.128 157.491C695.915 157.159 697.796 159.704 699.123 162.175C700.525 164.683 701.41 167.043 698.976 165.641C701.078 166.527 702 167.817 702.738 169.256C703.586 170.694 704.287 172.28 706.094 174.161C705.319 174.198 704.36 172.944 705.614 176.742C705.43 176.963 705.245 177.443 705.135 177.738C705.172 177.849 705.209 177.885 705.245 177.996L705.135 177.812C705.061 177.996 705.024 178.033 705.098 177.738C704.618 176.89 704.102 176.226 703.586 176.041C702.996 177.148 702.922 179.176 702.959 181.168C702.848 183.159 702.922 185.114 702.516 186.146C702.959 188.322 703.328 185.188 704.176 186.331L702.959 189.355C704.692 189.576 705.504 195.44 706.684 190.019C706.647 191.678 706.61 193.301 706.536 194.961C706.831 196.436 706.979 198.243 706.831 199.939C706.61 201.636 706.241 203.295 705.614 204.402C705.393 206.725 702.332 209.38 704.139 207.868C703.069 210.118 702 212.368 700.783 214.47L701.152 214.691C698.681 221.588 692.633 226.529 691.121 234.643C689.535 236.339 687.838 238.036 686.142 241.392L686.916 242.793C684.888 244.932 683.228 250.649 681.311 250.759C682.675 255.48 674.267 262.192 672.496 266.396L670.837 265.548C669.214 268.277 667.223 270.6 664.752 273.698L663.387 272.702C660.548 275.1 660.474 281.037 658.667 285.758C659.367 285.647 659.699 284.356 659.662 283.361C660.252 286.901 658.777 289.593 657.228 292.396C655.79 295.162 654.389 298.149 655.606 300.878C654.868 302.169 655.163 303.128 655.569 304.013C655.569 303.902 655.569 303.792 655.643 303.681C655.643 303.829 655.643 304.013 655.643 304.197C655.901 304.751 656.306 305.304 656.601 305.931C656.159 305.451 655.753 304.935 655.606 304.493C655.606 305.488 655.495 306.963 655.274 308.512L657.118 308.881C657.118 308.881 657.118 309.102 657.118 309.213C657.966 310.467 656.454 310.504 655.016 309.951C654.831 310.725 654.573 311.5 654.315 312.127C655.864 312.422 655.864 313.38 655.901 314.487C655.901 315.556 656.196 316.663 657.892 316.921C656.601 318.433 659.957 324.223 657.818 326.583C658.187 326.436 658.593 326.731 658.187 325.956C659.367 327.358 660.769 328.575 660.916 330.493L663.203 329.755C663.203 331.378 663.203 333.074 663.313 334.771C666.006 335.766 667.223 335.914 666.965 333C667.813 336.024 668.55 337.057 669.104 337.979C669.694 338.938 670.173 339.786 671.206 342.478L672.017 341.224C673.271 342.515 674.304 345.871 675.926 345.65C678.397 345.871 682.38 348.932 687.359 352.215C692.301 355.534 698.091 359.111 703.438 360.918C699.345 363.426 708.786 361.988 707.384 365.049C708.454 364.532 710.077 364.864 709.044 363.168C713.248 366.966 717.01 366.266 718.817 370.691C719.887 370.175 718.596 368.81 719.407 368.589C719.665 368.995 720.44 370.285 721.251 370.064C722.062 369.843 720.993 368.921 720.477 368.073C725.234 371.244 724.054 374.195 722.874 376.924C726.082 377.293 727.189 378.215 727.926 380.944C729.291 380.649 731.245 380.685 728.406 378.51C730.176 379.432 739.506 383.783 738.437 385.885C739.285 385.701 740.908 387.213 741.203 387.729C745.075 389.979 745.518 390.016 749.132 392.524L747.878 392.192C747.878 395.511 750.644 394.663 753.484 396.839L753.557 396.544C761.56 399.125 756.028 399.236 764.068 401.485L762.777 402.739C761.413 406.39 769.969 404.583 773.177 408.345H771.223C772.661 410.742 780.074 407.792 782.618 408.972C783.282 409.009 782.139 408.013 781.623 407.349C788.704 409.488 781.069 409.783 785.052 413.213C786.565 412.771 785.901 409.857 788.925 411.849C789.957 411.996 791.469 414.393 793.277 417.012C795.121 419.593 797.112 422.507 799.767 423.539C798.255 423.392 796.817 423.281 798.071 425.605C799.251 427.154 801.685 428.518 803.75 430.362C805.816 432.206 807.475 434.456 807.033 436.816C807.512 437.148 807.807 437.222 808.028 437.111C808.434 438.697 809.209 441.168 809.651 443.528C809.983 445.962 810.094 448.212 809.43 449.281C812.786 449.945 812.896 455.182 812.011 459.571C811.2 463.996 809.54 467.61 812.306 468.127C811.679 471.261 810.684 474.285 809.54 477.199H810.167C808.323 483.026 805.963 484.28 803.787 485.386C803.418 486.751 804.377 486.161 804.709 486.197C803.013 490.254 801.648 492.32 800.099 493.905C798.513 495.454 796.559 496.598 793.018 498.036L793.719 499.88C792.65 500.138 790.843 502.756 788.003 505.559C785.163 508.325 781.18 511.202 776.939 512.05C777.087 512.198 777.418 512.456 778.119 512.382C773.435 513.562 768.715 516.697 764.142 518.725C759.643 520.79 755.475 521.639 753.262 518.725C751.197 518.504 749.132 518.283 747.104 517.951C754.59 516.439 745.628 515.258 748.579 513.746C745.702 513.746 741.277 516.512 744.891 516.549L745.407 516.18C746.255 517.84 743.932 518.393 741.424 518.725C738.916 519.057 736.224 519.131 736.372 520.311C728.738 520.385 721.14 520.09 713.617 518.983C706.094 517.914 698.681 515.775 691.895 512.234L694.698 510.649C693.149 509.948 691.637 509.137 690.162 508.288C688.687 508.104 687.433 509.1 690.752 510.98C689.535 511.128 688.281 510.022 687.469 508.805C686.695 507.551 686.289 506.223 686.4 505.928C683.118 504.268 683.228 505.19 683.929 506.592C684.667 507.919 686.031 509.542 685.072 508.878C684.261 508.215 683.413 507.588 682.638 506.85L683.376 507.034C682.122 504.49 682.565 503.678 679.245 500.617C676.811 498.995 676.996 500.765 676.111 499.99C675.963 500.138 675.631 499.88 674.857 498.7C673.197 497.077 671.869 495.233 670.431 493.463L673.75 494.348C672.755 491.434 670.21 489.369 673.75 490.512C671.021 489.812 667.444 484.759 665.194 479.522C662.871 474.322 661.469 469.233 660.474 468.237C660.695 464.18 659.515 460.714 657.892 456.546C658.667 457.432 661.174 457.321 659.626 453.744C655.458 456.694 655.237 447.806 650.774 446.515C652.397 447.253 651.475 444.856 650.774 442.532C649.963 440.319 649.299 438.144 651.733 439.213C649.963 436.668 650.037 439.84 647.935 438.476C647.087 434.972 644.616 431.948 641.665 429.329C638.678 426.711 635.211 424.498 631.966 421.843C632.224 421.216 633.994 421.253 632.999 419.372C631.118 419.372 629.237 419.519 627.43 419.704C626.139 418.634 627.872 415.61 624 416.2C624.627 415.905 625.623 415.463 624.664 414.762C616.182 412.402 607.921 409.415 598.885 407.902C589.887 406.39 580.408 406.354 571.373 409.71C573.807 408.345 572.147 408.308 570.23 408.345C571.447 407.976 570.119 406.759 570.34 405.874L562.669 408.788C561.084 406.427 554.261 409.267 553.228 407.017L555.773 407.239C552.196 404.768 559.94 400.748 559.203 397.281C563.149 400.121 568.939 391.934 575.467 396.249C576.831 395.474 574.25 395.142 574.987 394.294C576.647 395.769 578.565 396.027 582.142 395.363L581.736 394.995C586.789 395.216 590.44 395.142 594.312 394.995C598.184 394.884 602.241 394.7 608.216 395.363L606.999 396.912C609.506 397.171 610.17 396.802 611.424 396.617C613.637 399.789 604.417 395.253 606.445 398.683C608.4 397.207 612.789 398.166 616.956 399.383C621.123 400.563 625.069 402.039 626.95 400.637C630.638 402.26 625.069 402.002 628.721 403.624L630.159 403.108L630.454 404.805C632.888 405.727 634.658 405.247 635.211 404.473C634.584 404.251 633.736 403.329 633.146 402.961C636.908 403.403 641.444 408.382 642.587 408.788C641.37 408.234 640.153 407.607 638.936 407.128C643.362 410.521 648.34 414.393 652.508 419.077C656.749 423.761 659.921 429.219 661.322 434.345L660.216 434.013C661.359 437.849 662.096 439.176 663.092 440.541C664.051 441.905 665.121 443.38 666.264 447.4L666.338 447.032C666.153 448.876 666.522 451.088 667.296 453.154C667.518 450.867 670.321 456.215 670.468 453.301C671.501 461.415 670.505 457.432 669.288 463.406L670.984 464.07C670.431 466.135 669.804 466.541 670.874 470.339C670.837 466.91 673.713 471.925 673.898 468.016C676.701 471.298 677.18 474.175 677.696 476.572C678.139 478.969 678.803 480.776 681.495 481.182C680.02 486.197 676.369 476.424 676.701 478.49C674.82 477.457 675.557 482.546 677.254 484.538C678.803 486.714 683.487 485.681 687.248 489.885C686.843 489.48 687.027 489.222 686.658 488.816C687.691 489.332 688.207 490.291 688.871 491.25C689.498 492.246 690.309 493.168 691.858 493.389C691.563 496.192 694.735 495.38 693.407 498.036C691.969 496.782 690.641 495.454 689.35 494.09C691.157 496.634 691.821 501.466 697.574 502.72C697.464 502.019 696.431 500.544 695.73 499.585C697.464 499.695 698.054 501.613 699.935 501.576C700.857 498.847 694.145 497.741 692.928 493.832C693.887 493.832 694.845 495.085 695.62 496.007C696.431 496.893 697.058 497.261 697.169 495.528C697.095 497.815 698.423 498.552 700.045 499.068C701.631 499.659 703.475 500.064 704.766 502.314L705.172 500.581C705.651 501.097 706.61 502.314 707.753 502.683L706.536 499.806C708.933 502.83 712.953 500.249 715.645 501.982C709.339 500.285 713.691 503.678 710.593 504.121C714.318 506.444 715.867 505.559 717.416 504.49C719.001 503.457 720.587 502.277 725.087 503.236C723.906 502.904 720.329 503.641 722.136 504.748C723.943 504.674 726.34 504.195 727.484 503.42C733.569 504.195 726.414 505.154 728.959 506.407C731.208 504.453 731.983 507.403 734.823 508.141V506.371C741.977 505.043 736.888 510.095 743.416 508.288C742.42 507.551 741.424 506.813 740.465 506.039C741.608 506.223 742.752 506.297 743.895 506.407L743.01 504.453C746.772 505.596 747.915 505.043 751.271 503.9C750.681 505.264 752.304 507.034 755.512 506.371C757.393 504.822 753.963 505.043 758.389 504.195C757.135 503.42 755.77 502.277 754.221 504.305C753.889 503.789 753.004 503.42 752.709 502.867C754.701 501.281 758.167 501.318 759.679 500.876C759.126 501.097 758.462 501.392 758.167 501.724C760.417 501.982 762.704 502.129 764.99 502.129C765.728 501.171 764.769 500.912 763.847 500.691C765.101 500.433 766.244 500.912 768.051 500.285C767.018 499.105 766.576 497.778 763.921 498.036C765.912 497.851 767.904 497.593 769.895 497.224C770.006 496.524 771.739 494.348 770.817 494.237C773.067 492.135 778.93 492.725 781.438 489.074C781.77 489.148 782.287 489.074 783.098 488.632C785.716 485.718 786.417 482.251 790.474 479.522C790.179 478.305 789.847 477.162 789.515 476.056C790.511 474.691 790.879 475.798 791.396 476.72C791.912 477.641 792.539 478.379 794.383 475.834C796.891 472.183 792.982 473.474 792.908 471.888C794.789 470.598 798.624 467.573 797.001 463.369C796.411 464.549 796.485 465.545 796.116 466.651L795.711 466.946ZM780.406 428.776C780.959 429.661 781.549 431.763 782.766 431.395C783.282 429.182 782.028 429.329 780.406 428.776ZM715.129 381.866C715.461 382.788 716.641 383.156 718.116 383.304C717.379 382.677 716.383 382.124 715.129 381.866ZM704.729 198.759C704.729 198.759 704.655 198.833 704.618 198.87C704.84 201.673 704.766 200.677 704.729 198.759ZM704.471 193.154C704.729 192.6 704.987 192.674 705.208 192.895C704.729 193.264 704.729 194.481 704.655 195.919C704.25 195.477 704.028 194.739 704.471 193.154ZM675.779 499.253L676.811 499.732C675.594 497.593 675.705 498.405 675.779 499.253Z" fill="#E4E4E4"/>
<path d="M721.656 388.836C722.062 388.726 722.32 388.504 722.541 388.246C722.726 388.726 722.541 389.021 721.656 388.836Z" fill="#E4E4E4"/>
<path d="M781.144 489.259L781.07 489.369C781.07 489.369 780.849 489.296 780.775 489.222H781.181L781.144 489.259Z" fill="#E4E4E4"/>
<path d="M657.451 254.151C657.082 255.147 657.082 255.811 657.156 256.327C656.75 256.143 656.677 255.553 657.451 254.151Z" fill="#E4E4E4"/>
<path d="M701.593 163.279L702.736 166.93C702.073 165.197 701.446 164.791 700.782 164.054C701.188 163.943 702.036 164.349 701.556 163.242L701.593 163.279Z" fill="#E4E4E4"/>
<path d="M672.605 150.817C672.237 150.485 671.683 150.559 671.315 150.227L671.646 149.452C673.564 149.932 674.523 151.222 672.605 150.817Z" fill="#E4E4E4"/>
<path d="M694.77 163.098C693.368 163.578 692.742 161.549 691.525 159.447C691.598 159.558 691.672 159.705 691.783 159.779C693 157.972 694.18 160.48 694.77 163.098Z" fill="#E4E4E4"/>
<path d="M691.23 158.965C690.898 158.301 690.345 157.748 689.828 157.231C690.271 156.494 690.603 157.785 691.23 158.965Z" fill="#E4E4E4"/>
<path d="M705.429 186.11C704.986 184.967 707.273 185.225 706.609 184.598C708.527 183.16 704.654 192.711 705.429 186.11Z" fill="#E4E4E4"/>
<path d="M689.646 164.056L691.601 163.761L690.937 165.605L689.646 164.056Z" fill="#E4E4E4"/>
<path d="M697.06 179.545C696.728 178.401 696.248 177.332 695.769 176.226C696.064 176.226 696.138 175.709 696.138 175.156C696.802 177.221 697.65 179.508 697.06 179.545Z" fill="#E4E4E4"/>
<path d="M696.135 175.157C695.84 174.05 695.471 173.055 695.545 172.354C695.729 172.944 696.135 174.198 696.135 175.157Z" fill="#E4E4E4"/>
<path d="M691.416 168.407L692.19 169.144C692.559 169.882 692.965 170.546 693.297 171.32C692.707 170.324 692.043 169.366 691.416 168.407Z" fill="#E4E4E4"/>
<path d="M692.08 216.425L689.941 219.633C689.203 219.707 689.314 218.601 690.162 217.457C690.973 216.83 691.748 215.65 692.08 216.425Z" fill="#E4E4E4"/>
<path d="M691.303 204.181C691.414 205.213 691.746 205.398 692.152 206.098L689.939 205.508C690.381 205.066 690.861 204.623 691.303 204.181Z" fill="#E4E4E4"/>
<path d="M687.136 213.768C686.472 213.878 683.264 217.64 685.329 213.657C686.03 213.62 687.948 210.522 687.136 213.768Z" fill="#E4E4E4"/>
<path d="M659.588 262.522L660.104 261.711L663.239 263.776L659.588 262.522Z" fill="#E4E4E4"/>
<path d="M637.534 311.464C636.022 306.19 639.673 309.989 638.197 305.305C639.009 304.088 639.378 309.103 640.041 307.776C639.267 310.947 640.263 312.533 637.534 311.427V311.464Z" fill="#E4E4E4"/>
<path d="M640.042 307.811C640.152 307.295 640.3 306.779 640.484 306.226C640.3 307.111 640.152 307.553 640.042 307.811Z" fill="#E4E4E4"/>
<path d="M557.174 411.331L554.408 412.326L556.142 410.925L557.174 411.331Z" fill="#E4E4E4"/>
<path d="M551.495 409.01L551.015 411.444L549.134 409.416C549.798 409.453 551.052 409.563 551.495 408.973V409.01Z" fill="#E4E4E4"/>
<path d="M771.701 428.258L771.886 427.668C772.587 427.41 773.103 427.705 774.172 428.332L771.738 428.258H771.701Z" fill="#E4E4E4"/>
<path d="M793.275 450.203L793.091 449.76C793.865 449.797 794.64 449.871 795.414 449.945L793.275 450.203Z" fill="#E4E4E4"/>
<path d="M788.888 472.774C789.183 471.852 790.105 470.967 790.289 470.008C789.256 471.852 791.211 474.101 788.888 472.774Z" fill="#E4E4E4"/>
<path d="M596.821 17.792C615.445 30.6629 627.652 52.0899 627.652 76.4303C627.652 115.781 595.752 147.681 556.401 147.681C538.367 147.681 521.919 140.932 509.38 129.869L596.821 17.792Z" fill="#E4E4E4" stroke="#E4E4E4" stroke-width="3.68794" stroke-miterlimit="10"/>
<path d="M583.505 55.629C574.339 55.629 566.909 48.1988 566.909 39.0332C566.909 29.8677 574.339 22.4375 583.505 22.4375C592.671 22.4375 600.101 29.8677 600.101 39.0332C600.101 48.1988 592.671 55.629 583.505 55.629Z" fill="black"/>
<path d="M558.759 90.2218C549.593 90.2218 542.163 82.7916 542.163 73.626C542.163 64.4604 549.593 57.0303 558.759 57.0303C567.924 57.0303 575.355 64.4604 575.355 73.626C575.355 82.7916 567.924 90.2218 558.759 90.2218Z" fill="black"/>
<path d="M530.069 123.708C520.904 123.708 513.474 116.278 513.474 107.112C513.474 97.9468 520.904 90.5166 530.069 90.5166C539.235 90.5166 546.665 97.9468 546.665 107.112C546.665 116.278 539.235 123.708 530.069 123.708Z" fill="black"/>
<path d="M48.2005 3C70.1069 8.60567 89.026 24.4638 97.4714 47.2922C111.154 84.2085 92.3083 125.182 55.392 138.864C38.4643 145.133 20.7253 144.506 5.12532 138.495L48.2005 3Z" fill="#E4E4E4" stroke="#E4E4E4" stroke-width="3.68794" stroke-miterlimit="10"/>
<path d="M43.0772 44.1583C33.9116 44.1583 26.4815 36.7281 26.4815 27.5625C26.4815 18.397 33.9116 10.9668 43.0772 10.9668C52.2428 10.9668 59.673 18.397 59.673 27.5625C59.673 36.7281 52.2428 44.1583 43.0772 44.1583Z" fill="black"/>
<path d="M31.8653 85.2052C22.6997 85.2052 15.2696 77.775 15.2696 68.6094C15.2696 59.4438 22.6997 52.0137 31.8653 52.0137C41.0309 52.0137 48.4611 59.4438 48.4611 68.6094C48.4611 77.775 41.0309 85.2052 31.8653 85.2052Z" fill="black"/>
<path d="M16.5958 126.547C7.4302 126.547 3.8147e-05 119.117 3.8147e-05 109.951C3.8147e-05 100.786 7.4302 93.3555 16.5958 93.3555C25.7614 93.3555 33.1915 100.786 33.1915 109.951C33.1915 119.117 25.7614 126.547 16.5958 126.547Z" fill="black"/>
<path d="M458.89 414.135C440.254 414.135 425.146 399.027 425.146 380.39C425.146 361.754 440.254 346.646 458.89 346.646C477.527 346.646 492.635 361.754 492.635 380.39C492.635 399.027 477.527 414.135 458.89 414.135Z" stroke="#E4E4E4" stroke-width="3.68794" stroke-miterlimit="10"/>
<path d="M382.661 467.718C364.024 467.718 348.916 452.61 348.916 433.973C348.916 415.337 364.024 400.229 382.661 400.229C401.297 400.229 416.405 415.337 416.405 433.973C416.405 452.61 401.297 467.718 382.661 467.718Z" stroke="#E4E4E4" stroke-width="3.68794" stroke-miterlimit="10"/>
<path d="M310.93 415.093C292.294 415.093 277.186 399.985 277.186 381.348C277.186 362.712 292.294 347.604 310.93 347.604C329.567 347.604 344.675 362.712 344.675 381.348C344.675 399.985 329.567 415.093 310.93 415.093Z" stroke="#E4E4E4" stroke-width="3.68794" stroke-miterlimit="10"/>
<path d="M485.224 357.081L492.747 348.82" stroke="#E4E4E4" stroke-width="3.68794" stroke-miterlimit="10"/>
<path d="M476.226 349.559L478.881 340.93" stroke="#E4E4E4" stroke-width="3.68794" stroke-miterlimit="10"/>
<path d="M466.121 346.203V337.573" stroke="#E4E4E4" stroke-width="3.68794" stroke-miterlimit="10"/>
<path d="M455.241 346.202L453.361 336.835" stroke="#E4E4E4" stroke-width="3.68794" stroke-miterlimit="10"/>
<path d="M443.993 349.557L439.494 340.559" stroke="#E4E4E4" stroke-width="3.68794" stroke-miterlimit="10"/>
<path d="M435.732 354.462L427.839 348.082" stroke="#E4E4E4" stroke-width="3.68794" stroke-miterlimit="10"/>
<path d="M429.721 361.58L421.497 358.556" stroke="#E4E4E4" stroke-width="3.68794" stroke-miterlimit="10"/>
<path d="M410.614 414.467L417.363 405.469" stroke="#E4E4E4" stroke-width="3.68794" stroke-miterlimit="10"/>
<path d="M402.353 405.836L406.484 396.469" stroke="#E4E4E4" stroke-width="3.68794" stroke-miterlimit="10"/>
<path d="M392.214 400.563L392.988 390.458" stroke="#E4E4E4" stroke-width="3.68794" stroke-miterlimit="10"/>
<path d="M382.659 400.195L381.332 388.578" stroke="#E4E4E4" stroke-width="3.68794" stroke-miterlimit="10"/>
<path d="M372.334 400.968L367.835 392.338" stroke="#E4E4E4" stroke-width="3.68794" stroke-miterlimit="10"/>
<path d="M362.967 405.837L355.849 398.72" stroke="#E4E4E4" stroke-width="3.68794" stroke-miterlimit="10"/>
<path d="M356.218 412.586L348.363 407.312" stroke="#E4E4E4" stroke-width="3.68794" stroke-miterlimit="10"/>
<path d="M341.577 366.079L347.588 358.556" stroke="#E4E4E4" stroke-width="3.68794" stroke-miterlimit="10"/>
<path d="M334.461 355.939L337.854 347.715" stroke="#E4E4E4" stroke-width="3.68794" stroke-miterlimit="10"/>
<path d="M325.093 349.557L327.711 340.559" stroke="#E4E4E4" stroke-width="3.68794" stroke-miterlimit="10"/>
<path d="M315.726 347.307L315.357 337.202" stroke="#E4E4E4" stroke-width="3.68794" stroke-miterlimit="10"/>
<path d="M305.584 347.308L302.228 337.94" stroke="#E4E4E4" stroke-width="3.68794" stroke-miterlimit="10"/>
<path d="M295.478 351.068L289.835 342.438" stroke="#E4E4E4" stroke-width="3.68794" stroke-miterlimit="10"/>
<path d="M286.482 357.45L278.589 350.701" stroke="#E4E4E4" stroke-width="3.68794" stroke-miterlimit="10"/>
<path d="M279.733 366.079L272.209 362.687" stroke="#E4E4E4" stroke-width="3.68794" stroke-miterlimit="10"/>
</svg>
