<svg  viewBox="0 0 778 525" fill="none" xmlns="http://www.w3.org/2000/svg">
<g clip-path="url(#clip0_0_1)">
<path d="M760.054 303.798C759.854 304.097 760.878 304.322 761.052 304.422C761.027 303.823 759.804 303.723 760.054 303.798Z" fill="#E4E4E4"/>
<path d="M759.605 297.759L759.98 298.009L759.256 296.886L759.605 297.759Z" fill="#E4E4E4"/>
<path d="M761.303 292.841C759.456 292.741 760.978 294.712 760.08 295.386H759.655L760.878 296.26C761.028 295.112 760.579 293.44 761.327 292.841H761.303Z" fill="#E4E4E4"/>
<path d="M765.82 291.42C765.097 291.37 765.446 290.646 765.421 291.969C765.521 291.944 765.571 291.919 765.621 291.919C765.621 291.819 765.696 291.67 765.82 291.42Z" fill="#E4E4E4"/>
<path d="M765.621 291.918C765.496 292.467 766.295 291.768 765.621 291.918V291.918Z" fill="#E4E4E4"/>
<path d="M766.044 289.373L766.394 290.247C766.818 290.247 767.118 289.648 767.317 289.972C767.218 289.149 766.793 289.174 766.02 289.373H766.044Z" fill="#E4E4E4"/>
<path d="M765.022 288.299L765.147 288.748C765.322 288.748 765.422 288.673 765.022 288.299Z" fill="#E4E4E4"/>
<path d="M765.422 289.673L765.147 288.749C764.848 288.749 764.298 288.599 765.222 289.148C764.748 288.924 765.172 289.223 765.422 289.673Z" fill="#E4E4E4"/>
<path d="M765.022 290.022C764.523 290.296 764.124 290.721 763.774 289.822C763.575 291.22 764.823 291.42 765.022 290.022Z" fill="#E4E4E4"/>
<path d="M759.63 292.019L758.956 292.368L759.38 292.992C759.181 292.667 760.179 292.168 759.63 292.019Z" fill="#E4E4E4"/>
<path d="M768.316 285.305C767.967 285.155 767.268 285.23 766.794 285.13L767.044 285.779C767.368 285.604 767.767 285.155 768.316 285.305Z" fill="#E4E4E4"/>
<path d="M766.793 285.156L766.419 284.183C766.119 284.856 766.394 285.056 766.793 285.156Z" fill="#E4E4E4"/>
<path d="M763.175 287.576L764.073 289.248L763.25 287.326L763.175 287.576Z" fill="#E4E4E4"/>
<path d="M769.264 282.384L769.963 283.083L768.939 281.91L769.264 282.384Z" fill="#E4E4E4"/>
<path d="M769.714 280.362C770.313 280.886 771.037 280.262 771.361 280.736C771.386 280.162 770.937 279.513 770.513 278.939C770.687 279.464 770.463 279.913 769.714 280.337V280.362Z" fill="#E4E4E4"/>
<path d="M769.938 278.043C770.038 278.318 770.263 278.617 770.513 278.966C770.413 278.692 770.263 278.392 769.938 278.043Z" fill="#E4E4E4"/>
<path d="M766.994 282.934C767.244 282.934 767.843 283.009 768.217 282.659H767.094C767.094 282.659 767.019 282.834 766.994 282.934Z" fill="#E4E4E4"/>
<path d="M767.068 282.635H767.093C767.218 282.31 767.318 282.086 767.342 282.011C767.293 282.086 767.218 282.285 767.043 282.635H767.068Z" fill="#E4E4E4"/>
<path d="M766.97 283.009V282.935C766.97 282.935 766.845 282.935 766.97 283.009Z" fill="#E4E4E4"/>
<path d="M764.747 285.878C764.323 285.254 763.999 284.131 762.851 284.755C763.45 285.304 764.099 284.93 764.747 285.878Z" fill="#E4E4E4"/>
<path d="M765.57 282.983L765.071 283.732C765.346 283.807 765.795 283.782 765.995 284.082L765.57 282.983Z" fill="#E4E4E4"/>
<path d="M765.371 282.483L765.571 282.983L765.77 282.708L765.371 282.483Z" fill="#E4E4E4"/>
<path d="M768.542 279.163C768.192 278.664 768.267 278.265 768.342 277.815C767.993 278.24 767.743 278.689 767.618 279.138C767.918 279.288 768.442 279.662 768.542 279.138V279.163Z" fill="#E4E4E4"/>
<path d="M767.741 280.838V280.738C767.616 280.738 767.566 280.788 767.741 280.838Z" fill="#E4E4E4"/>
<path d="M769.589 273.475C769.589 273.475 769.44 273.475 769.39 273.475L769.564 273.549V273.475H769.589Z" fill="#E4E4E4"/>
<path d="M767.416 279.164C767.117 279.464 767.292 279.738 767.566 280.038C767.566 279.738 767.566 279.439 767.641 279.139C767.516 279.064 767.416 279.039 767.416 279.139V279.164Z" fill="#E4E4E4"/>
<path d="M769.815 276.668C769.541 276.793 769.291 276.943 769.066 277.117C769.441 277.042 770.065 276.818 769.815 276.668Z" fill="#E4E4E4"/>
<path d="M768.042 280.712C768.042 280.712 768.042 280.762 768.067 280.787C768.317 280.737 768.217 280.712 768.042 280.712Z" fill="#E4E4E4"/>
<path d="M768.042 280.712C767.942 280.488 767.742 280.263 767.567 280.063C767.567 280.313 767.642 280.538 767.742 280.762C767.817 280.762 767.942 280.737 768.067 280.737L768.042 280.712Z" fill="#E4E4E4"/>
<path d="M763.348 270.354C764.297 270.679 764.921 271.827 763.673 272.351C764.172 273.324 767.441 273.699 769.388 273.474C768.989 273.324 768.589 273.225 768.265 272.251C767.666 272.401 766.543 273.724 765.869 272.8C765.669 271.602 766.443 272.027 767.092 271.627C765.794 271.752 765.744 269.805 763.922 269.556L764.272 270.654C763.997 270.604 763.648 270.155 763.323 270.329L763.348 270.354Z" fill="#E4E4E4"/>
<path d="M768.866 275.023V275.397C769.166 275.048 769.615 274.898 770.513 274.598C770.214 273.9 769.89 273.7 769.565 273.575L768.966 275.197L768.866 275.048V275.023Z" fill="#E4E4E4"/>
<path d="M768.442 276.893C767.494 276.344 767.294 275.42 766.021 275.57C765.796 276.569 766.695 276.494 766.969 277.217C767.169 275.57 767.419 277.841 768.342 276.868C768.417 277.242 768.392 277.517 768.342 277.792C768.542 277.542 768.791 277.317 769.066 277.118H768.991V277.143C768.841 277.143 768.766 277.143 768.866 277.118V277.068C768.717 277.018 768.617 276.943 768.492 276.893C768.841 276.494 768.791 276.893 768.866 277.068L769.016 277.143L768.916 275.396C768.692 275.695 768.592 276.119 768.492 276.893H768.442Z" fill="#E4E4E4"/>
<path d="M760.903 283.208C760.903 283.208 761.078 283.208 761.153 283.233C761.053 283.084 760.978 283.034 760.903 283.208Z" fill="#E4E4E4"/>
<path d="M761.728 282.784C761.828 282.934 762.227 283.159 762.002 283.508C761.603 283.733 761.503 283.358 761.179 283.259C761.378 283.558 761.678 284.257 762.377 283.733L762.277 283.583C762.826 283.059 764.348 282.66 764.473 282.809C763.5 282.71 762.776 282.66 761.753 282.809L761.728 282.784Z" fill="#E4E4E4"/>
<path d="M764.846 279.739L764.721 278.267L763.623 278.666L764.172 278.791C763.748 279.465 764.447 279.515 764.846 279.714V279.739Z" fill="#E4E4E4"/>
<path d="M770.138 273.45L771.186 273.949L769.863 272.751L770.138 273.45Z" fill="#E4E4E4"/>
<path d="M770.487 271.678L771.436 272.002L770.986 271.403L770.487 271.678Z" fill="#E4E4E4"/>
<path d="M752.268 173.641L751.943 173.241C752.043 173.441 752.168 173.566 752.268 173.641Z" fill="#E4E4E4"/>
<path d="M752.668 176.736H753.167C752.868 176.636 752.668 176.611 752.668 176.736Z" fill="#E4E4E4"/>
<path d="M776.427 227.202C777.325 226.553 778.698 225.804 777.6 225.929L776.527 226.153C776.751 226.578 776.651 226.902 776.427 227.202Z" fill="#E4E4E4"/>
<path d="M764.622 198.5L764.348 198.75C764.747 198.75 765.121 198.8 765.446 198.824C765.196 198.725 764.897 198.625 764.597 198.5H764.622Z" fill="#E4E4E4"/>
<path d="M760.23 199.448L760.68 198.524C760.505 198.749 760.355 199.073 760.23 199.448Z" fill="#E4E4E4"/>
<path d="M750.971 156.471L749.922 155.847C749.848 156.645 750.447 156.346 750.971 156.471Z" fill="#E4E4E4"/>
<path d="M774.132 253.482C774.631 253.032 774.881 252.658 775.005 252.309C774.282 252.833 773.283 253.157 774.132 253.482Z" fill="#E4E4E4"/>
<path d="M763.798 173.141C763.574 172.941 763.349 172.891 763.1 172.916C763.324 173.116 763.549 173.216 763.798 173.141Z" fill="#E4E4E4"/>
<path d="M775.23 250.813C775.23 250.813 775.055 250.963 774.931 251.038C775.055 251.437 775.155 251.836 775.006 252.286C775.53 251.911 775.879 251.412 775.23 250.788V250.813Z" fill="#E4E4E4"/>
<path d="M760.428 101.287C760.428 101.287 760.503 101.212 760.553 101.162C760.403 101.162 760.403 101.212 760.428 101.287Z" fill="#E4E4E4"/>
<path d="M767.467 82.9678C767.592 83.1175 767.716 83.3921 767.841 83.6417C767.841 83.4919 767.766 83.2673 767.467 82.9678Z" fill="#E4E4E4"/>
<path d="M772.734 264.739C772.734 265.139 772.834 264.814 772.734 264.739V264.739Z" fill="#E4E4E4"/>
<path d="M768.117 265.538C768.117 265.538 767.892 265.339 767.643 265.264C767.892 265.364 768.042 265.438 768.117 265.538Z" fill="#E4E4E4"/>
<path d="M769.09 246.119C769.09 246.119 769.09 246.119 769.09 246.094C768.865 246.169 768.915 246.169 769.09 246.119Z" fill="#E4E4E4"/>
<path d="M772.11 265.187C772.285 265.088 772.41 264.938 772.535 264.788C772.435 264.838 772.285 264.963 772.11 265.187Z" fill="#E4E4E4"/>
<path d="M772.634 265.236C772.634 265.236 772.509 265.461 772.459 265.536C772.634 265.636 772.734 265.611 772.634 265.236Z" fill="#E4E4E4"/>
<path d="M772.808 264.216C772.783 264.44 772.683 264.615 772.559 264.79C772.658 264.74 772.708 264.715 772.733 264.74C772.733 264.615 772.758 264.465 772.808 264.216Z" fill="#E4E4E4"/>
<path d="M759.781 130.462C759.781 130.462 759.856 130.413 759.906 130.413C759.556 129.938 759.581 130.113 759.781 130.462Z" fill="#E4E4E4"/>
<path d="M764.423 218.416C764.423 218.416 764.473 218.416 764.473 218.441V218.391H764.423V218.416Z" fill="#E4E4E4"/>
<path d="M763.475 217.268C764.897 217.592 764.747 217.941 764.523 218.391L767.568 217.542L763.475 217.268Z" fill="#E4E4E4"/>
<path d="M751.394 166.102L750.446 167.176C748.824 165.953 749.348 164.979 748 166.028C751.344 166.078 748.524 170.196 751.918 170.121L751.27 170.87C751.27 170.67 751.07 170.645 751.095 170.47C749.597 171.968 753.641 171.244 753.341 172.941C753.141 173.565 752.742 174.014 752.268 173.69L753.291 174.863C753.291 175.237 752.692 175.237 752.692 174.863C752.892 175.512 753.067 176.161 753.266 176.785H753.166C753.74 176.984 754.664 177.434 755.063 177.683C754.689 178.257 754.664 177.508 754.265 177.708L755.263 178.607C754.489 179.206 753.491 178.507 753.466 177.733C750.346 179.405 754.439 178.457 752.992 181.003L752.343 180.079C750.621 181.127 751.444 181.801 750.571 183.224C751.095 182.8 752.992 180.229 754.065 181.202C753.89 181.577 753.865 182.051 754.689 182.475C753.516 182.775 753.965 183.299 754.215 184.023L752.667 184.372C753.316 185.071 754.09 184.796 754.913 185.071C755.013 185.994 753.865 186.518 752.917 186.993C753.067 188.49 754.564 185.47 755.313 187.068C755.063 188.39 755.912 189.039 757.26 190.137C756.985 191.086 756.286 190.287 755.937 190.711L757.359 191.061C757.359 191.236 756.985 191.31 756.785 191.335C757.434 191.785 758.333 190.911 759.032 191.71C760.779 191.435 757.185 194.38 759.431 194.929C759.082 195.354 758.458 195.079 757.884 195.354C759.631 196.527 759.206 196.402 761.303 197.151L760.654 198.548C761.552 197.4 763.225 197.974 764.622 198.548C765.097 198.099 765.496 197.7 765.671 197.45L766.943 198.623C766.744 198.873 766.17 198.898 765.471 198.848C765.621 198.898 765.77 198.973 765.92 198.998C765.521 199.696 764.547 199.696 763.574 199.597C763.824 199.347 764.098 199.073 764.348 198.798C763.324 198.723 762.176 198.723 761.328 199.073C761.527 199.122 761.727 199.247 761.877 199.397C761.602 199.397 761.353 199.397 761.228 199.497C761.078 199.597 761.453 199.647 761.927 199.746L760.329 200.595L761.028 200.47L760.529 202.642C762.626 203.44 765.496 203.865 766.794 205.811C765.396 205.612 764.697 206.261 763.2 206.635C764.622 205.637 762.077 205.212 762.101 204.039C762.101 204.663 761.353 204.738 761.078 204.663L763.05 206.186C761.827 206.485 762.251 206.835 761.877 207.484C764.198 206.46 763.849 208.482 764.797 209.106C763.998 209.355 763.125 209.355 763.075 208.357C761.527 209.855 766.27 209.031 764.947 210.454C764.872 210.229 764.947 210.079 764.522 210.079C765.371 210.454 765.097 211.926 764.323 211.776L764.248 211.552C764.248 213.174 765.072 216.269 767.218 216.194C766.943 216.244 764.647 216.369 764.223 216.369C766.769 216.918 769.215 217.542 771.686 218.241C769.839 218.241 765.646 219.713 764.473 218.54C764.248 218.939 763.998 219.439 764.747 220.137C764.972 219.863 767.293 219.189 767.493 219.513C765.596 220.711 766.494 220.312 764.897 221.685C765.246 221.261 768.141 221.41 768.116 222.034C767.667 221.984 765.321 222.334 764.997 222.134C765.995 222.533 766.968 222.983 767.917 223.432C767.393 223.083 765.546 223.557 764.772 223.931C765.321 223.731 764.772 225.229 765.097 225.628L765.72 224.954C765.396 226.677 769.764 226.452 769.689 228.249C769.09 228.049 766.12 227.825 765.77 228.698C767.218 229.048 772.684 230.37 773.782 232.043L772.958 232.342L773.882 233.59C771.71 232.741 767.168 230.595 765.396 229.547C764.747 230.196 764.423 229.746 764.498 230.695C763.724 231.019 763.324 230.171 763.275 229.921L762.775 232.092C764.448 232.018 764.448 233.79 765.845 233.765L764.098 231.319C765.77 231.219 768.89 232.766 768.541 234.414C767.842 234.813 765.571 234.014 765.022 234.039C765.596 234.264 766.045 235.587 765.621 235.711L764.772 235.013C764.098 235.861 766.918 236.56 765.271 237.533C765.146 237.908 763.05 238.482 764.048 238.607C765.995 238.157 771.91 238.407 773.308 238.931C773.183 239.081 771.336 240.853 770.338 241.177C768.79 241.652 766.869 239.929 765.521 240.354C765.97 240.404 766.494 240.803 766.669 240.953C766.245 241.302 765.271 240.678 765.396 241.527C767.068 241.826 765.072 243.224 766.794 242.076C767.193 242.949 766.369 242.924 766.344 243.898C767.468 243.698 769.988 245.196 770.338 246.119C769.913 246.019 769.339 246.119 769.065 246.194C768.666 247.916 767.767 248.715 767.517 250.312C767.093 250.387 766.494 251.086 765.82 250.637C766.095 250.911 766.619 251.211 766.569 251.71C764.947 252.409 766.544 250.587 764.672 251.011C765.646 251.236 765.795 252.484 766.27 253.307C767.817 253.357 766.844 251.735 766.369 250.936C768.441 251.261 770.413 252.858 771.062 254.755C771.336 256.202 769.614 255.104 769.864 255.379C769.04 257.825 773.058 258.274 771.136 260.071C769.639 260.62 768.516 259.547 767.542 259.547C767.268 258.374 768.74 258.049 768.84 257.3L768.017 258.074C767.642 257.65 767.493 256.851 767.917 256.527C766.619 256.976 766.794 260.695 765.296 262.367C765.646 262.816 765.97 263.49 766.544 263.34V262.691C767.692 262.367 767.692 264.164 768.366 263.515C768.915 264.513 769.839 265.711 768.965 266.735L767.418 266.585C767.867 266.66 768.491 266.061 768.116 265.612C768.666 266.261 765.671 266.885 767.493 267.883L768.715 267.334C769.265 268.332 770.587 269.78 769.839 270.678C771.436 270.603 769.739 270.404 771.636 270.104C769.339 270.204 772.384 267.459 769.889 267.933C772.06 267.683 771.062 266.835 773.008 266.261C772.509 266.186 771.985 266.385 772.434 265.562C772.309 265.487 772.135 265.362 772.06 265.262C772.06 265.262 772.085 265.237 772.11 265.212H772.035C772.035 265.212 771.96 265.187 772.035 265.262C771.76 265.412 771.461 265.537 771.186 265.537C770.163 264.838 770.537 263.465 770.063 262.866C770.413 262.392 770.587 263.216 771.161 263.041L770.438 262.142C771.536 262.317 772.559 261.169 772.933 262.542L773.233 261.444C773.982 260.919 774.431 260.071 774.082 259.422C774.431 258.948 773.158 257.85 773.907 258.474L773.557 256.577H773.832C774.281 254.88 772.684 252.758 774.955 251.061C774.755 250.437 774.506 249.763 774.955 248.84L775.953 248.79C775.729 247.991 777.251 246.618 776.278 246.169C778.948 245.645 777.226 242.475 777.825 241.152L776.577 241.003C776.752 240.079 776.428 239.156 775.978 237.958H774.855C773.982 236.934 775.804 235.462 775.754 233.865C776.178 233.989 776.053 234.389 775.754 234.663C778.349 232.816 773.932 230.67 775.804 228.973C775.404 228.548 775.529 228.249 775.804 227.924C775.804 227.974 775.829 227.999 775.879 228.024C775.879 227.974 775.879 227.924 775.879 227.85C776.053 227.65 776.278 227.45 776.453 227.226C776.178 227.425 775.978 227.6 775.879 227.75C775.829 227.425 775.679 226.926 775.354 226.452L776.552 226.202C776.552 226.202 776.552 226.127 776.502 226.078C776.927 225.578 775.903 225.703 775.03 226.003C774.83 225.778 774.581 225.553 774.281 225.404C776.203 224.904 773.557 224.181 775.604 223.507C774.606 223.232 774.705 221.086 772.509 221.061C772.784 221.011 772.908 220.861 772.933 221.111C773.108 220.562 773.283 219.988 772.634 219.588L774.131 219.189L771.96 218.266C772.809 217.442 773.308 217.068 774.556 217.642C772.559 216.169 773.732 216.319 771.71 215.171L772.709 215.096C772.584 214.572 771.136 213.998 771.885 213.548C772.709 212.825 772.534 211.352 772.235 209.705C771.935 208.033 771.486 206.211 771.96 204.513C769.314 205.836 772.859 202.841 770.637 203.315C771.261 202.966 771.511 202.467 772.21 202.766C771.161 201.469 772.609 200.271 770.512 199.796C771.136 199.422 771.561 199.796 771.91 199.547C771.735 199.472 771.211 199.247 771.561 198.998C771.91 198.723 772.185 199.048 772.534 199.197C771.985 197.75 769.889 198.224 767.967 198.698C768.641 197.675 768.391 197.35 766.993 197.226C767.542 196.776 768.042 196.152 768.566 196.976C768.491 196.452 768.516 193.607 766.968 194.031C767.293 193.756 766.869 193.307 766.644 193.207C766.369 192.059 766.494 191.909 765.995 190.861L765.845 191.236C763.874 191.385 765.146 190.437 764.647 189.638H764.847C765.571 187.167 763.923 188.914 764.847 186.469L763.724 186.918C761.203 187.442 764.647 184.721 763.399 183.848L762.85 184.447C761.827 184.048 765.745 181.751 765.895 181.078C766.07 180.878 766.295 181.202 766.494 181.352C767.567 179.38 764.922 181.527 764.273 180.404C765.047 179.979 766.444 180.179 766.394 179.33C766.968 178.806 763.175 177.608 764.547 176.161C763.948 176.535 763.349 176.909 762.775 176.435C762.376 175.587 764.772 173.69 762.651 173.241C762.8 173.116 762.975 173.041 763.125 173.016C762.476 172.442 761.977 170.994 760.829 170.695C762.825 170.171 762.251 169.222 761.677 168.299C761.053 167.375 760.454 166.477 762.376 166.452L762.151 164.405L762.551 164.455C762.85 163.157 761.927 162.683 761.028 162.159C761.303 161.86 761.652 162.109 761.852 162.134C762.725 160.237 762.551 160.088 760.829 158.266L762.077 158.216C761.403 157.691 764.273 155.645 763.125 153.548C763.25 153.598 763.499 153.673 763.649 153.848C762.526 151.452 767.867 149.33 763.599 147.733L762.8 146.086C762.101 147.883 760.928 145.437 760.055 146.061C759.93 145.262 761.777 144.414 761.802 145.362L761.552 145.462C763.774 146.261 762.85 143.29 764.398 143.69C765.072 139.996 767.168 136.701 768.067 133.232H766.195L766.569 132.034C767.068 131.81 768.067 131.909 767.792 132.783C768.915 132.558 767.268 131.136 766.894 131.011C767.992 129.464 768.815 132.134 768.99 131.635V130.886L768.765 131.011C768.166 130.262 767.418 130.038 767.717 129.014C768.216 128.415 768.89 128.914 769.015 128.665C769.14 128.69 769.215 128.615 769.165 128.266L769.639 126.743L768.092 127.068C767.542 126.244 768.466 125.62 766.719 125.994C769.414 125.445 768.74 120.304 769.589 119.78C768.691 118.607 768.89 117.658 769.165 116.46C768.84 116.735 767.193 116.685 767.517 115.687C770.787 116.485 769.215 113.964 771.661 113.34C769.988 113.964 771.561 110.246 769.19 111.269C769.539 110.42 770.438 111.319 771.286 110.695C770.138 108.498 772.409 106.003 771.91 103.257C771.461 103.232 770.812 103.682 770.138 103.132C770.862 102.658 771.611 102.159 772.285 101.66C772.035 101.111 769.714 101.286 771.186 100.237C770.837 100.387 770.288 100.637 770.113 100.287C771.037 97.6166 770.238 94.8962 769.514 92.2755C768.79 89.605 768.042 87.0842 768.915 83.6898C768.391 84.7131 768.141 84.2639 767.892 83.7398C767.842 84.164 766.894 84.1391 766.369 84.4136C766.569 83.5151 766.769 82.5917 766.968 81.6432C765.346 81.9427 765.72 79.4469 764.223 79.971L764.822 80.4702C762.75 80.5451 761.752 83.5151 759.506 84.3887C760.654 84.3388 760.18 85.2622 759.83 86.1108C759.506 86.9843 759.231 87.8329 760.879 88.0076C760.529 88.4819 760.055 88.0076 759.606 88.3571C760.679 88.3571 761.078 88.7314 760.879 89.6549H760.604C761.502 91.8263 760.804 93.0742 760.554 95.7198L761.677 95.3205C761.602 95.9195 761.253 96.0942 761.003 96.3937C762.875 96.768 760.854 94.7963 762.9 95.0709C760.704 96.194 763.424 99.164 760.729 99.9378C760.754 100.811 762.077 99.5634 762.101 100.462L761.378 100.736L762.351 100.911C762.226 101.51 761.328 101.835 760.704 101.885C760.779 101.735 760.504 101.51 760.454 101.36C759.656 102.134 760.829 103.432 760.554 103.682L761.003 102.833C761.777 105.229 760.679 108.149 762.002 110.645L762.576 110.495C763.424 112.442 761.852 111.918 762.077 113.989L761.952 113.89C762.451 114.364 762.651 114.938 762.526 115.487C761.952 114.888 761.153 116.286 760.504 115.512C761.328 117.658 761.228 116.61 763.075 118.257L762.126 118.432C762.875 119.006 763.324 119.131 763.374 120.204C762.75 119.231 761.877 120.603 761.003 119.505C758.657 121.252 762.426 123.049 759.331 123.449C761.652 124.921 761.078 121.876 761.527 122.55C762.451 122.251 763.25 123.723 762.85 124.347C762.651 125.021 759.406 124.846 759.082 126.568C759.131 126.394 758.932 126.344 758.982 126.169C758.208 126.668 759.581 127.617 758.358 128.191C759.78 128.964 758.033 129.189 759.93 129.763L759.83 128.091C760.13 129.089 762.201 130.462 760.779 131.685C760.404 131.485 760.005 130.911 759.78 130.562C759.106 130.861 759.955 131.485 759.281 131.81C757.384 131.236 759.306 129.788 758.033 128.49C757.11 128.765 759.032 130.612 757.035 129.663C759.531 130.961 756.311 131.286 758.058 132.933L756.91 132.583C757.06 132.808 757.509 133.332 757.409 133.657L756.062 132.683C757.11 133.931 754.514 134.256 755.013 135.354C755.413 133.407 756.511 135.229 757.534 134.63C758.532 137.35 754.19 135.304 754.14 138.124C754.065 137.725 755.138 136.926 755.537 137.6C755.188 138.049 754.589 138.648 753.915 138.823C753.765 140.67 755.163 138.823 755.712 139.721C754.165 140.021 756.087 140.72 756.386 141.593L755.213 141.344C754.015 143.241 757.559 142.392 756.261 144.039L754.789 142.916L755.013 143.964L753.715 143.49C754.514 144.763 754.19 145.038 753.591 145.986C754.464 145.911 755.712 146.535 755.587 147.459C754.764 147.958 754.514 146.909 754.464 148.232C753.765 147.808 752.892 147.309 754.09 146.934C753.715 146.81 753.391 146.51 753.017 146.36C752.093 146.909 752.517 148.058 752.443 148.532C752.517 148.357 752.617 148.132 752.817 148.058L754.14 150.254C753.641 150.479 753.316 150.179 753.017 149.88C753.092 150.304 753.591 150.653 753.591 151.227C752.642 150.928 751.644 150.828 751.319 149.929L752.093 151.951C751.644 152.001 750.795 152.75 750.471 152.45C749.772 153.449 752.018 155.246 751.145 156.568C751.319 156.668 751.494 156.818 751.594 157.142C751.22 158.415 749.997 159.538 751.22 161.186L749.448 162.034C749.822 163.307 751.694 160.886 752.293 162.983C752.817 164.43 750.77 163.507 750.271 164.006C751.145 164.78 752.967 165.978 751.569 167.375C751.22 166.951 751.494 166.577 751.344 166.152L751.394 166.102ZM754.115 181.127C753.815 180.903 752.917 180.503 753.566 180.154C754.988 180.179 754.389 180.553 754.115 181.127ZM763.025 201.144C762.576 201.069 762.676 200.72 763.025 200.246C763.2 200.47 763.225 200.745 763.025 201.144ZM772.684 260.395L772.634 260.345C773.233 259.821 773.008 260.021 772.684 260.395ZM771.91 261.568C772.035 261.743 772.21 261.768 772.384 261.743C772.11 261.593 772.135 261.294 772.309 260.994C771.985 260.994 771.735 261.144 771.91 261.568ZM768.566 128.315L768.216 128.49C767.992 127.866 768.266 128.091 768.566 128.315Z" fill="#E4E4E4"/>
<path d="M760.755 199.347C760.93 199.222 761.129 199.123 761.354 199.048C761.129 198.998 760.905 199.073 760.755 199.347Z" fill="#E4E4E4"/>
<path d="M751.17 156.595C751.17 156.595 751.17 156.571 751.17 156.546C751.095 156.521 751.021 156.496 750.971 156.471L751.17 156.571V156.595Z" fill="#E4E4E4"/>
<path d="M764.896 240.705C765.095 240.48 765.32 240.355 765.569 240.281C765.27 240.231 765.02 240.33 764.896 240.705Z" fill="#E4E4E4"/>
<path d="M772.309 268.732L772.209 267.833C772.159 268.232 771.884 268.307 771.635 268.457C771.909 268.507 772.334 268.457 772.309 268.707V268.732Z" fill="#E4E4E4"/>
<path d="M763.274 273.697C763.374 273.847 763.224 273.947 763.324 274.097L763.873 274.221C763.973 273.722 763.624 273.273 763.274 273.697Z" fill="#E4E4E4"/>
<path d="M768.243 268.508C767.244 268.308 767.469 268.907 767.494 269.506C767.494 269.481 767.494 269.431 767.519 269.406C768.842 269.931 768.567 269.207 768.243 268.508Z" fill="#E4E4E4"/>
<path d="M767.492 269.631C767.492 269.806 767.492 270.005 767.367 270.155C767.891 270.355 767.542 269.98 767.492 269.631Z" fill="#E4E4E4"/>
<path d="M772.209 263.317C771.885 263.542 773.432 263.766 773.008 263.841C774.206 264.44 771.885 261.695 772.209 263.317Z" fill="#E4E4E4"/>
<path d="M764.896 268.108L766.168 268.233L765.27 267.659L764.896 268.108Z" fill="#E4E4E4"/>
<path d="M766.868 263.99L766.319 264.788C766.519 264.813 766.619 264.963 766.669 265.113C766.843 264.589 767.243 264.04 766.868 263.965V263.99Z" fill="#E4E4E4"/>
<path d="M766.668 265.112C766.568 265.387 766.543 265.661 766.693 265.861C766.693 265.711 766.768 265.362 766.668 265.112Z" fill="#E4E4E4"/>
<path d="M764.847 266.81L765.146 266.635L765.396 266.036L764.847 266.81Z" fill="#E4E4E4"/>
<path d="M769.115 254.456L768.941 253.408C768.541 253.233 768.242 253.457 768.342 253.857C768.591 254.131 768.691 254.531 769.115 254.456Z" fill="#E4E4E4"/>
<path d="M765.197 256.753C765.497 256.554 765.796 256.578 766.221 256.529L764.698 256.204L765.197 256.778V256.753Z" fill="#E4E4E4"/>
<path d="M765.37 253.882C764.97 253.707 764.396 252.284 764.271 253.507C764.671 253.682 764.846 254.705 765.37 253.882Z" fill="#E4E4E4"/>
<path d="M769.264 239.557V239.806L771.809 239.981L769.264 239.557Z" fill="#E4E4E4"/>
<path d="M763.425 226.801C762.876 227.925 764.997 227.001 764.298 228.024C764.922 228.274 764.872 227.201 765.397 227.45C764.723 226.801 765.072 226.452 763.4 226.826L763.425 226.801Z" fill="#E4E4E4"/>
<path d="M765.396 227.426C765.396 227.426 765.62 227.65 765.795 227.75C765.62 227.551 765.495 227.476 765.396 227.426Z" fill="#E4E4E4"/>
<path d="M767.392 79.5233L767.442 78.5L766.968 79.3985L767.392 79.5233Z" fill="#E4E4E4"/>
<path d="M764.971 78.9734L766.294 78L764.771 78.2745C764.921 78.3993 765.221 78.6739 764.971 78.9734Z" fill="#E4E4E4"/>
<path d="M751.469 184.073H751.868C752.242 183.823 752.242 183.623 752.193 183.249L751.469 184.073Z" fill="#E4E4E4"/>
<path d="M750.57 172.791L750.545 172.991L751.968 172.467L750.57 172.791Z" fill="#E4E4E4"/>
<path d="M748.251 163.184C748.176 163.584 748.5 164.058 748.425 164.457C748.176 163.584 750.073 163.135 748.251 163.184Z" fill="#E4E4E4"/>
</g>
<g clip-path="url(#clip1_0_1)">
<path d="M690.417 289.62C690.372 289.937 691.301 289.688 691.46 289.711C691.211 289.234 690.168 289.665 690.417 289.62Z" fill="#E4E4E4"/>
<path d="M687.763 284.724L688.148 284.792L687.128 284.089L687.763 284.724Z" fill="#E4E4E4"/>
<path d="M687.491 279.826C685.882 280.348 687.786 281.595 687.219 282.502L686.857 282.66L688.194 282.978C687.877 281.957 687.061 280.597 687.469 279.826H687.491Z" fill="#E4E4E4"/>
<path d="M690.937 277.195C690.302 277.354 690.393 276.651 690.756 277.785C690.824 277.717 690.869 277.717 690.915 277.671C690.915 277.558 690.915 277.422 690.937 277.195Z" fill="#E4E4E4"/>
<path d="M690.915 277.672C690.96 278.17 691.437 277.332 690.915 277.672V277.672Z" fill="#E4E4E4"/>
<path d="M690.507 275.359L691.074 276.017C691.436 275.881 691.504 275.291 691.799 275.518C691.482 274.838 691.119 274.974 690.507 275.359Z" fill="#E4E4E4"/>
<path d="M689.329 274.7L689.579 275.04C689.737 274.972 689.783 274.882 689.329 274.7Z" fill="#E4E4E4"/>
<path d="M690.076 275.79L689.555 275.042C689.305 275.133 688.761 275.133 689.736 275.382C689.26 275.314 689.736 275.473 690.076 275.79Z" fill="#E4E4E4"/>
<path d="M689.827 276.197C689.487 276.56 689.26 277.059 688.693 276.379C688.943 277.671 690.076 277.467 689.827 276.197Z" fill="#E4E4E4"/>
<path d="M685.815 279.622L685.361 280.166L685.905 280.597C685.633 280.37 686.314 279.577 685.815 279.622Z" fill="#E4E4E4"/>
<path d="M691.526 271.231C691.186 271.163 690.597 271.413 690.166 271.436L690.529 271.957C690.778 271.708 691.028 271.231 691.526 271.231Z" fill="#E4E4E4"/>
<path d="M690.144 271.437L689.6 270.666C689.486 271.324 689.781 271.46 690.144 271.437Z" fill="#E4E4E4"/>
<path d="M687.538 274.542C687.924 274.973 688.377 275.381 688.785 275.789C688.354 275.291 687.901 274.814 687.538 274.293V274.542Z" fill="#E4E4E4"/>
<path d="M691.71 268.443L692.481 268.919L691.324 268.08L691.71 268.443Z" fill="#E4E4E4"/>
<path d="M691.709 266.563C692.344 266.926 692.865 266.245 693.228 266.608C693.16 266.087 692.639 265.61 692.185 265.18C692.435 265.633 692.298 266.064 691.709 266.585V266.563Z" fill="#E4E4E4"/>
<path d="M691.506 264.432C691.642 264.658 691.891 264.908 692.163 265.157C692.027 264.93 691.846 264.681 691.506 264.432Z" fill="#E4E4E4"/>
<path d="M689.827 269.419C690.031 269.374 690.598 269.306 690.847 268.897L689.872 269.124C689.872 269.124 689.872 269.306 689.85 269.419H689.827Z" fill="#E4E4E4"/>
<path d="M689.827 269.125H689.85C689.895 268.808 689.918 268.581 689.941 268.49C689.941 268.581 689.895 268.762 689.827 269.125Z" fill="#E4E4E4"/>
<path d="M689.827 269.488V269.42C689.827 269.42 689.713 269.465 689.827 269.488Z" fill="#E4E4E4"/>
<path d="M688.511 272.594C687.99 272.14 687.468 271.165 686.584 272.05C687.242 272.39 687.718 271.891 688.511 272.594Z" fill="#E4E4E4"/>
<path d="M688.603 269.78L688.331 270.574C688.58 270.574 688.966 270.438 689.215 270.687L688.58 269.803L688.603 269.78Z" fill="#E4E4E4"/>
<path d="M688.309 269.373L688.603 269.781L688.694 269.486L688.309 269.373Z" fill="#E4E4E4"/>
<path d="M690.463 265.7C690.077 265.314 690.077 264.929 690.055 264.498C689.805 264.929 689.669 265.405 689.624 265.836C689.919 265.926 690.44 266.176 690.463 265.677V265.7Z" fill="#E4E4E4"/>
<path d="M690.032 267.356L689.986 267.266C689.986 267.266 689.873 267.334 690.032 267.356Z" fill="#E4E4E4"/>
<path d="M690.529 260.326C690.529 260.326 690.416 260.349 690.348 260.372L690.506 260.417V260.326H690.529Z" fill="#E4E4E4"/>
<path d="M689.442 265.905C689.216 266.222 689.442 266.449 689.714 266.676C689.646 266.404 689.601 266.132 689.646 265.837C689.51 265.792 689.42 265.792 689.465 265.905H689.442Z" fill="#E4E4E4"/>
<path d="M691.187 263.229C690.96 263.388 690.779 263.57 690.598 263.774C690.915 263.638 691.437 263.32 691.187 263.229Z" fill="#E4E4E4"/>
<path d="M690.257 267.198C690.257 267.198 690.28 267.243 690.302 267.243C690.506 267.152 690.416 267.152 690.257 267.198Z" fill="#E4E4E4"/>
<path d="M690.259 267.197C690.146 267.016 689.919 266.857 689.715 266.698C689.76 266.902 689.851 267.106 689.987 267.288C690.055 267.242 690.168 267.22 690.259 267.197Z" fill="#E4E4E4"/>
<path d="M684.498 258.242C685.36 258.423 686.085 259.466 685.042 260.147C685.632 261.031 688.625 260.849 690.325 260.396C689.94 260.328 689.577 260.283 689.146 259.421C688.625 259.625 687.809 261.053 687.083 260.283C686.743 259.149 687.491 259.444 688.013 258.99C686.834 259.285 686.607 257.426 684.929 257.426L685.36 258.446C685.11 258.446 684.748 258.038 684.476 258.265L684.498 258.242Z" fill="#E4E4E4"/>
<path d="M690.1 261.868L690.168 262.208C690.372 261.868 690.757 261.641 691.505 261.233C691.12 260.644 690.802 260.485 690.508 260.417L690.213 262.004L690.1 261.868Z" fill="#E4E4E4"/>
<path d="M690.009 263.659C689.057 263.296 688.74 262.48 687.629 262.843C687.583 263.818 688.377 263.614 688.717 264.226C688.649 262.661 689.216 264.725 689.873 263.659C690.009 263.977 690.032 264.249 690.032 264.521C690.191 264.249 690.35 263.999 690.554 263.772H690.486V263.818C690.35 263.863 690.282 263.886 690.35 263.818V263.772C690.214 263.75 690.1 263.704 689.987 263.659C690.236 263.228 690.236 263.614 690.35 263.772H690.486V263.795L690.123 262.208C689.964 262.525 689.941 262.934 689.964 263.659H690.009Z" fill="#E4E4E4"/>
<path d="M684.522 271.12C684.522 271.12 684.681 271.075 684.749 271.075C684.636 270.962 684.545 270.916 684.522 271.12Z" fill="#E4E4E4"/>
<path d="M685.156 270.484C685.292 270.597 685.678 270.711 685.542 271.096C685.224 271.414 685.065 271.074 684.748 271.096C684.997 271.346 685.406 271.912 685.927 271.232L685.791 271.119C686.154 270.507 687.423 269.758 687.537 269.872C686.653 270.008 686.018 270.121 685.133 270.507L685.156 270.484Z" fill="#E4E4E4"/>
<path d="M687.242 266.947L686.902 265.609L685.995 266.199H686.494C686.222 266.924 686.857 266.834 687.242 266.947Z" fill="#E4E4E4"/>
<path d="M691.03 260.236L692.027 260.531L690.667 259.624L691.03 260.236Z" fill="#E4E4E4"/>
<path d="M691.118 258.558L692.002 258.739L691.526 258.24L691.118 258.558Z" fill="#E4E4E4"/>
<path d="M688.285 163.038L687.945 162.766C688.059 162.902 688.172 162.992 688.285 163.038Z" fill="#E4E4E4"/>
<path d="M688.897 165.599L689.328 165.553C689.056 165.485 688.875 165.485 688.897 165.599Z" fill="#E4E4E4"/>
<path d="M698.874 217.112C699.804 216.704 701.187 216.296 700.189 216.183H699.191C699.282 216.613 699.123 216.908 698.874 217.112Z" fill="#E4E4E4"/>
<path d="M696.448 187.23C696.448 187.23 696.244 187.344 696.131 187.389C696.471 187.525 696.766 187.661 697.06 187.797C696.879 187.616 696.652 187.435 696.448 187.23Z" fill="#E4E4E4"/>
<path d="M692.411 186.775C692.638 186.526 692.842 186.299 693.046 186.05C692.819 186.209 692.638 186.435 692.411 186.775Z" fill="#E4E4E4"/>
<path d="M682.094 149.751H681.006C681.301 150.386 681.618 149.91 682.094 149.751Z" fill="#E4E4E4"/>
<path d="M693.727 241.396C694.203 240.988 694.429 240.648 694.543 240.33C693.863 240.784 692.956 241.101 693.727 241.396Z" fill="#E4E4E4"/>
<path d="M698.647 161.245C698.398 161.041 698.171 160.996 697.967 161.064C698.194 161.268 698.42 161.358 698.647 161.245Z" fill="#E4E4E4"/>
<path d="M694.816 238.946C694.703 239.014 694.635 239.082 694.544 239.15C694.635 239.536 694.703 239.899 694.544 240.329C695.043 239.989 695.406 239.558 694.816 238.946Z" fill="#E4E4E4"/>
<path d="M665.341 94.0882C665.341 94.0882 665.409 93.9975 665.455 93.9521C665.319 93.9521 665.319 93.9975 665.341 94.0882Z" fill="#E4E4E4"/>
<path d="M678.83 80.7334C678.83 80.8921 678.717 81.0735 678.626 81.2776C678.739 81.2095 678.807 81.0735 678.83 80.7334Z" fill="#E4E4E4"/>
<path d="M692.549 251.939C692.549 252.302 692.64 252.007 692.549 251.939V251.939Z" fill="#E4E4E4"/>
<path d="M688.467 253.028C688.467 253.028 688.24 252.846 688.014 252.801C688.24 252.869 688.376 252.937 688.467 253.028Z" fill="#E4E4E4"/>
<path d="M689.556 234.14C689.556 234.14 689.556 234.14 689.556 234.117C689.352 234.185 689.374 234.185 689.556 234.14Z" fill="#E4E4E4"/>
<path d="M692.026 252.392C692.162 252.278 692.298 252.142 692.389 251.983C692.298 252.051 692.185 252.165 692.026 252.392Z" fill="#E4E4E4"/>
<path d="M692.503 252.391C692.458 252.504 692.413 252.595 692.367 252.685C692.526 252.753 692.639 252.731 692.503 252.391Z" fill="#E4E4E4"/>
<path d="M692.594 251.438C692.571 251.643 692.503 251.824 692.39 251.983C692.458 251.915 692.526 251.915 692.548 251.937C692.548 251.824 692.548 251.688 692.571 251.438H692.594Z" fill="#E4E4E4"/>
<path d="M674.159 124.697C674.159 124.697 674.182 124.629 674.204 124.584C673.683 124.403 673.796 124.516 674.159 124.697Z" fill="#E4E4E4"/>
<path d="M690.395 206.002C690.395 206.002 690.417 206.025 690.44 206.047L690.485 206.002H690.395Z" fill="#E4E4E4"/>
<path d="M689.872 204.62C691.006 205.346 690.802 205.618 690.484 206.003H693.364L689.872 204.62Z" fill="#E4E4E4"/>
<path d="M685.996 157.096L685.474 158.229C683.751 157.753 683.978 156.892 683.093 158.093C686.018 157.118 684.522 161.064 687.447 160.202L687.016 160.95C687.016 160.791 686.812 160.814 686.789 160.655C685.724 162.152 689.193 160.746 689.17 162.265C689.079 162.809 688.762 163.263 688.308 163.059L689.351 163.92C689.374 164.238 688.852 164.306 688.807 163.988C689.056 164.51 689.215 165.031 689.442 165.575H689.351C689.873 165.712 690.712 166.074 691.074 166.256C690.734 166.777 690.712 166.12 690.371 166.324L691.301 167.095C690.598 167.639 689.691 167.049 689.669 166.392C686.857 167.933 690.598 166.981 689.238 169.203L688.671 168.432C687.084 169.339 687.832 169.861 686.971 170.994C687.492 170.7 689.261 168.568 690.213 169.407C690.054 169.725 690.009 170.11 690.734 170.541C689.646 170.745 690.031 171.198 690.235 171.856L688.807 172.037C689.306 172.672 690.031 172.513 690.712 172.831C690.666 173.67 689.578 173.987 688.648 174.282C688.558 175.574 690.326 173.171 690.78 174.645C690.349 175.778 691.029 176.459 692.049 177.683C691.641 178.476 691.142 177.615 690.757 177.932L691.981 178.499C691.981 178.658 691.619 178.635 691.437 178.635C691.936 179.179 692.934 178.567 693.342 179.451C694.951 179.61 691.052 181.447 692.911 182.467C692.503 182.762 692.027 182.354 691.46 182.467C692.684 183.963 692.367 183.737 693.999 185.006L693.07 186.095C694.113 185.301 695.496 186.321 696.493 187.251C697.037 186.956 697.514 186.729 697.718 186.548L698.443 188.044C698.194 188.226 697.695 188.044 697.105 187.795C697.219 187.908 697.332 187.999 697.445 188.067C696.879 188.589 696.062 188.294 695.269 187.886C695.564 187.727 695.881 187.546 696.176 187.387C695.314 187.002 694.339 186.661 693.5 186.729C693.659 186.82 693.795 187.002 693.863 187.206C693.636 187.115 693.41 187.047 693.274 187.092C693.115 187.138 693.432 187.296 693.795 187.523L692.163 187.818L692.798 187.908L691.709 189.745C693.274 191.128 695.632 192.443 696.176 194.688C695.042 194.053 694.249 194.416 692.866 194.28C694.385 193.803 692.299 192.579 692.661 191.513C692.48 192.08 691.823 191.922 691.596 191.763L692.866 193.803C691.709 193.667 692.004 194.166 691.46 194.62C693.772 194.416 692.82 196.207 693.432 197.068C692.661 197.068 691.913 196.774 692.185 195.821C690.372 196.728 694.702 197.454 693.138 198.383C693.138 198.134 693.274 198.021 692.888 197.885C693.5 198.519 692.82 199.834 692.208 199.426V199.177C691.823 200.719 691.641 203.984 693.478 204.482C693.228 204.482 691.21 203.961 690.825 203.802C692.82 205.027 694.815 206.296 696.811 207.589C695.201 207.09 691.165 207.453 690.44 206.002C690.145 206.342 689.805 206.772 690.258 207.634C690.53 207.407 692.729 207.362 692.82 207.747C690.848 208.428 691.755 208.269 690.009 209.198C690.417 208.881 692.911 209.72 692.729 210.332C692.367 210.173 690.19 209.969 689.963 209.697L692.208 211.647C691.823 211.194 690.099 211.216 689.329 211.42C689.85 211.352 689.056 212.713 689.215 213.166L689.918 212.622C689.238 214.254 693.138 214.957 692.707 216.658C692.231 216.34 689.623 215.547 689.147 216.363C690.371 216.998 694.997 219.311 695.677 221.034L694.883 221.192L695.473 222.53C693.682 221.419 690.054 218.585 688.671 217.179C687.968 217.701 687.787 217.179 687.651 218.154C686.903 218.358 686.721 217.429 686.721 217.134L685.837 219.265C687.356 219.469 686.993 221.26 688.263 221.442L687.197 218.698C688.716 218.88 691.165 220.943 690.576 222.485C689.895 222.78 687.968 221.646 687.469 221.578C687.945 221.895 688.15 223.278 687.764 223.346L687.107 222.507C686.358 223.278 688.807 224.344 687.152 225.115C686.993 225.455 684.998 225.818 685.882 226.067C687.719 225.818 693.002 226.793 694.203 227.45C694.067 227.564 692.163 229.037 691.233 229.287C689.782 229.627 688.24 227.722 686.993 227.994C687.401 228.108 687.832 228.538 687.968 228.72C687.537 229.037 686.744 228.289 686.744 229.173C688.218 229.627 686.268 230.851 687.945 229.831C688.218 230.738 687.447 230.647 687.311 231.622C688.354 231.509 690.462 233.186 690.712 234.093C690.326 233.957 689.805 234.048 689.555 234.093C689.079 235.749 688.218 236.519 687.877 238.084C687.492 238.152 686.88 238.832 686.29 238.379C686.517 238.651 686.993 238.968 686.925 239.467C685.429 240.147 686.925 238.333 685.225 238.741C686.086 238.968 686.177 240.238 686.585 241.031C687.991 241.077 687.175 239.49 686.766 238.673C688.648 239.036 690.372 240.646 690.893 242.437C691.097 243.82 689.578 242.754 689.782 243.049C689.011 245.43 692.684 245.747 690.961 247.516C689.623 248.105 688.558 247.13 687.673 247.153C687.424 245.997 688.739 245.657 688.83 244.931L688.104 245.702C687.764 245.294 687.605 244.523 688.014 244.206C686.812 244.682 687.039 248.332 685.701 250.055C686.041 250.463 686.381 251.121 686.903 250.917L686.835 250.282C687.9 249.896 687.991 251.642 688.558 250.962C689.124 251.892 690.054 252.957 689.329 253.978H687.923C688.331 254.023 688.852 253.365 688.49 252.98C689.034 253.547 686.358 254.431 688.082 255.225L689.147 254.59C689.714 255.497 691.029 256.698 690.44 257.628C691.868 257.379 690.326 257.379 692.027 256.902C689.963 257.22 692.503 254.408 690.258 255.066C692.208 254.635 691.233 253.932 692.934 253.252C692.48 253.207 692.027 253.433 692.367 252.663C692.231 252.595 692.095 252.481 692.004 252.413C692.004 252.413 692.027 252.391 692.049 252.368L691.981 252.413C691.755 252.572 691.482 252.708 691.233 252.731C690.258 252.141 690.485 250.826 690.054 250.282C690.349 249.828 690.53 250.577 691.074 250.395L690.394 249.579C691.414 249.692 692.299 248.559 692.684 249.828L692.911 248.786C693.591 248.264 693.954 247.47 693.636 246.881C693.954 246.428 692.752 245.43 693.455 245.997L693.138 244.251H693.387C693.818 242.686 692.412 240.601 694.566 239.127C694.43 238.537 694.226 237.902 694.702 237.041H695.609C695.45 236.27 696.901 235.114 696.062 234.615C698.534 234.343 697.287 231.282 697.944 230.126L696.833 229.854C697.083 229.015 696.924 228.13 696.697 226.951L695.7 226.815C695.065 225.727 696.879 224.593 697.083 223.097C697.445 223.278 697.264 223.618 696.992 223.845C699.599 222.53 696.108 219.855 698.035 218.562C697.74 218.086 697.922 217.837 698.216 217.587C698.216 217.633 698.216 217.655 698.262 217.701C698.262 217.655 698.284 217.61 698.307 217.542C698.511 217.406 698.738 217.247 698.942 217.089C698.67 217.202 698.443 217.338 698.33 217.451C698.375 217.134 698.33 216.658 698.148 216.136H699.259C699.259 216.136 699.259 216.068 699.259 216.023C699.735 215.638 698.806 215.57 697.967 215.66C697.831 215.388 697.65 215.139 697.423 214.935C699.214 214.889 697.06 213.642 698.987 213.461C698.126 212.985 698.738 211.058 696.856 210.491C697.105 210.513 697.241 210.4 697.219 210.649C697.514 210.173 697.808 209.697 697.332 209.153H698.738L697.06 207.747C697.99 207.203 698.534 206.976 699.486 207.815C698.103 205.933 699.078 206.387 697.672 204.777L698.556 204.959C698.602 204.46 697.514 203.507 698.307 203.303C700.166 202.396 699.123 197.794 701.005 195.05C698.33 195.413 702.275 193.781 700.212 193.509C700.846 193.373 701.209 192.987 701.731 193.509C701.187 191.967 702.819 191.287 701.141 190.176C701.776 190.017 702.048 190.538 702.411 190.402C702.275 190.266 701.889 189.904 702.275 189.768C702.66 189.632 702.796 190.017 703.046 190.266C703 188.702 701.096 188.498 699.282 188.339C700.166 187.591 700.076 187.206 698.897 186.639C699.486 186.389 700.098 185.936 700.302 186.888C700.416 186.367 701.096 183.601 699.645 183.578C700.008 183.396 699.735 182.83 699.554 182.694C699.599 181.492 699.735 181.379 699.554 180.222L699.327 180.562C697.559 180.2 698.919 179.61 698.67 178.68H698.851C699.894 176.436 698.148 177.819 699.35 175.552L698.284 175.778C695.926 175.824 699.441 173.76 698.42 172.604L697.854 173.126C696.992 172.581 700.778 170.79 700.982 170.042C701.164 169.861 701.323 170.223 701.504 170.428C702.57 168.364 700.076 170.428 699.486 169.135C700.189 168.75 701.481 169.135 701.436 168.183C701.935 167.593 698.42 166.029 699.599 164.51C699.078 164.918 698.556 165.303 697.99 164.805C697.559 163.943 699.645 161.676 697.559 161.336C697.672 161.177 697.808 161.086 697.967 161.041C697.287 160.451 696.539 158.955 695.428 158.864C697.105 157.98 696.312 157.005 695.518 156.189C694.702 155.373 693.863 154.67 695.518 154.08C695.201 153.4 694.883 152.72 694.543 152.062L694.883 151.994C694.566 150.566 693.614 150.407 692.639 150.294C692.729 149.908 693.115 149.999 693.296 149.954C693.138 147.777 692.911 147.618 690.621 146.757L691.573 146.122C690.802 145.963 691.936 142.676 689.895 141.429C690.009 141.383 690.235 141.338 690.44 141.429C688.286 139.955 690.916 135.216 686.88 136.282L685.338 135.398C685.882 137.234 683.615 135.919 683.343 136.917C682.799 136.35 683.615 134.649 684.204 135.375L684.091 135.602C686.154 134.967 683.751 133.153 685.066 132.564C683.366 129.253 682.912 125.512 681.688 122.383L680.305 123.404L679.919 122.27C680.146 121.839 680.962 121.386 681.212 122.179C681.914 121.408 679.942 121.182 679.602 121.295C679.602 119.504 681.62 121.159 681.484 120.683L681.121 120.093L681.008 120.297C680.169 120.048 679.488 120.252 679.194 119.277C679.262 118.552 680.033 118.597 679.987 118.348C680.101 118.302 680.123 118.212 679.897 117.985L679.556 116.579L678.514 117.577C677.697 117.191 678.105 116.239 676.949 117.395C678.718 115.717 676.065 111.886 676.632 111.092C675.453 110.457 675.294 109.55 675.158 108.439C674.954 108.757 673.548 109.256 673.503 108.235C676.518 107.986 674.478 106.217 676.496 105.107C675.135 106.013 675.77 102.522 673.866 103.86C674.002 103.021 674.977 103.655 675.611 102.975C674.183 101.229 675.997 98.8488 675.566 96.6495C675.158 96.6041 674.568 96.9896 673.956 96.4908C674.636 96.0827 675.317 95.6972 675.997 95.3344C675.815 94.9037 673.707 94.8356 675.113 94.0874C674.772 94.1781 674.274 94.3368 674.138 94.0194C675.271 91.8655 675.135 89.6208 675.521 87.3989C675.815 85.1769 676.745 82.9776 679.239 81.8893C678.309 82.0707 678.377 81.6853 678.582 81.2772C678.287 81.4359 677.697 80.8237 677.198 80.6423C677.947 80.3249 678.672 80.0301 679.398 79.7581C678.219 78.6698 680.373 78.1029 679.262 77.128L679.148 77.7628C678.219 76.1304 675.362 76.6519 673.548 75.4502C674.092 76.4025 673.185 76.6292 672.256 77.0373C671.326 77.4227 670.442 78.0349 671.372 79.418C670.805 79.5994 670.873 78.8285 670.329 78.8058C670.986 79.5994 670.963 80.1435 670.193 80.9144L670.034 80.733C669.286 83.4538 668.039 84.2927 666.792 87.3309H667.88C667.63 87.943 667.268 88.0337 666.95 88.2831C668.424 89.3261 667.358 86.4239 669.014 87.4669C667.857 87.671 667.653 88.85 667.426 89.9836C667.245 91.1173 667.064 92.2056 665.794 92.4096C665.681 93.4526 667.064 92.2056 666.95 93.2258L666.27 93.4526L667.132 93.77C666.973 94.4275 666.111 94.7449 665.545 94.7449C665.613 94.5862 665.408 94.2688 665.363 94.0874C664.547 94.949 665.522 96.6268 665.295 96.9216C665.431 96.5815 665.567 96.264 665.726 95.9239C666.338 98.7354 665.635 102.25 667.381 104.721L667.857 104.449C669.036 106.308 667.54 106.127 668.333 108.235L668.197 108.19C668.764 108.53 669.127 109.052 669.195 109.641C668.492 109.21 668.288 110.911 667.494 110.321C668.968 112.226 668.492 111.228 670.669 112.135L669.943 112.657C670.805 112.929 671.213 112.861 671.689 113.836C670.759 113.178 670.646 114.856 669.467 114.13C668.311 116.896 672.233 116.828 669.988 118.665C672.528 118.914 670.601 116.375 671.258 116.783C671.848 116.103 673.163 117.078 673.163 117.803C673.344 118.484 670.759 119.935 671.44 121.658C671.394 121.476 671.213 121.544 671.167 121.363C670.873 122.225 672.414 122.315 671.825 123.449C673.299 123.358 672.142 124.492 673.866 123.925L672.868 122.542C673.639 123.268 675.906 123.245 675.566 125.036C675.181 125.059 674.568 124.832 674.206 124.651C673.888 125.263 674.863 125.308 674.546 125.943C672.845 126.51 673.389 124.265 671.757 123.834C671.235 124.583 673.684 125.104 671.689 125.399C674.251 125.104 672.097 127.19 674.319 127.553L673.299 127.916C673.525 128.029 674.16 128.188 674.274 128.528H672.732C674.228 128.913 672.55 130.682 673.548 131.271C672.687 129.48 674.546 130.319 674.908 129.253C677.221 130.863 672.936 131.702 674.568 133.969C674.274 133.697 674.568 132.45 675.249 132.745C675.249 133.312 675.181 134.105 674.818 134.627C675.793 136.169 675.702 133.901 676.632 134.309C675.702 135.42 677.493 134.876 678.219 135.398L677.244 135.874C677.493 138.005 679.534 135.375 679.556 137.37H677.856L678.627 138.028L677.425 138.391C678.718 138.912 678.627 139.297 678.763 140.363C679.352 139.819 680.599 139.615 681.03 140.408C680.713 141.247 679.942 140.567 680.645 141.633C679.897 141.678 678.99 141.769 679.67 140.839C679.33 140.953 678.922 140.885 678.582 140.998C678.196 141.905 679.148 142.54 679.352 142.948C679.307 142.766 679.284 142.562 679.352 142.404L681.506 143.379C681.257 143.809 680.872 143.764 680.486 143.696C680.758 143.968 681.302 143.991 681.62 144.422C680.758 144.671 679.942 145.102 679.239 144.603L680.872 145.737C680.577 146.009 680.282 146.984 679.897 146.916C679.806 147.981 682.436 148.276 682.323 149.704C682.504 149.704 682.708 149.75 682.935 149.931C683.229 151.087 682.64 152.448 684.295 153.241L683.116 154.579C683.864 155.418 684.567 152.833 685.814 154.262C686.744 155.259 684.726 155.214 684.477 155.781C685.451 156.053 687.379 156.484 686.562 158.025C686.154 157.776 686.268 157.413 686.041 157.118L685.996 157.096ZM690.19 169.339C689.918 169.135 689.124 168.795 689.714 168.478C691.006 168.478 690.462 168.84 690.19 169.339ZM694.271 189.201C693.908 188.997 694.113 188.702 694.543 188.362C694.611 188.611 694.566 188.883 694.271 189.201ZM692.389 247.901L692.344 247.856C692.866 247.357 692.661 247.538 692.389 247.901ZM691.687 249.012C691.823 249.171 691.959 249.171 692.117 249.148C691.868 249.012 691.891 248.74 692.027 248.445C691.732 248.491 691.505 248.604 691.687 249.012ZM679.556 118.348L679.375 118.665C678.899 118.28 679.216 118.325 679.556 118.348Z" fill="#E4E4E4"/>
<path d="M692.865 186.844C693.047 186.776 693.251 186.753 693.455 186.731C693.273 186.617 693.069 186.617 692.865 186.844Z" fill="#E4E4E4"/>
<path d="M682.3 149.749C682.3 149.749 682.3 149.727 682.3 149.704C682.232 149.704 682.164 149.727 682.096 149.749H682.3Z" fill="#E4E4E4"/>
<path d="M686.336 228.425C686.54 228.199 686.767 228.108 686.993 228.063C686.744 227.994 686.495 228.063 686.336 228.425Z" fill="#E4E4E4"/>
<path d="M692.503 255.656L692.344 254.84C692.344 255.225 692.095 255.316 691.891 255.475C692.14 255.475 692.525 255.407 692.525 255.656H692.503Z" fill="#E4E4E4"/>
<path d="M684.883 261.482C684.996 261.618 684.883 261.732 684.996 261.868H685.495C685.495 261.392 685.155 261.006 684.883 261.482Z" fill="#E4E4E4"/>
<path d="M688.785 255.837C687.855 255.769 688.104 256.291 688.195 256.857C688.195 256.835 688.195 256.789 688.195 256.767C689.442 257.107 689.102 256.472 688.785 255.837Z" fill="#E4E4E4"/>
<path d="M688.195 256.994C688.195 257.176 688.195 257.334 688.149 257.493C688.648 257.629 688.285 257.312 688.195 256.994Z" fill="#E4E4E4"/>
<path d="M692.027 250.645C691.755 250.85 693.161 251.008 692.753 251.076C693.864 251.552 691.664 249.126 692.027 250.645Z" fill="#E4E4E4"/>
<path d="M685.723 255.838L686.879 255.816L686.017 255.362L685.723 255.838Z" fill="#E4E4E4"/>
<path d="M687.197 251.62L686.743 252.436C686.925 252.436 687.015 252.572 687.083 252.731C687.197 252.187 687.514 251.643 687.174 251.62H687.197Z" fill="#E4E4E4"/>
<path d="M687.108 252.754C687.04 253.026 687.017 253.298 687.176 253.479C687.176 253.321 687.198 253.003 687.108 252.754Z" fill="#E4E4E4"/>
<path d="M685.565 254.591L685.838 254.364L686.019 253.752L685.565 254.591Z" fill="#E4E4E4"/>
<path d="M689.123 242.28L688.987 241.26C688.624 241.078 688.329 241.305 688.42 241.691C688.647 241.963 688.715 242.348 689.123 242.28Z" fill="#E4E4E4"/>
<path d="M685.518 244.592C685.79 244.365 686.039 244.411 686.448 244.32L685.064 244.025L685.518 244.57V244.592Z" fill="#E4E4E4"/>
<path d="M685.723 241.735C685.36 241.576 684.907 240.125 684.748 241.372C685.111 241.553 685.224 242.551 685.723 241.735Z" fill="#E4E4E4"/>
<path d="M690.417 227.745L690.372 227.995L692.639 228.425L690.417 227.745Z" fill="#E4E4E4"/>
<path d="M687.469 214.12C686.721 215.141 688.83 214.642 687.968 215.526C688.467 215.889 688.671 214.801 689.079 215.163C688.626 214.392 689.011 214.098 687.469 214.12Z" fill="#E4E4E4"/>
<path d="M689.079 215.162C689.147 215.275 689.238 215.412 689.351 215.57C689.238 215.343 689.147 215.23 689.079 215.162Z" fill="#E4E4E4"/>
<path d="M681.051 79.3977L681.777 79.1483L680.915 79.0576L681.051 79.3977Z" fill="#E4E4E4"/>
<path d="M680.305 77.4235L681.574 78.1491L680.713 77.0381C680.69 77.1968 680.622 77.5142 680.305 77.4009V77.4235Z" fill="#E4E4E4"/>
<path d="M687.673 171.72H688.036C688.398 171.539 688.376 171.38 688.376 171.062L687.673 171.72Z" fill="#E4E4E4"/>
<path d="M686.675 162.63L686.697 162.789L687.876 162.108L686.675 162.63Z" fill="#E4E4E4"/>
<path d="M682.459 155.895C682.527 156.212 682.935 156.439 683.003 156.757C682.527 156.212 683.955 155.192 682.459 155.895Z" fill="#E4E4E4"/>
</g>
<g clip-path="url(#clip2_0_1)">
<path d="M24.3316 291.94C20.2957 287.36 4.81894 282.011 -4.32431 276.323L-5.67299 275.049L-10.7686 274.308C0.931485 280.185 16.4735 287.092 24.3316 291.94Z" fill="#E4E4E4"/>
<path d="M49.3459 311.627C48.1764 309.921 55.3939 314.562 43.3857 307.58C43.9348 308.018 44.0681 308.157 44.3943 308.444C45.4945 309.077 46.9208 309.997 49.3459 311.627Z" fill="#E4E4E4"/>
<path d="M44.3957 308.442C39.1337 305.308 47.4392 311.127 44.3957 308.442V308.442Z" fill="#E4E4E4"/>
<path d="M66.8931 324.451C64.856 322.872 62.7135 321.401 60.5371 319.956C61.5375 321.335 66.5484 325.893 64.4237 324.516C67.4653 326.988 68.645 327.935 68.852 327.75C69.059 327.565 68.2635 326.244 66.8632 324.447L66.8931 324.451Z" fill="#E4E4E4"/>
<path d="M73.1846 328.511C72.2477 327.566 71.1456 326.72 70.1709 325.83C70.509 326.483 71.2569 327.251 73.1846 328.511Z" fill="#E4E4E4"/>
<path d="M63.3691 320.578C65.7305 322.23 67.9864 323.99 70.1706 325.831C69.6416 324.788 70.0278 324.172 67.1668 323.303C68.1039 323.337 66.5084 322.547 63.399 320.582L63.3691 320.578Z" fill="#E4E4E4"/>
<path d="M59.7761 317.243C56.5377 314.198 51.9185 310.573 58.9014 314.696C52.627 310.273 49.4895 308.972 49.7719 309.587C50.0204 310.228 53.6549 312.81 59.7721 317.273L59.7761 317.243Z" fill="#E4E4E4"/>
<path d="M28.0776 291.435L22.8336 287.94L17.6807 286.036C20.2571 286.988 28.0972 292.198 28.0776 291.435Z" fill="#E4E4E4"/>
<path d="M91.1873 365.427C91.816 365.723 91.2877 362.402 91.6043 361.624C90.6896 359.831 89.7788 358.008 88.8223 356.301C89.7725 359.192 91.6711 364.762 91.1873 365.427Z" fill="#E4E4E4"/>
<path d="M91.6031 361.624L95.6975 369.857C92.7789 362.146 91.8739 360.961 91.6031 361.624Z" fill="#E4E4E4"/>
<path d="M75.8746 327.931C72.2642 324.715 68.4049 321.769 64.3525 319.131C69.1131 322.38 73.6168 325.959 77.7245 330.001C77.1516 329.286 76.4813 328.62 75.8746 327.931Z" fill="#E4E4E4"/>
<path d="M106.005 399.121C104.655 397.635 103.491 396.112 102.302 394.556C104.299 397.344 106.576 400.079 108.836 402.72C107.841 401.523 106.97 400.313 106.005 399.121Z" fill="#E4E4E4"/>
<path d="M123.507 419.537C119.28 417.301 127.646 424.708 123.415 422.046C124.917 423.31 126.632 424.116 128.215 424.996C129.837 425.82 131.323 426.748 132.891 427.292C136.06 428.353 138.937 429.558 141.764 429.997C141.03 429.807 140.3 429.588 139.566 429.399C138.847 429.09 138.095 428.808 137.347 428.495C135.851 427.87 134.337 427.151 132.797 426.398C131.269 425.556 129.774 424.475 128.188 423.383C127.412 422.823 126.606 422.26 125.775 421.663C125.045 420.988 124.259 420.275 123.477 419.533L123.507 419.537Z" fill="#E4E4E4"/>
<path d="M151.059 431.604C149.597 431.409 148.135 431.213 146.583 431.006C145.047 430.679 143.417 430.37 141.762 430.027C143.316 430.448 144.848 430.804 146.413 431.135C147.957 431.402 149.491 431.516 151.059 431.604Z" fill="#E4E4E4"/>
<path d="M101.531 384.853C101.577 385.649 101.485 387.247 103.626 392.363C103.38 391.024 103.287 389.675 103.104 388.314C102.639 387.249 102.07 386.049 101.535 384.823L101.531 384.853Z" fill="#E4E4E4"/>
<path d="M103.09 388.191L103.07 388.341C104.782 392.124 106.287 394.725 106.808 395.827C106.391 394.86 105.025 392.581 103.09 388.191Z" fill="#E4E4E4"/>
<path d="M101.163 383.985C101.302 384.308 101.394 384.533 101.533 384.855C101.495 384.455 101.463 384.238 101.163 383.985Z" fill="#E4E4E4"/>
<path d="M87.6553 347.518C90.6406 351.775 95.6419 361.86 92.4096 351.495C89.993 348.438 92.0507 354.181 87.6553 347.518Z" fill="#E4E4E4"/>
<path d="M100.819 379.05L97.4215 369.695C97.1688 369.996 97.3473 371.842 96.0566 369.452L100.819 379.05Z" fill="#E4E4E4"/>
<path d="M103.147 383.462L100.82 379.05L102.206 382.546L103.147 383.462Z" fill="#E4E4E4"/>
<path d="M133.502 424.093C135.83 424.859 138.197 425.783 140.647 426.779C143.165 427.48 145.802 428.44 148.601 429.087C147.129 428.739 145.64 428.054 144.158 427.552C142.688 426.961 141.16 426.574 139.739 425.837C136.861 424.42 133.92 423.237 131.332 421.463C130.377 421.336 127.602 420.509 133.532 424.097L133.502 424.093Z" fill="#E4E4E4"/>
<path d="M115.45 408.678C115.691 408.922 115.983 409.235 116.198 409.446C115.848 408.883 115.572 408.451 115.45 408.678Z" fill="#E4E4E4"/>
<path d="M201.618 432.68C201.358 432.585 201.093 432.519 200.803 432.419C200.731 432.501 200.693 432.557 200.621 432.638L201.618 432.68Z" fill="#E4E4E4"/>
<path d="M130.489 420.712C129.516 420.035 128.621 419.46 127.781 418.923C127.009 418.333 126.293 417.782 125.625 417.328C124.296 416.361 123.021 415.674 121.94 414.892C124.737 417.149 127.735 419.494 131.266 421.484C131.684 421.54 131.816 421.467 130.489 420.712Z" fill="#E4E4E4"/>
<path d="M166.641 433.2C164.337 432.71 161.741 432.363 158.945 431.686C161.201 432.534 165.788 433.451 166.641 433.2Z" fill="#E4E4E4"/>
<path d="M116.944 410.915C116.785 410.742 116.622 410.599 116.437 410.392C117.224 411.773 117.226 411.53 116.944 410.915Z" fill="#E4E4E4"/>
<path d="M116.945 410.912C118.723 412.608 120.428 413.717 121.976 414.865C119.871 412.883 117.731 411.169 116.199 409.445C116.498 409.941 116.788 410.496 116.945 410.912Z" fill="#E4E4E4"/>
<path d="M217.551 425.512C217.109 426.09 214.074 426.293 210.011 426.236C205.94 426.238 200.807 426.008 196.006 425.336C186.534 426.197 192.791 430.071 200.797 432.447C201.074 431.967 201.127 431.337 210.567 431.17C207.423 430.143 189.438 429.015 197.585 428.068C203.992 427.861 206.566 428.145 208.341 428.503C210.12 428.832 211.057 429.322 214.039 429.964C211.523 429.02 215.578 428.681 219.935 428.807C224.317 428.755 229.036 429.355 227.95 427.934C226.086 427.564 224.214 427.253 222.318 427.121C220.425 426.959 218.579 426.682 216.671 426.64C216.514 426.224 220.641 426.259 217.577 425.545L217.551 425.512Z" fill="#E4E4E4"/>
<path d="M182.397 432.147L178.314 432.239C182.954 432.525 186.263 432.998 192.238 433.979C198.846 433.404 200.134 433.09 200.586 432.664C194.209 432.419 187.642 432.453 180.977 432.322L182.364 432.173L182.397 432.147Z" fill="#E4E4E4"/>
<path d="M159.648 430.989C163.15 430.242 173.039 430.349 167.09 428.49C161.095 428.114 158.938 427.887 157.368 428.042C155.802 428.167 154.825 428.431 151.107 427.843C156.061 428.961 158.178 429.031 158.785 429.264C159.403 429.407 158.492 429.407 157.428 429.417C155.273 429.402 152.352 429.437 159.544 430.854C157.566 430.65 155.67 430.518 153.862 430.186C152.057 429.823 150.312 429.468 148.597 429.117C150.386 429.6 152.17 430.111 153.899 430.586C155.632 431.03 157.296 431.313 158.943 431.715C158.768 431.661 158.653 431.616 158.478 431.562L158.388 431.55C157.546 431.255 157.26 431.126 158.233 431.347C158.293 431.355 158.531 431.387 158.651 431.403C158.824 431.244 159.202 431.142 159.64 431.049C165.398 432.061 160.517 431.531 158.651 431.403C158.583 431.454 158.396 431.49 158.388 431.55L158.478 431.562C165.268 432.348 171.886 432.382 178.341 432.272C174.25 431.969 169.081 432.007 159.674 431.023L159.648 430.989Z" fill="#E4E4E4"/>
<path d="M98.8564 359.646C98.9597 360.237 98.8662 360.255 98.7985 360.307C99.4131 361.392 99.6975 361.764 98.8564 359.646Z" fill="#E4E4E4"/>
<path d="M100.976 367.191C100.288 365.975 99.4025 365.098 97.8995 360.887C96.7884 357.154 98.4766 360.66 98.7931 360.338C97.4388 357.97 94.3823 351.972 96.9845 360.005L97.6467 361.187C99.9945 368.397 102.115 378.219 101.482 377.041C101.728 374.522 101.742 372.367 100.972 367.221L100.976 367.191Z" fill="#E4E4E4"/>
<path d="M119.864 408.174C120.789 409.209 121.913 410.119 122.909 411.072C123.936 412.03 124.962 412.987 126.132 413.782L129.506 416.268L133.144 418.364C132.05 417.458 130.922 416.579 129.862 415.647L126.93 412.582L126.826 413.358C124.956 411.893 123.91 410.629 123.039 409.875C122.201 409.094 121.648 408.686 121.28 408.485C120.514 408.079 120.466 408.437 119.864 408.174Z" fill="#E4E4E4"/>
<path d="M203.347 433.367L201.286 434.701C204.286 434.069 207.132 433.69 210.117 433.178L203.343 433.396L203.347 433.367Z" fill="#E4E4E4"/>
<path d="M222.518 435.167L221.616 436.231C223.323 436.186 224.859 436.513 226.487 436.609C225.184 436.131 223.892 435.563 222.518 435.167Z" fill="#E4E4E4"/>
<path d="M372.222 376.069C370.911 376.562 369.544 377.017 368.254 377.574C370.113 376.85 371.349 376.468 372.222 376.069Z" fill="#E4E4E4"/>
<path d="M403.736 373.022L404.544 372.431C403.043 372.747 402.402 372.996 403.736 373.022Z" fill="#E4E4E4"/>
<path d="M517.736 244.902C523.054 241.025 529.593 237.555 528.137 237.087L525.781 237.44C522.556 240.655 519.993 243.016 517.736 244.902Z" fill="#E4E4E4"/>
<path d="M523.647 197.026C523.394 196.415 523.146 195.774 522.893 195.163C521.648 194.025 520.455 192.954 519.402 191.963C520.689 193.472 522.127 195.213 523.647 197.026Z" fill="#E4E4E4"/>
<path d="M530.775 198.007L535.021 206.017C534.178 204.142 532.796 201.527 530.775 198.007Z" fill="#E4E4E4"/>
<path d="M366.34 400.982C365.013 400.228 363.678 399.533 362.302 398.924C367.096 403.514 365.413 401.102 366.34 400.982Z" fill="#E4E4E4"/>
<path d="M419.528 478.085C425.325 476.763 429.84 475.483 433.746 474.213C426.79 475.805 420.987 476.487 419.528 478.085Z" fill="#E4E4E4"/>
<path d="M382.646 360.115C379.679 360.721 378.462 361.197 378.605 361.489C381.614 360.798 383.309 360.386 382.646 360.115Z" fill="#E4E4E4"/>
<path d="M449.776 468.609C448.74 468.865 447.766 469.1 446.726 469.386C442.742 471.01 438.762 472.605 433.777 474.217C438.949 473.025 444.598 471.441 449.806 468.613L449.776 468.609Z" fill="#E4E4E4"/>
<path d="M342.9 288.612C342.522 288.258 342.097 287.806 341.744 287.485C341.498 287.513 342.073 287.985 342.9 288.612Z" fill="#E4E4E4"/>
<path d="M330.367 106.884C329.68 108.615 328.368 111.386 327.259 114.002C327.882 112.749 328.864 110.632 330.367 106.884Z" fill="#E4E4E4"/>
<path d="M289.33 478.273C285.17 475.986 288.566 478.08 289.33 478.273V478.273Z" fill="#E4E4E4"/>
<path d="M273.929 461.451C274.746 461.925 275.435 462.23 275.701 462.053C275.212 462.078 274.605 461.845 273.929 461.451Z" fill="#E4E4E4"/>
<path d="M484.897 440.614C484.897 440.614 485.07 440.455 485.175 440.348C484.079 441.052 484.274 440.956 484.897 440.614Z" fill="#E4E4E4"/>
<path d="M283.502 474.152C284.875 475.247 286.609 476.36 288.477 477.612C287.672 477.049 286.172 475.998 283.502 474.152Z" fill="#E4E4E4"/>
<path d="M283.971 475.186C282.639 474.248 281.584 473.5 280.611 472.823C279.993 472.68 280.363 473.094 283.971 475.186Z" fill="#E4E4E4"/>
<path d="M295.259 481.191C292.788 480.132 290.596 478.806 288.507 477.615C289.287 478.145 289.591 478.368 289.356 478.306C290.614 478.899 292.301 479.915 295.289 481.195L295.259 481.191Z" fill="#E4E4E4"/>
<path d="M248.793 286.302C249.1 286.283 249.436 286.267 249.742 286.247C254.049 284.939 252.114 285.318 248.793 286.302Z" fill="#E4E4E4"/>
<path d="M600.148 168.089C600.009 168.223 599.937 168.304 599.802 168.408C599.967 168.308 600.166 168.183 600.331 168.083L600.152 168.059L600.148 168.089Z" fill="#E4E4E4"/>
<path d="M610.341 157.97C607.46 163.387 604.286 165.545 600.331 168.085C602.389 168.147 604.458 168.12 606.565 168.037C608.17 164.667 609.476 161.257 610.341 157.97Z" fill="#E4E4E4"/>
<path d="M336.942 424.578C336.693 423.937 336.572 423.252 336.481 422.572C336.419 421.895 336.171 421.255 336.195 420.62L336.118 418.696L336.244 416.616C336.407 417.215 336.57 417.814 336.703 418.409C336.87 418.978 337.116 419.406 337.265 419.882C337.534 420.829 338.091 421.663 338.413 422.435C339.27 423.977 340.051 425.176 340.688 425.868C341.915 427.369 341.967 426.981 341.031 423.757C340.054 424.021 338.61 422.553 337.731 420.035C337.311 418.855 336.994 417.142 336.968 415.285C336.969 414.374 336.913 413.425 337.075 412.444C337.142 411.481 337.304 410.5 337.529 409.497C338.332 405.534 340.068 401.635 341.647 398.686C343.226 395.738 344.399 393.556 343.824 392.628C345.408 391.23 347.07 389.933 348.805 388.767C347.492 389.959 347.444 390.317 346.186 391.546C351.064 388.006 352.416 386.303 354.149 384.014C355.867 381.843 358.132 378.987 366.136 376.38C371.781 374.826 375.962 374.686 372.201 376.006C376.276 374.607 380.581 373.541 384.976 372.701C388.874 372.402 387.983 373.164 384.136 373.531C390.822 372.601 397.731 372.279 404.693 372.237L404.524 372.367C407.495 371.731 414.399 370.983 417.808 370.709C423.228 371.525 415.06 371.041 416.445 371.59L428.393 371.061C433.272 372.29 423.215 372.981 415.081 372.471C420.523 374.717 423 374.593 427.145 374.266C431.327 373.883 436.976 373.666 449.553 374.344C445.614 374.729 441.728 374.939 437.849 375.089C441.578 376.286 445.784 376.635 450.8 376.607C455.821 376.549 461.635 376.232 468.723 375.478C466.981 375.549 459.902 375.788 455.182 375.187C450.459 374.617 447.956 373.796 454.684 372.782C458.512 372.777 463.644 372.339 470.742 369.915C471.108 371.27 478.257 369.37 486.653 365.875L486.778 367.896C491.371 365.807 493.18 364.317 494.605 363.201C496.03 362.085 496.902 361.017 499.203 359.259C503.991 356.618 506.954 355.13 509.105 354.263C511.26 353.367 512.703 353.256 514.114 352.928C521.201 347.404 518.387 348.912 515.894 350.067C513.348 351.155 511.338 352.101 519.065 345.205C524.721 340.614 528.959 335.956 532.773 330.602C536.557 325.245 540.07 319.183 543.276 311.106C547.977 302.074 543.658 313.253 545.627 310.114L546.74 305.645C547.063 304.139 547.296 302.621 547.585 301.14C548.376 299.089 548.571 299.905 548.668 300.313C549.588 296.608 549.083 296.298 548.854 295.508C548.566 294.71 548.614 293.44 549.601 287.648C548.955 285.891 550.833 280.249 552.154 272.861C553.498 265.537 553.841 256.378 551.503 249.322C551.564 245.685 552.905 250.876 553.49 249.679C552.364 244.698 551.37 241.224 550.451 238.549C549.626 235.857 548.817 233.956 548.086 232.157C547.384 230.362 546.602 228.709 545.455 226.611C544.431 224.5 542.883 221.984 540.702 218.533C538.964 214.261 537.111 209.942 534.975 205.92C539.053 215.184 530.858 205.127 523.6 196.927C524.924 200.203 526.066 203.028 526.917 204.843C523.408 200.182 519.836 195.543 516.516 190.603C515.689 188.609 517.199 189.814 519.356 191.864C518.602 190.913 517.87 190.025 517.293 189.34C514.855 183.486 517.389 185.89 520.544 189.106C521.308 191.122 522.105 193.112 522.851 195.035C526.19 198.002 529.515 200.634 529.941 199.263C529.137 198.457 527.729 196.719 526.345 194.803C527.216 195.557 527.855 196.007 527.713 195.472C527.58 194.877 526.202 193.599 524.296 191.491C524.189 190.019 524.112 188.55 524.095 187.09L522.895 186.747C519.544 180.224 516.997 173.595 516.368 167.162C514.239 160.589 513.623 153.611 516.421 145.631C519.276 137.901 525.282 129.104 536.719 122.856C531.849 127.248 536.758 125.747 537.277 127.548C533.936 128.226 529.957 130.944 526.357 134.929C522.7 138.875 519.579 144.048 517.11 149.338C518.422 146.567 519.359 145.689 519.704 145.614C520.074 145.572 519.974 146.318 519.721 147.074C522.415 140.782 526.991 134.953 532.678 130.366C533.139 131.916 537.01 128.636 542.578 126.981C539.993 126.544 543.442 124.149 549.109 122.203C554.729 120.159 562.468 118.854 567.148 117.931C567.51 118.404 567.136 118.931 565.263 119.532C563.391 120.132 560.032 120.716 554.528 121.894C560.794 121.608 564.618 120.266 568.596 118.914C572.536 117.618 576.693 116.29 582.987 117.161C580.185 117.212 578.617 117.124 577.537 117.709C580.84 117.087 586.541 116.938 590.779 117.504C595.046 118.074 597.76 119.136 595.93 119.195C595.068 119.049 594.173 118.93 593.307 118.814C597.686 119.46 603.162 120.769 607.897 123.528C612.725 126.269 616.976 130.604 618.998 135.249C620.088 137.552 620.471 139.912 620.62 142.21C620.653 144.462 620.399 146.585 619.969 148.442C619.108 152.154 617.794 154.713 618.003 155.652C617.649 155.574 616.693 152.044 616.59 150.997C615.697 155.86 613.065 161.007 609.846 165.771C606.649 170.6 602.636 175.167 598.647 179.555C599.846 176.04 587.529 178.191 599.729 168.277C596.024 170.547 591.046 173.466 583.418 179.403C586.224 177.956 591.656 177.77 588.221 180.288C577.031 184.686 580.696 183.627 567.355 189.803C571.564 187.631 569.035 193.369 562.761 197.361C563.449 196.298 560.362 194.853 562.453 193.067C557.894 197.409 553.326 201.811 548.873 206.259C552.358 203.14 547.919 203.397 543.931 205.051C545.871 204.399 530.67 214.489 527.032 218.073C529.267 216.58 531.554 215.154 533.807 213.754C525.219 220.049 521.958 224.443 518.911 228.836C515.859 233.258 512.935 237.636 505.952 245.331C507.081 243.021 506.922 237.623 499.47 245.649C499.029 246.897 498.336 248.9 497.444 251.485C496.638 254.111 495.554 257.216 494.475 260.748C492.314 267.598 489.681 275.934 486.952 284.531C486.194 285.433 485.547 286.409 484.814 287.344L483.89 290.623L483.171 293.96L482.455 297.266L482.009 300.609C481.471 296.224 481.893 287.835 483.83 278.798C485.703 269.783 489.272 260.356 492.451 254.068C489.732 257.137 489.284 257.533 488.512 258.311C487.796 259.126 486.751 260.354 483.725 265.721C480.727 269.057 485.82 259.136 487.926 256.106C482.406 263.996 477.624 272.5 473.86 281.567C475.072 281.364 473.387 286.698 472.347 292.209C471.217 297.709 470.621 303.31 471.584 302.922C472.733 292.504 475.554 282.309 479.55 272.636C482.023 272.542 476.019 290.877 473.832 310.422C472.587 315.42 470.562 306.249 470.011 306.509C470.042 307.182 469.984 308.754 470.019 310.763C470.025 312.769 469.825 315.173 469.991 317.564C469.988 322.364 470.55 327.026 470.362 327.973C469.774 325.1 469.131 322.188 468.887 319.239C468.589 322.146 468.903 324.801 469.296 327.314C469.596 329.845 470.405 332.201 471.023 334.623C472.383 339.452 474.1 344.33 475.34 350.966C476.658 355.426 477.759 364.686 479.15 364.963C478.514 357.223 484.769 353.381 488.082 357.226C488.44 358.641 495.036 379.754 495.327 385.079C495.612 388.853 493.735 386.537 491.801 384.182C489.931 381.806 487.879 379.435 488.222 382.55C488.823 382.599 490.754 386.108 491.496 387.605C492.235 392.078 489.478 386.332 492.16 395.592C492.733 395.85 493.341 397.208 493.735 398.81C494.065 400.433 494.329 402.322 494.478 403.709C494.507 405.08 494.515 405.931 494.596 405.547C494.682 405.133 494.872 403.488 494.739 399.703C495.22 402.016 495.56 403.792 495.565 405.343C495.571 406.893 495.732 408.19 495.497 409.495C495.321 410.808 495.138 412.181 494.94 413.886C494.769 414.714 494.556 415.627 494.326 416.66C494.127 417.697 493.942 418.857 493.442 420.096C494.574 418.668 495.083 421.227 494.467 425.61C493.829 429.929 491.143 435.707 487.737 439.596C487.781 438.812 485.688 439.93 484.705 440.467C477.11 447.289 469.888 450.638 462.919 453.686C455.872 456.633 448.812 459 439.799 462.11C437.99 462.232 429.099 464.659 432.512 462.533C430.041 463.752 427.895 465.258 422.359 467.131C411.049 469.021 434.639 462.757 425.767 463.454C425.46 464.841 411.976 469.814 404.171 472.75C407.175 473.911 422.703 467.511 430.341 464.005C431.158 466.301 418.414 473.924 399.244 480.294C391.553 482.608 389.742 482.518 389.585 482.102C389.399 481.682 390.843 480.872 389.532 481.365C374.855 484.356 368.592 485.979 362.857 487.522C357.15 488.855 351.831 490.24 339.071 488.657C329.123 486.264 338.897 485.413 336.735 484.091C343.197 484.378 348.152 484.584 352.621 484.787C357.086 485.019 361.055 485.094 365.433 484.615C361.802 484.738 358.182 484.77 354.583 484.654C358.708 484.02 367.192 482.815 371.904 482.564C367.764 482.406 355.263 484.107 340.917 483.253C333.768 482.875 326.166 481.798 319.136 480.069C312.107 478.34 305.629 475.894 300.602 473.278C296.67 472.236 290.264 469.254 292.89 471.427C295.084 472.51 297.253 473.56 299.535 474.442C302.308 476.423 299.037 475.439 295.983 474.423C293.035 473.3 290.325 472.209 294.371 474.663C284.975 471.099 274.811 465.092 264.96 455.604L264.187 452.524C264.048 453.113 270.286 459.172 273.694 461.176C268.659 458.164 259.257 445.546 252.761 443.919C255.016 446.134 257.205 448.401 259.351 450.754C255.336 448.06 250.721 445.317 245.92 442.822C241.056 440.35 236.232 438.034 231.071 436.19C235.019 439.604 233.719 436.605 239.597 441.947C237.256 439.234 243.471 442.282 248.912 446.351C254.369 450.3 259.356 454.582 255.684 449.777C260.877 457.064 266.332 460.344 274.65 469.476C274.75 468.73 271.774 465.993 280.428 472.617C280.957 472.749 282.051 473.199 282.74 473.504C283.018 473.693 283.1 473.764 283.348 473.949C283.185 473.806 283.048 473.697 282.885 473.553C283.346 473.737 283.376 473.741 282.722 473.41C280.663 471.768 279.193 470.265 278.688 469.499C281.222 470.536 286.094 473.405 291.231 475.884C296.33 478.418 301.73 480.294 304.491 480.998C310.38 483.304 301.752 480.814 304.803 482.528C307.637 483.15 310.482 483.682 313.313 484.09C313.669 485.748 329.337 490.12 314.405 487.517C318.839 488.657 323.302 489.587 327.801 490.249C335.612 492.265 346.729 492.961 353.462 492.129C359.881 492.288 369.313 489.448 363.937 491.038C370.895 490.115 377.73 488.75 384.448 487.126L384.711 487.435C404.942 483.577 424.393 474.42 446.6 469.185C452.879 466.531 459.418 463.972 470.212 459.126L472.83 459.081C476.816 456.758 483.067 453.402 488.28 449.177C493.54 445.05 497.545 440.086 498.262 437.904C500.503 436.138 503.377 432.36 505.506 427.116C507.78 421.921 508.946 415.242 509.021 408.538C508.884 401.837 507.595 395.346 506.074 389.674C504.418 384.106 502.734 379.203 501.436 375.506L499.797 375.499C496.103 365.406 491.509 356.59 486.96 345.167L485.927 346.305C483.724 341.424 482.028 334.787 481.579 327.467C481.104 320.113 481.946 311.993 483.44 303.99C483.856 305.2 482.806 309.191 482.36 312.078C484.718 302.612 486.946 292.763 490.512 283.124C494.007 273.566 498.791 264.363 505.196 257.806C507.597 253.935 509.811 251.466 512.219 249.358C511.932 249.684 511.709 249.989 511.524 250.237C511.845 249.885 512.279 249.366 512.772 248.855C514.233 247.47 515.917 246.237 517.603 244.761C516.084 245.895 514.595 247.033 513.451 248.095C514.627 246.794 516.09 245.167 517.726 243.38C519.392 241.598 521.202 239.653 523.007 237.737L525.647 237.3C525.96 237.008 526.205 236.767 526.521 236.445C530.693 233.418 529.204 233.188 526.369 234.176C528.208 232.235 529.904 230.457 531.138 228.951C535.844 228.061 541.593 219.594 547.853 218.213C548.942 216.657 554.317 212.576 559.629 208.516C564.941 204.457 570.193 200.389 570.717 198.515C571.059 198.682 572.492 197.963 570.029 199.577C575.268 196.511 580.504 193.474 584.688 189.902L587.858 190.052L597.592 180.629C604.876 177.046 608.154 175.479 602.207 181.337C609.784 174.877 612.801 171.847 615.434 169.191C616.742 167.817 617.956 166.46 619.433 164.501C620.854 162.504 622.658 159.919 624.374 155.714L624.983 157.071C626.639 154.224 628.005 149.91 628.275 145.845C628.609 141.759 627.971 138.119 627.978 136.024C627.794 132.172 625.293 125.428 619.156 119.747C616.128 116.942 612.285 114.333 607.793 112.487C603.364 110.619 598.44 109.505 593.414 108.925C588.388 108.344 583.26 108.297 578.194 108.471C573.158 108.648 568.068 109.001 563.006 109.6C552.886 110.769 542.904 113.172 534.429 116.808C538.364 116.909 534.343 118.134 529.535 120.468C524.641 122.761 519.278 126.753 519.769 128.307C517.621 129.144 513.698 132.812 517.379 127.775C510.797 134.976 506.921 141.475 504.543 147.902C502.199 154.302 501.706 160.95 503.707 167.566C503.142 169.982 502.043 163.425 501.768 165.484C502.03 167.16 503.324 171.798 503.441 173.88C503.484 174.918 503.116 174.261 502.593 172.946C502.198 171.587 501.554 169.587 501.194 167.959C502.012 173.203 503.384 177.031 504.754 179.736C506.091 182.466 507.375 184.218 508.467 185.366C510.681 187.667 512.156 187.773 513.523 187.773C517.05 196.386 519.888 199.925 524.694 204.425C525.752 207.422 527.882 212.172 521.66 203.26C523.285 205.877 528.44 213.674 532.053 220.962C535.782 228.295 538.156 235.539 539.156 235.551C539.331 237.427 541.192 243.509 541.657 245.029C541.957 246.649 542.187 248.107 542.437 249.417C542.594 250.744 542.711 251.914 542.84 252.994C543.128 255.159 543.191 256.96 543.288 258.735C543.445 260.518 543.452 262.281 543.468 264.44C543.547 266.577 543.424 269.082 543.322 272.349L543.801 268.768C544.323 270.083 544.57 271.422 544.681 272.865C544.702 274.295 544.525 275.851 544.301 277.523C543.757 280.913 542.711 284.874 541.595 290.042L541.43 289.685C537.441 301.121 536.03 303.272 535.273 305.753C534.897 306.978 534.29 308.112 533.151 310.269C532.611 311.351 531.801 312.64 530.678 314.222C530.115 315.028 529.51 315.919 528.833 316.892C528.071 317.823 527.233 318.865 526.315 320.049L528.233 319.788C528.905 321.579 525.507 325.864 520.4 330.437C515.345 335.078 508.668 339.806 503.39 344.295C504.916 343.557 506.417 342.786 507.899 341.92C505.298 344.793 500.207 346.968 495.125 348.628C489.939 350.153 484.761 351.162 481.301 352.279C479.711 352.583 483.504 351.024 485.367 349.815C476.366 352.835 475.878 353.073 476.103 353.893C476.208 354.242 476.523 354.618 475.924 355.236C475.328 355.825 473.902 356.728 470.427 357.722C469.02 357.564 469.681 356.711 469.506 356.201C469.335 355.662 468.402 355.598 463.772 356.377C461.418 356.488 454.783 358.396 446.577 359.334C438.393 360.337 428.775 360.479 421.805 359.214C424.841 360.136 427.881 361.028 420.793 361.326C415.337 361.235 407.978 360.16 400.5 359.738C393.086 359.294 385.565 359.656 380.626 361.609C379.173 361.567 378.576 361.487 378.477 361.322C374.185 362.297 367.156 363.971 360.926 366.723C354.681 369.351 349.276 372.973 347.502 375.105C345.122 375.182 341.017 377.489 336.953 381.533C332.862 385.543 329.01 391.408 326.579 397.554C324.14 403.759 323.342 410.184 323.321 414.889C323.248 417.249 323.385 419.181 323.287 420.596C323.312 421.997 323.073 422.876 322.516 422.954C324.805 433.102 331.417 441.368 339.764 446.645C339.458 446.665 339.16 446.625 338.857 446.615C346.92 451.976 354.222 452.8 359.326 452.115C364.545 451.476 367.764 449.445 370.488 447.47C374.49 445.483 371.945 447.482 371.706 447.906C374.918 446.148 377.419 444.022 379.291 441.842C381.247 439.703 382.573 437.511 383.696 435.474C385.826 431.354 386.713 427.675 387.12 424.175C387.497 420.671 387.38 417.223 386.524 413.402C385.697 409.586 383.972 405.223 380.801 400.759C380.895 399.83 380.925 398.923 380.895 398.008C379.901 396.811 378.161 394.149 375.308 390.942C372.456 387.736 368.458 384.012 363.383 380.843C358.35 377.588 352.206 374.914 345.807 373.238C339.405 371.593 332.789 370.861 326.704 370.929C326.967 370.781 327.459 370.513 329.439 370.474C322.649 370.356 315.192 370.241 307.675 370.117C300.348 369.928 292.962 369.731 286.088 369.571C272.372 369.227 260.726 369.311 255.948 372.105L238.537 373.728C261.103 373.766 235.208 376.138 244.523 376.897C235.607 377.467 221.667 375.392 232.482 375.166L234.183 375.394C236.167 373.958 229.149 373.961 221.998 373.37C218.423 373.075 214.816 372.562 212.233 371.883C209.65 371.204 208.047 370.473 208.316 370.053C198.784 367.504 190.009 361.106 186.837 352.784C183.565 344.539 186.405 334.651 191.913 326.851C197.63 319.078 205.364 312.578 213.967 307.986C222.634 303.373 232.236 300.403 241.954 298.147C240.273 297.771 238.592 297.394 236.929 297.111C241.487 295.958 246.112 294.997 250.776 294.192C254.535 294.026 255.957 294.976 246.06 296.752C251.418 296.891 262.564 292.821 262.867 292.375C272.861 291.463 271.001 292.43 267.407 293.407C263.835 294.449 258.548 295.595 261.576 295.21C264.306 294.785 267.011 294.327 269.796 293.939L267.888 293.897C274.499 292.168 274.967 291.167 287.351 289.876C295.251 289.412 291.545 290.77 294.652 290.487C294.632 290.636 295.696 290.626 299.433 289.941C305.576 289.213 311.712 288.301 317.801 287.292C315.267 287.166 312.74 286.98 310.209 286.824C318.178 284.7 327.314 283.855 318.614 283.482C325.027 283.914 342.033 280.779 357.994 276.138C374.029 271.628 388.948 265.693 392.691 264.735C397.816 262.078 402.954 259.545 408.299 257.282C413.67 255.053 419.397 253.115 425.723 252.38C424.139 252.412 422.756 252.075 423.172 251.462C423.572 250.969 425.917 249.794 431.595 250.036C429.498 252.095 434.629 252.112 440.345 254.577C443.196 255.748 446.071 257.651 447.93 259.874C449.756 262.123 450.583 264.573 450.28 266.386C450.043 263.164 453.304 268.764 451.557 274.789C450.796 277.755 449.233 280.584 448.369 282.048C447.591 283.555 447.808 283.978 450.178 281.926C448.785 283.714 447.949 284.514 447.394 284.804C446.864 285.128 446.731 284.989 446.606 284.79C446.299 284.354 446.308 283.839 443.591 285.754C440.159 289.609 435.299 292.787 429.948 294.867C427.351 295.887 424.235 296.473 421.227 297.165C419.696 297.476 418.134 297.571 416.556 297.786L414.208 298.08L411.799 298.153C405.402 298.513 398.782 297.81 392.242 296.511C388.945 295.949 385.708 294.939 382.421 294.075C379.2 292.946 375.933 291.932 372.778 290.538C372.159 290.85 376.155 293.45 370.302 291.787C368.207 290.413 366.268 288.787 364.278 287.306C362.365 285.714 360.523 284.04 358.703 282.429C354.201 279.519 352.56 282.247 346.126 274.248C346.866 275.531 347.999 277.506 345.162 275.091C325.535 255.79 313.609 228.648 310.593 200.297C309.873 193.184 309.612 186.04 309.931 178.883C310.309 171.734 311.173 164.589 312.536 157.572C315.415 143.527 320.274 129.898 326.88 117.293C323.036 124.01 324.828 119.237 327.104 113.799C325.398 117.247 325.936 113.218 324.973 113.606C328.78 106.489 332.891 99.5962 337.28 92.892C337.45 90.4844 340.516 84.8185 343.751 79.4789C346.926 74.1314 350.211 69.1023 350.12 67.5104C348.794 69.7027 347.553 71.9369 346.287 74.1372C348.066 69.2409 345.084 71.5461 341.482 74.862C337.883 78.148 333.745 82.5163 332.894 81.157C331.102 86.8412 326.563 93.0698 322.1 100.554C317.615 107.974 313.197 116.71 311.743 126.45C309.772 130.287 312.059 122.725 310.679 124.637C310.188 129.675 308.553 135.319 305.386 145.832L305.375 144.555C301.874 159.61 300.514 170.699 299.848 182.275C299.305 193.837 299.331 206.144 303.146 223.514C303.397 222.545 303.584 221.598 303.895 220.637C305.55 228.027 305.637 229.649 306.444 233.159C308.855 236.944 307.097 231.91 305.666 226.706C304.205 221.498 303.284 216.12 305.237 219.692C304.883 224.839 308.369 237.852 314.227 249.48C315.757 252.357 317.162 255.249 318.787 257.866C319.553 259.183 320.323 260.471 321.066 261.725C321.848 262.923 322.604 264.087 323.308 265.183C324.648 267.428 326.007 269.311 327.035 270.937C328.063 272.563 328.701 273.924 329.008 274.816C337.203 283.505 327.783 271.25 336.002 279.76L337.697 282.539L340.671 283.696C346.462 288.783 349.129 291.782 348.958 292.61C347.44 291.466 344.362 289.718 342.775 288.412C346.385 292.084 352.514 296.002 358.166 298.944C363.856 301.831 369.115 303.628 370.642 304.47C367.157 302.819 363.671 301.169 360.417 299.154C374.932 306.471 392.989 311.375 411.236 310.32C413.504 310.167 415.795 310.078 418.005 309.675C420.246 309.276 422.514 309.123 424.697 308.473C426.902 307.887 429.027 307.442 431.252 306.706C433.507 305.975 435.632 305.074 437.71 304.076C445.909 300.007 452.835 294.098 457.372 286.745L455.296 288.412C458.975 283.162 460.522 278.63 461.255 274.961C462.052 271.27 461.838 268.325 461.501 265.394C460.909 262.551 460.199 259.448 457.753 255.932C455.392 252.457 451.328 248.542 444.594 245.971C444.952 246.019 445.272 246.122 445.622 246.23C440.117 244.461 432.578 243.363 425.168 244.256C428.543 243.553 425.288 243.361 422.265 243.473C419.303 243.594 416.537 243.831 420.911 242.472C414.252 244.103 410.619 245.835 408.171 246.875C405.745 247.979 404.627 248.619 403.763 249.172C402.035 250.278 401.333 251.217 394.365 255.389L390.523 255.726C385.796 258.588 385.599 259.382 374.059 263.673C383.275 259.497 366.13 264.587 376.345 259.755C363.848 262.794 354.947 265.979 347.572 268.426C340.171 270.839 334.349 272.583 328.224 272.038C322.79 274.744 328.286 274.081 334.373 272.859C340.464 271.608 347.038 269.691 343.906 270.853C349.545 270.482 335.011 275.588 326.981 276.793C318.849 278.319 312.558 275.837 292.192 278.432C294.226 278.218 294.351 277.961 296.389 277.717C288.648 277.898 281.433 280.518 271.731 280.376C266.6 282.85 259.224 281.894 258.03 284.469C264.374 283.372 270.735 282.369 277.081 281.486C271.732 282.411 266.554 283.876 260.525 285.349C254.487 286.881 247.592 288.238 238.646 289.716C239.908 288.912 245.044 287.077 248.638 286.099C245.973 286.26 243.466 286.836 240.969 287.565C238.449 288.231 235.956 288.931 233.162 289.378C233.592 287.977 239.411 286.264 246.497 284.841C253.625 283.333 261.974 282.231 267.691 280.595C261.913 280.188 245.818 285.601 251.297 282.111C247.337 284.467 242.171 285.387 236.207 286.595C230.309 287.994 223.48 289.542 217.117 293.735L217.464 292.049C215.323 293.069 211.154 295.854 207.289 297.95C209.247 296.024 211.435 294.433 213.59 292.625C210.983 294.403 208.26 295.68 205.677 297.279C204.36 298.045 203.046 298.78 201.707 299.482L197.862 301.885C192.704 305.023 187.949 309.005 184.25 313.949C186.422 311.566 188.074 309.66 189.497 308.331C190.972 307.07 192.029 306.209 192.807 305.614C194.355 304.484 194.688 304.498 194.733 304.839C194.813 305.609 193.509 307.409 197.959 304.571C196.466 305.739 195.286 307.069 194.141 308.132C193.019 309.257 191.92 310.204 191.034 311.149C189.285 313.103 187.834 314.64 186.508 315.921C183.935 318.585 182.243 320.333 180.446 322.189C178.67 324.109 176.811 326.199 174.838 330.28C173.864 332.337 172.912 334.913 172.241 338.348C171.603 341.756 171.268 346.085 172.277 351.263C171.557 348.463 171.573 343.119 172.429 339.892C172.828 338.274 173.226 337.112 173.501 336.875C173.775 336.639 173.751 337.273 173.629 339.323C172.934 342.936 172.646 347.363 173.276 351.518C173.816 355.661 175.118 359.328 175.965 361.629C179.489 367.538 182.039 369.367 182.769 370.042C183.635 370.613 183.04 369.835 182.258 368.637C180.605 366.229 178.32 362.187 181.947 366.195C184.076 370.034 186.641 371.987 189.593 373.536C192.579 375.059 195.945 376.238 200.802 377.859L200.342 379.256C206.71 381.838 210.423 382.243 212.678 382.423C214.936 382.573 215.738 382.255 216.472 381.988C217.901 381.298 219.079 381.122 230.102 381.835C227.008 382.485 223.828 383.093 220.553 383.506C224.548 383.614 228.452 383.498 232.274 383.31L229.896 384.967C242.434 383.666 245.996 383.838 258.05 384.112C255.264 383.132 259.559 381.458 270.16 381.234C277.415 381.961 266.14 382.672 281.147 382.217C277.766 383.193 274.081 384.401 267.503 383.158C266.831 383.645 264.182 384.142 263.484 384.595C271.297 385.457 283.063 384.478 288.483 384.382C286.388 384.375 283.875 384.313 282.591 384.141L304.326 381.76C307.754 382.249 305.046 382.737 302.372 383.2C306.777 382.969 309.794 382.217 316.155 382.126C314.48 383.299 314.963 384.457 305.911 385.131C312.758 384.588 319.444 384.115 326.006 384.111C327.369 384.596 335.678 386.527 333.166 386.677C338.286 387.696 344.48 388.402 350.592 390.404C356.708 392.375 362.952 395.883 366.69 400.879C367.285 401.201 368.331 402.009 369.938 404.077C373.07 409.052 374.056 413.954 373.696 419.374C373.289 424.696 371.614 430.183 368.031 434.717C365.983 435.719 363.862 436.134 361.957 436.062C358.489 437.239 360.194 437.437 361.756 437.797C362.542 438.054 363.121 438.04 362.709 438.623C362.261 439.019 360.746 440.123 356.671 440.155C355.935 440.209 355.279 440.121 354.686 440.012C354.089 439.932 353.552 439.86 353.082 439.737C352.151 439.43 351.484 439.189 350.997 438.972C350.034 438.448 349.847 438.028 349.917 437.734C350.03 437.111 351.027 436.698 349.34 435.682C346.617 434.923 342.568 433.167 339.23 429.501C337.52 427.754 336.123 425.471 335.271 422.987C335.082 422.355 334.859 421.748 334.704 421.089C334.609 420.438 334.543 419.792 334.448 419.141C334.319 418.516 334.423 417.74 334.425 417.042C334.427 416.343 334.493 415.623 334.648 414.915C335.045 418.765 335.281 421.318 336.757 424.371L336.942 424.578ZM454.339 372.857C451.036 373.479 444.438 374.663 442.032 373.795C445.756 372.075 448.629 372.853 454.339 372.857ZM514.935 174.93C516.103 176.878 517.222 180.096 518.564 183.92C517.17 181.395 515.682 178.432 514.935 174.93ZM338.434 490.698C338.434 490.698 338.681 490.67 338.804 490.656C346.214 491.586 343.579 491.294 338.434 490.698ZM323.131 488.137C321.564 488.049 321.625 488.269 322.25 488.596C323.39 488.475 326.806 489.053 330.738 489.639C329.681 489.133 327.748 488.602 323.131 488.137ZM296.307 289.918L293.398 289.863C299.814 288.685 298.068 289.242 296.307 289.918Z" fill="#E4E4E4"/>
<path d="M529.889 197.829C530.165 198.717 530.087 199.071 529.984 199.391C530.895 200.303 531.128 200.152 529.889 197.829Z" fill="#E4E4E4"/>
<path d="M367.042 401.411L366.78 401.102C366.583 400.985 366.433 400.965 366.31 400.979L367.008 401.437L367.042 401.411Z" fill="#E4E4E4"/>
<path d="M489.52 388.281C488.771 385.477 488.505 383.832 488.41 382.725C488.022 382.673 488.17 384.06 489.52 388.281Z" fill="#E4E4E4"/>
<path d="M252.018 450.837C254.457 452.591 256.858 454.4 259.337 456.311C255.857 453.477 254.863 452.28 253.248 450.728C253.196 451.116 254.248 452.563 252.018 450.837Z" fill="#E4E4E4"/>
<path d="M179.774 425.173C178.387 425.322 176.857 425.178 175.474 425.297L175.838 425.983C181.724 426.041 185.829 425.557 179.774 425.173Z" fill="#E4E4E4"/>
<path d="M248.147 442.055C248.241 440.671 243.228 437.722 237.433 435.398C237.775 435.566 238.091 435.699 238.433 435.866C236.077 436.675 242.275 438.719 248.147 442.055Z" fill="#E4E4E4"/>
<path d="M236.074 434.882C234.238 434.303 232.38 433.66 230.619 432.969C229.746 433.368 232.774 433.895 236.074 434.882Z" fill="#E4E4E4"/>
<path d="M303.793 483.73C300.777 482.203 301.27 484.426 299.667 483.239C297.605 483.207 303.043 485.027 306.821 485.623C308.686 485.994 310.164 486.07 310.013 485.837C309.858 485.634 308.174 485.044 303.764 483.726L303.793 483.73Z" fill="#E4E4E4"/>
<path d="M245.843 435.885L247.092 438.361L250.818 439.345C249.185 438.155 247.552 436.964 245.847 435.855L245.843 435.885Z" fill="#E4E4E4"/>
<path d="M286.664 468.44C283.746 466.409 280.979 464.156 278.271 461.911C278.231 462.209 277.083 461.479 275.721 460.537C280.72 464.729 286.622 468.981 286.664 468.44Z" fill="#E4E4E4"/>
<path d="M275.753 460.539C273.124 458.395 270.635 456.331 269.012 455.294C270.436 456.456 273.47 458.988 275.753 460.539Z" fill="#E4E4E4"/>
<path d="M258.015 443.708L260.274 445.893L265.944 450.752C263.346 448.37 260.714 446.013 258.015 443.708Z" fill="#E4E4E4"/>
<path d="M397.474 478.54C401.177 477.425 404.854 476.276 408.514 475.033C409.477 474.19 406.417 474.814 402.319 476.149C399.77 477.267 395.659 478.479 397.504 478.544L397.474 478.54Z" fill="#E4E4E4"/>
<path d="M362.62 480.655C365.712 480.703 365.944 481.008 367.731 481.277L367.833 479.377C366.1 479.844 364.341 480.277 362.62 480.655Z" fill="#E4E4E4"/>
<path d="M395.136 474.43C396.147 473.685 410.699 468.673 396.814 472.559C395.85 473.402 384.87 476.461 395.136 474.43Z" fill="#E4E4E4"/>
<path d="M488.184 370.09L489.277 372.818L491.976 371.265L488.184 370.09Z" fill="#E4E4E4"/>
<path d="M514.408 226.38C508.938 230.935 508.739 231.972 508.55 232.706C508.386 233.474 508.354 234.168 503.552 238.509C501.798 241.403 511.366 231.411 509.425 234.342C514.944 227.819 518.686 225.281 514.378 226.376L514.408 226.38Z" fill="#E4E4E4"/>
<path d="M509.456 234.347C508.584 235.415 507.7 236.573 506.775 237.816C508.337 235.899 509.04 234.96 509.456 234.347Z" fill="#E4E4E4"/>
<path d="M346.84 80.0136C348.492 77.6523 350.226 75.3626 351.93 73.0689L348.096 77.2045L346.84 80.0136Z" fill="#E4E4E4"/>
<path d="M353.819 64.8161L356.573 64.212L358.041 58.9098C356.996 60.5928 354.985 63.8176 353.789 64.8121L353.819 64.8161Z" fill="#E4E4E4"/>
<path d="M480.949 371.491L481.497 370.805C479.913 370.836 477.785 371.524 473.396 372.547C475.897 372.243 478.454 371.978 480.953 371.461L480.949 371.491Z" fill="#E4E4E4"/>
<path d="M363.453 381.005C364 380.774 364.573 380.577 365.117 380.377C363.833 380.205 362.598 380.131 361.302 380.049L363.423 381.001L363.453 381.005Z" fill="#E4E4E4"/>
<path d="M355.114 435.209C352.844 434.693 349.778 433.767 347.578 432.045C350.101 433.628 351.987 434.973 353.304 435.575C354.601 436.325 355.243 436.289 355.118 435.179L355.114 435.209Z" fill="#E4E4E4"/>
</g>
<defs>
<clipPath id="clip0_0_1">
<rect width="30" height="226.423" fill="white" transform="translate(748 78)"/>
</clipPath>
<clipPath id="clip1_0_1">
<rect width="38" height="216.845" fill="white" transform="translate(665 74)"/>
</clipPath>
<clipPath id="clip2_0_1">
<rect width="701.095" height="435.219" fill="white" transform="translate(-59.3506) rotate(7.61186)"/>
</clipPath>
</defs>
</svg>
