<svg viewBox="0 0 1920 749" fill="none" xmlns="http://www.w3.org/2000/svg">
<rect y="749" width="749" height="1920" transform="rotate(-90 0 749)" />
<path d="M287.492 498.387C287.492 498.387 286.035 498.541 285.728 498.541C286.073 498.311 287.914 498.349 287.492 498.387Z" fill="#E4E4E4"/>
<path d="M291.056 495.969L290.404 496.046L291.977 495.662L291.056 495.969Z" fill="#E4E4E4"/>
<path d="M290.941 493.822C293.702 493.937 290.519 494.628 291.516 494.973H292.13L289.944 495.28C290.289 494.819 291.708 494.167 290.941 493.861V493.822Z" fill="#E4E4E4"/>
<path d="M284.996 492.864C286.07 492.864 285.916 492.596 285.341 493.132C285.226 493.132 285.149 493.132 285.073 493.094C285.073 493.056 285.073 492.979 284.996 492.864Z" fill="#E4E4E4"/>
<path d="M285.074 493.095C284.192 492.98 284.998 493.326 285.074 493.095Z" fill="#E4E4E4"/>
<path d="M285.65 492.021L284.692 492.366C284.078 492.328 283.925 492.059 283.464 492.174C283.963 491.868 284.615 491.906 285.65 492.021Z" fill="#E4E4E4"/>
<path d="M287.643 491.673L287.26 491.826C286.991 491.826 286.915 491.788 287.643 491.673Z" fill="#E4E4E4"/>
<path d="M286.381 492.212L287.225 491.867C287.685 491.867 288.567 491.867 286.918 492.021C287.723 491.982 286.918 492.021 286.381 492.212Z" fill="#E4E4E4"/>
<path d="M286.801 492.365C287.415 492.519 287.798 492.711 288.719 492.365C288.373 492.941 286.417 492.941 286.801 492.365Z" fill="#E4E4E4"/>
<path d="M293.781 493.631L294.586 493.823L293.666 494.053C294.126 493.938 292.898 493.631 293.781 493.631Z" fill="#E4E4E4"/>
<path d="M284.155 490.217C284.73 490.217 285.727 490.255 286.456 490.255L285.804 490.485C285.421 490.37 285.037 490.179 284.155 490.179V490.217Z" fill="#E4E4E4"/>
<path d="M286.456 490.253L287.453 489.908C287.568 490.215 287.108 490.253 286.456 490.253Z" fill="#E4E4E4"/>
<path d="M290.673 491.522L288.564 492.136L290.673 491.407V491.522Z" fill="#E4E4E4"/>
<path d="M284.039 488.949L282.697 489.179L284.729 488.796L284.039 488.949Z" fill="#E4E4E4"/>
<path d="M284.269 488.107C283.156 488.299 282.389 487.992 281.699 488.145C281.891 487.915 282.85 487.685 283.693 487.493C283.233 487.685 283.348 487.877 284.269 488.107Z" fill="#E4E4E4"/>
<path d="M284.922 487.149C284.654 487.264 284.193 487.379 283.695 487.494C283.963 487.379 284.308 487.264 284.922 487.149Z" fill="#E4E4E4"/>
<path d="M287.146 489.337C286.8 489.337 285.88 489.337 285.458 489.146L287.107 489.222C287.107 489.222 287.107 489.299 287.107 489.337H287.146Z" fill="#E4E4E4"/>
<path d="M287.182 489.217H287.143C287.143 489.217 287.067 488.988 287.029 488.95C287.029 488.95 287.105 489.065 287.182 489.217Z" fill="#E4E4E4"/>
<path d="M289.14 490.718C290.06 490.488 291.019 490.066 292.438 490.411C291.326 490.603 290.521 490.411 289.14 490.718Z" fill="#E4E4E4"/>
<path d="M289.215 489.489L289.599 489.834C289.177 489.834 288.525 489.834 288.065 489.911L289.177 489.489H289.215Z" fill="#E4E4E4"/>
<path d="M289.716 489.299L289.217 489.491L289.064 489.337L289.716 489.299Z" fill="#E4E4E4"/>
<path d="M286.495 487.722C287.186 487.531 287.262 487.377 287.377 487.186C287.723 487.377 287.876 487.569 287.876 487.761C287.377 487.799 286.457 487.914 286.495 487.722Z" fill="#E4E4E4"/>
<path d="M288.181 487.801C288.488 487.954 288.105 488.031 287.606 488.146C287.759 488.031 287.875 487.916 287.875 487.763C288.105 487.763 288.258 487.763 288.181 487.763V487.801Z" fill="#E4E4E4"/>
<path d="M285.689 486.612C286.034 486.689 286.341 486.766 286.609 486.842C286.072 486.766 285.267 486.651 285.689 486.612Z" fill="#E4E4E4"/>
<path d="M286.609 488.375C286.839 488.298 287.261 488.221 287.606 488.145C287.491 488.221 287.3 488.336 287.07 488.413C286.954 488.413 286.763 488.413 286.609 488.413V488.375Z" fill="#E4E4E4"/>
<path d="M297.769 484.426C296.235 484.503 294.854 484.963 296.503 485.232C295.391 485.615 290.367 485.539 287.568 485.347C288.22 485.347 288.833 485.308 289.715 484.925C290.559 485.002 291.671 485.615 293.052 485.308C293.819 484.81 292.515 484.963 291.71 484.772C293.627 484.887 294.433 484.081 297.232 484.12L296.273 484.541C296.695 484.541 297.386 484.35 297.807 484.465L297.769 484.426Z" fill="#E4E4E4"/>
<path d="M287.761 485.997L287.569 486.151C287.301 485.997 286.687 485.882 285.498 485.729C286.227 485.46 286.802 485.384 287.301 485.384L287.531 486.074H287.761V485.997Z" fill="#E4E4E4"/>
<path d="M287.569 486.804C289.218 486.651 289.908 486.267 291.711 486.421C291.596 486.842 290.33 486.766 289.64 487.034C290.023 486.344 288.72 487.264 287.761 486.804C287.492 486.957 287.416 487.072 287.339 487.188C287.147 487.072 286.879 486.957 286.572 486.881C286.572 486.881 286.649 486.881 286.687 486.881C286.879 486.881 287.032 486.881 286.917 486.881C287.147 486.881 287.339 486.881 287.531 486.842C287.186 486.651 287.109 486.842 286.917 486.881C286.84 486.881 286.764 486.881 286.687 486.881L287.569 486.19C287.799 486.344 287.761 486.497 287.569 486.842V486.804Z" fill="#E4E4E4"/>
<path d="M295.966 489.913C295.966 489.913 295.697 489.913 295.582 489.913C295.774 489.875 295.927 489.837 295.966 489.913Z" fill="#E4E4E4"/>
<path d="M294.97 489.68C294.74 489.718 294.088 489.795 294.242 489.948C294.74 490.063 295.047 489.948 295.584 489.948C295.162 490.063 294.395 490.331 293.59 490.063H293.82C293.245 489.756 291.174 489.488 290.943 489.526C292.439 489.526 293.513 489.603 294.97 489.718V489.68Z" fill="#E4E4E4"/>
<path d="M291.71 488.222L292.515 487.646L293.973 487.876H293.129C293.474 488.183 292.4 488.183 291.748 488.222H291.71Z" fill="#E4E4E4"/>
<path d="M286.455 485.308L284.729 485.424L287.146 485.04L286.455 485.308Z" fill="#E4E4E4"/>
<path d="M286.648 484.579L285.114 484.656L286.035 484.426L286.648 484.579Z" fill="#E4E4E4"/>
<path d="M304.098 442.702L304.52 442.51C304.52 442.51 304.251 442.663 304.098 442.702Z" fill="#E4E4E4"/>
<path d="M304.251 443.889H303.522C303.944 443.889 304.251 443.851 304.251 443.889Z" fill="#E4E4E4"/>
<path d="M286.224 466.594C284.805 466.402 282.58 466.21 284.306 466.172H285.955C285.648 466.364 285.84 466.479 286.224 466.594Z" fill="#E4E4E4"/>
<path d="M295.736 453.975C295.736 453.975 296.081 453.975 296.234 454.013C295.659 454.09 295.161 454.166 294.662 454.243C295.007 454.166 295.352 454.051 295.736 453.975Z" fill="#E4E4E4"/>
<path d="M302.603 453.591L301.529 453.322C301.912 453.399 302.257 453.476 302.603 453.591Z" fill="#E4E4E4"/>
<path d="M305.631 436.103L307.318 435.873C307.318 436.18 306.475 436.065 305.631 436.103Z" fill="#E4E4E4"/>
<path d="M286.99 477.063C286.338 476.871 286.07 476.718 285.955 476.564C286.913 476.795 288.371 476.948 286.99 477.063Z" fill="#E4E4E4"/>
<path d="M286.456 443.735C286.763 443.62 287.108 443.581 287.453 443.543C287.185 443.658 286.84 443.735 286.456 443.735Z" fill="#E4E4E4"/>
<path d="M285.956 475.987C285.956 475.987 286.225 476.064 286.34 476.102C286.071 476.256 285.841 476.409 285.956 476.601C285.228 476.448 284.806 476.256 285.956 475.987Z" fill="#E4E4E4"/>
<path d="M303.483 412.44C303.483 412.44 303.369 412.44 303.292 412.402C303.521 412.402 303.521 412.402 303.483 412.44Z" fill="#E4E4E4"/>
<path d="M286.456 406.075C286.456 406.075 286.341 406.267 286.341 406.382C286.226 406.344 286.226 406.267 286.456 406.075Z" fill="#E4E4E4"/>
<path d="M292.4 482.204C292.4 482.204 292.822 482.127 293.205 482.127C292.822 482.127 292.553 482.165 292.4 482.204Z" fill="#E4E4E4"/>
<path d="M286.572 481.857C286.381 481.818 286.189 481.742 286.074 481.665C286.189 481.665 286.381 481.742 286.572 481.857Z" fill="#E4E4E4"/>
<path d="M285.806 481.856C285.806 481.856 285.921 481.933 285.959 481.972C285.691 481.972 285.499 481.971 285.806 481.856Z" fill="#E4E4E4"/>
<path d="M285.88 481.435C285.88 481.435 285.956 481.587 286.07 481.663C285.956 481.663 285.88 481.663 285.803 481.663C285.803 481.625 285.842 481.549 285.88 481.435Z" fill="#E4E4E4"/>
<path d="M299.456 425.29C299.456 425.29 299.38 425.29 299.303 425.29C299.993 425.098 299.878 425.175 299.456 425.29Z" fill="#E4E4E4"/>
<path d="M304.556 461.415C302.485 461.722 302.754 461.837 303.214 462.029H298.42L304.595 461.415H304.556Z" fill="#E4E4E4"/>
<path d="M304.481 439.783L305.976 440.128C308.431 439.591 307.549 439.246 309.658 439.553C304.442 439.783 309.16 441.087 303.982 441.317L305.094 441.547C305.094 441.547 305.363 441.47 305.286 441.394C307.779 441.815 301.528 441.892 302.295 442.506C302.717 442.736 303.445 442.851 304.059 442.659L302.793 443.196C302.793 443.196 303.79 443.273 303.714 443.119L303.33 443.886H303.484C302.678 444.001 301.413 444.308 300.876 444.423C301.643 444.577 301.413 444.308 302.065 444.347L300.799 444.807C302.141 444.922 303.445 444.538 303.254 444.27C308.469 444.5 301.95 444.653 305.018 445.42L305.67 444.999C308.623 445.152 307.587 445.497 309.428 445.881C308.469 445.804 304.749 445.114 303.484 445.612C303.867 445.727 304.059 445.881 303.023 446.187C304.864 446.111 304.442 446.379 304.327 446.686L306.782 446.571C306.092 446.916 304.826 446.954 303.752 447.185C304.021 447.53 305.9 447.568 307.511 447.606C307.932 448.182 304.442 447.3 304.021 448.028C304.979 448.488 304.021 448.872 302.525 449.486C303.369 449.792 304.021 449.371 304.711 449.486L302.755 449.869C302.755 449.869 303.407 449.869 303.714 449.869C302.947 450.138 301.259 449.984 300.607 450.406C297.923 450.598 304.596 451.096 301.528 451.71C302.218 451.825 303.023 451.595 303.982 451.595C301.988 452.324 302.525 452.209 299.84 452.861L301.451 453.282C299.61 452.976 297.424 453.513 295.66 453.973C294.778 453.896 293.973 453.781 293.627 453.743L292.323 454.395C292.745 454.471 293.551 454.395 294.586 454.241C294.394 454.28 294.203 454.356 294.011 454.356C294.931 454.548 296.35 454.356 297.693 454.164C297.194 454.088 296.695 454.049 296.159 453.973C297.654 453.781 299.303 453.589 300.722 453.551C300.454 453.589 300.185 453.704 300.07 453.781C300.454 453.743 300.837 453.704 301.068 453.704C301.336 453.704 300.799 453.781 300.147 453.934H302.87L301.796 454.049L303.522 454.816C300.799 455.507 296.772 456.12 295.66 457.079C297.654 456.772 298.92 456.926 301.298 456.849C298.766 456.696 302.333 456.082 301.835 455.622C302.103 455.852 303.254 455.775 303.637 455.699L301.374 456.619C303.33 456.542 302.832 456.734 303.637 456.964C299.802 456.926 301.106 457.693 299.917 458.076C301.221 458.076 302.525 457.923 302.18 457.501C305.094 457.885 297.693 458.268 300.147 458.652C300.147 458.537 299.994 458.498 300.646 458.421C299.495 458.69 300.454 459.265 301.566 459.073V458.958C302.065 459.649 301.681 461.068 298.421 461.259C298.843 461.259 302.333 461.029 303.023 460.991L292.093 462.563C294.893 462.372 301.566 462.563 303.139 461.95C303.56 462.103 304.021 462.295 303.023 462.678C302.64 462.563 298.958 462.525 298.728 462.678C301.873 462.985 300.416 462.909 303.062 463.33C302.448 463.177 298.076 463.522 298.23 463.791C298.882 463.714 302.563 463.676 303.023 463.561L298.728 464.366C299.495 464.174 302.371 464.213 303.599 464.328C302.755 464.289 303.714 464.903 303.292 465.095L302.295 464.864C302.985 465.593 296.274 465.785 296.504 466.514C297.386 466.399 301.988 466.13 302.525 466.475C300.339 466.705 291.94 467.587 290.252 468.316L291.518 468.393L290.099 468.93C293.397 468.508 300.377 467.396 303.062 466.82C304.059 467.05 304.557 466.82 304.442 467.281C305.631 467.396 306.245 467.012 306.283 466.859L307.089 467.818C304.519 467.856 304.519 468.661 302.371 468.661L305.018 467.511C302.448 467.549 297.731 468.354 298.191 469.045C299.227 469.198 302.755 468.776 303.637 468.738C302.755 468.853 301.95 469.428 302.602 469.505L303.982 469.16C304.979 469.505 300.569 469.888 303.062 470.272C303.215 470.425 306.398 470.656 304.864 470.732C301.911 470.579 292.822 470.809 290.598 471.077C290.789 471.116 293.436 471.806 294.893 471.959C297.194 472.151 300.377 471.384 302.371 471.538C301.681 471.538 300.799 471.729 300.531 471.806C301.144 471.959 302.717 471.653 302.41 472.036C299.802 472.19 302.64 472.765 300.224 472.266C299.495 472.65 300.761 472.611 300.684 473.033C298.997 472.957 294.931 473.609 294.203 473.992C294.855 473.954 295.737 473.992 296.12 473.992C296.389 474.721 297.578 475.066 297.616 475.756C298.268 475.795 299.035 476.101 300.147 475.91C299.687 476.025 298.805 476.14 298.766 476.37C301.029 476.715 299.112 475.91 301.835 476.101C300.3 476.178 299.764 476.715 298.805 477.022C296.465 477.022 298.345 476.332 299.265 476.025C296.044 476.14 292.669 476.753 291.173 477.52C290.406 478.096 293.282 477.712 292.822 477.827C293.436 478.863 287.184 478.901 289.562 479.706C291.633 479.975 293.666 479.591 295.161 479.63C295.928 479.131 293.819 478.978 293.896 478.671L294.893 479.016C295.583 478.863 296.082 478.518 295.468 478.364C297.347 478.594 295.89 480.128 297.616 480.895C296.926 481.049 296.235 481.356 295.392 481.24L295.66 480.972C293.973 480.78 293.359 481.547 292.592 481.24C291.441 481.624 289.601 482.084 290.559 482.544H292.899C292.208 482.544 291.48 482.276 292.208 482.123C291.173 482.353 295.43 482.774 292.362 483.081L290.713 482.775C289.562 483.158 287.069 483.657 287.836 484.078C285.497 483.963 288.105 483.963 285.382 483.772C288.757 483.925 285.19 482.659 288.757 482.966C285.612 482.736 287.414 482.468 284.692 482.123C285.459 482.123 286.187 482.238 285.804 481.854C286.034 481.854 286.302 481.777 286.494 481.739C286.494 481.739 286.494 481.739 286.417 481.739H286.494C286.609 481.739 286.647 481.739 286.494 481.739C286.839 481.816 287.261 481.854 287.683 481.892C289.447 481.662 289.37 481.087 290.291 480.857C289.907 480.665 289.409 480.972 288.565 480.857L289.946 480.512C288.22 480.512 287.069 480.052 286.072 480.589L285.995 480.128C285.037 479.898 284.615 479.553 285.344 479.285C284.96 479.093 287.223 478.671 285.88 478.901L286.916 478.134H286.494C286.264 477.444 289.294 476.6 286.149 475.871C286.571 475.603 287.108 475.373 286.609 474.989H285.113C285.612 474.644 283.579 474.107 285.113 473.915C281.087 473.724 284.193 472.458 283.464 471.959L285.42 471.883C285.305 471.499 285.842 471.154 286.609 470.656H288.335C289.716 470.195 287.069 469.658 287.223 469.006C286.571 469.083 286.763 469.237 287.146 469.313C283.234 468.7 289.907 467.626 287.069 467.05C287.683 466.859 287.453 466.744 287.069 466.629C287.069 466.629 287.069 466.629 286.993 466.667C286.993 466.667 286.993 466.629 286.993 466.59C286.686 466.514 286.341 466.475 286.072 466.399C286.494 466.437 286.839 466.514 286.993 466.552C286.993 466.437 287.223 466.207 287.645 466.015H285.804C285.804 466.015 285.804 465.977 285.842 465.938C285.152 465.785 286.724 465.747 288.105 465.823C288.412 465.708 288.757 465.632 289.217 465.516C286.226 465.478 290.214 464.98 287.031 464.864C288.565 464.673 288.182 463.867 291.403 463.637C290.981 463.637 290.789 463.599 290.751 463.714C290.368 463.522 289.984 463.292 290.904 463.1H288.565L291.71 462.525C290.252 462.295 289.447 462.18 287.645 462.525C290.406 461.758 288.68 461.95 291.403 461.259L289.869 461.336C289.907 461.144 291.94 460.723 290.674 460.646C287.76 460.262 290.214 458.345 287.491 457.233C291.978 457.309 285.459 456.734 288.949 456.581C287.875 456.581 287.299 456.389 286.379 456.619C287.414 455.967 284.692 455.737 287.568 455.238C286.494 455.238 286.034 455.43 285.382 455.392C285.612 455.353 286.302 455.162 285.65 455.123C285.037 455.085 284.768 455.238 284.308 455.353C284.461 454.74 287.721 454.548 290.789 454.395C289.332 454.126 289.524 453.973 291.518 453.666C290.521 453.589 289.447 453.436 289.102 453.858C288.949 453.628 287.606 452.554 290.022 452.477C289.409 452.439 289.831 452.17 290.099 452.094C289.946 451.595 289.716 451.557 289.946 451.096L290.368 451.211C293.321 450.905 291.02 450.79 291.365 450.406H291.058C288.91 449.601 292.055 450.023 289.601 449.217H291.441C295.392 448.987 289.102 448.489 290.598 447.952L291.671 448.105C293.014 447.798 286.264 447.491 285.765 447.223C285.42 447.185 285.228 447.338 284.96 447.415C282.621 446.763 287.376 447.223 287.913 446.686C286.609 446.609 284.615 446.916 284.346 446.571C283.273 446.418 288.527 445.382 286.034 444.96C287.031 445.037 288.028 445.114 288.795 444.845C289.14 444.462 284.96 443.925 288.105 443.465C287.836 443.426 287.568 443.426 287.299 443.426C288.105 443.119 288.603 442.429 290.329 442.199C283.963 442.122 293.359 440.243 287.491 440.435L287.76 439.514H287.146C286.724 438.977 288.143 438.747 289.524 438.479C289.102 438.364 288.565 438.479 288.258 438.479C287.031 437.673 287.299 437.558 290.176 436.753H288.258C289.37 436.523 285.228 435.602 287.415 434.682C287.184 434.682 286.839 434.72 286.571 434.797C288.757 433.8 281.24 432.726 288.143 432.151L289.831 431.461C290.406 432.228 292.822 431.23 293.973 431.537C294.356 431.192 291.863 430.809 291.518 431.192H291.863C288.258 431.499 290.559 430.272 288.105 430.387C288.22 428.814 286.187 427.319 285.995 425.861L288.795 425.938L288.603 425.439C287.951 425.324 286.417 425.324 286.532 425.708C284.922 425.554 287.836 425.056 288.45 425.018C287.299 424.327 285.19 425.401 285.113 425.171L285.305 424.864H285.65C286.801 424.634 287.99 424.596 287.836 424.135C287.261 423.867 286.111 424.059 285.995 423.944C285.804 423.944 285.689 423.944 285.919 423.79L285.65 423.138L287.875 423.33C288.949 423.023 287.721 422.716 290.252 422.947C286.379 422.64 288.795 420.569 287.568 420.339C289.179 419.878 289.14 419.495 288.91 418.996C289.37 419.111 291.863 419.111 291.556 418.69C286.417 418.996 289.294 417.999 285.612 417.769C288.066 417.999 286.187 416.542 289.677 416.887C289.255 416.542 287.76 416.925 286.532 416.695C288.488 415.775 285.19 414.854 285.804 413.819C286.494 413.781 287.53 413.934 288.527 413.666L285.152 413.244C285.459 413.014 289.025 412.937 286.686 412.63C287.261 412.63 288.105 412.707 288.335 412.553C284.998 410.597 290.904 408.296 284.653 406.417C285.957 406.647 286.111 406.456 286.149 406.264C286.456 406.379 287.798 406.187 288.718 406.187L286.149 405.382C288.68 405.152 286.302 404.461 288.718 404.27L288.297 404.576C291.135 404.116 294.663 404.883 298.345 404.691C295.123 405.228 303.215 405.612 298.575 406.456C299.342 406.571 299.764 406.302 300.607 406.341C299.035 406.571 298.728 406.762 299.418 407.146H299.802C299.457 408.181 301.029 408.603 302.103 409.754H300.3C300.569 409.984 301.106 410.022 301.566 410.099C298.805 410.482 301.374 409.37 298.345 409.754C302.065 409.984 298.46 411.595 302.678 411.671C302.678 412.055 300.569 411.633 300.607 412.016L301.758 412.093L300.3 412.247C300.569 412.515 301.988 412.592 302.947 412.553C302.832 412.477 303.215 412.362 303.292 412.285C304.634 412.592 302.87 413.244 303.292 413.359L302.563 413.014C301.528 414.126 303.062 415.43 300.799 416.542H299.955C298.383 417.347 300.914 417.117 300.224 417.999H300.416C299.572 418.153 299.15 418.421 299.265 418.651C300.262 418.383 301.221 418.996 302.333 418.651C300.646 419.572 301.029 419.111 297.846 419.802L299.265 419.878C297.999 420.109 297.309 420.147 296.964 420.607C298.191 420.224 299.15 420.799 300.722 420.377C303.867 421.182 297.616 421.834 302.18 422.141C298.268 422.678 299.955 421.413 299.15 421.681C297.846 421.528 296.235 422.141 296.619 422.41C296.734 422.716 301.681 422.755 301.604 423.484C301.604 423.407 301.873 423.407 301.873 423.33C302.87 423.56 300.531 423.905 302.18 424.212C299.802 424.481 302.333 424.634 299.303 424.787L299.994 424.097C299.227 424.519 295.66 424.979 297.424 425.554C298.038 425.478 298.843 425.286 299.265 425.133C300.147 425.286 298.69 425.516 299.61 425.67C302.64 425.516 300.262 424.826 302.563 424.327C303.867 424.481 300.377 425.171 303.675 424.864C299.495 425.286 304.212 425.593 301.068 426.168L302.87 426.091C302.602 426.168 301.72 426.36 301.796 426.513L304.136 426.168C302.141 426.628 305.938 426.897 304.826 427.319C304.826 426.513 302.64 427.204 301.298 426.897C298.882 427.971 306.092 427.319 305.248 428.469C305.516 428.316 304.136 427.932 303.292 428.201C303.675 428.392 304.366 428.661 305.325 428.776C304.979 429.543 303.445 428.738 302.333 429.083C304.558 429.275 301.451 429.466 300.761 429.85L302.602 429.773C303.829 430.578 298.766 430.118 300.224 430.847L302.793 430.425L302.141 430.847L304.251 430.694C302.717 431.192 303.1 431.307 303.714 431.691C302.41 431.652 300.377 431.844 300.3 432.228C301.413 432.458 302.065 432.036 301.796 432.573C302.947 432.419 304.404 432.228 302.678 432.074C303.292 432.036 303.829 431.921 304.442 431.882C305.708 432.113 304.749 432.573 304.749 432.765C304.673 432.688 304.557 432.611 304.327 432.573L301.796 433.416C302.487 433.532 303.062 433.416 303.599 433.301C303.407 433.455 302.563 433.608 302.41 433.838C303.906 433.723 305.478 433.685 306.168 433.34L304.519 434.145C305.171 434.145 306.322 434.452 306.859 434.337C307.741 434.72 303.982 435.449 305.171 435.948C304.864 435.948 304.596 436.063 304.404 436.178C304.749 436.676 306.628 437.06 304.596 437.75L307.319 438.019C306.705 438.517 303.906 437.673 302.908 438.479C302.065 439.054 305.209 438.594 305.976 438.786C304.634 439.092 301.873 439.668 304.097 440.128C304.596 439.936 304.212 439.821 304.404 439.668L304.481 439.783ZM303.484 445.689C303.867 445.574 305.056 445.305 303.982 445.267C301.873 445.459 302.87 445.535 303.484 445.689ZM299.303 454.701C299.917 454.586 299.61 454.471 298.882 454.356C298.728 454.471 298.805 454.586 299.303 454.701ZM287.261 479.898C287.261 479.898 287.299 479.898 287.338 479.898C286.609 479.668 286.878 479.745 287.261 479.898ZM288.066 480.397C287.798 480.473 287.568 480.473 287.299 480.435C287.76 480.397 287.798 480.282 287.645 480.128C288.143 480.128 288.45 480.205 288.066 480.358V480.397ZM286.954 424.02L287.453 424.097C287.99 423.867 287.491 423.944 286.954 424.02Z" fill="#E4E4E4"/>
<path d="M301.834 453.628C301.527 453.628 301.182 453.628 300.837 453.628C301.144 453.59 301.489 453.552 301.834 453.628Z" fill="#E4E4E4"/>
<path d="M303.482 471.73C303.214 471.615 302.869 471.576 302.524 471.538C302.984 471.538 303.367 471.538 303.482 471.73Z" fill="#E4E4E4"/>
<path d="M285.038 483.277L285.499 482.932C285.499 482.932 285.805 483.123 286.112 483.2C285.69 483.2 285.038 483.2 285.038 483.277Z" fill="#E4E4E4"/>
<path d="M296.58 485.808C296.35 485.847 296.58 485.923 296.312 485.962H295.468C295.506 485.77 296.197 485.578 296.58 485.808Z" fill="#E4E4E4"/>
<path d="M291.174 483.393C292.747 483.393 292.21 483.584 291.941 483.853C291.941 483.853 291.941 483.853 291.941 483.814C289.755 483.968 290.484 483.699 291.174 483.393Z" fill="#E4E4E4"/>
<path d="M291.902 483.891C291.902 483.891 291.787 484.044 291.902 484.121C291.02 484.159 291.711 484.044 291.902 483.891Z" fill="#E4E4E4"/>
<path d="M287.071 481.089C287.493 481.204 285.077 481.242 285.729 481.281C283.735 481.472 288.107 480.475 287.071 481.089Z" fill="#E4E4E4"/>
<path d="M296.311 483.426L294.393 483.388L295.927 483.196L296.311 483.426Z" fill="#E4E4E4"/>
<path d="M294.856 481.588L295.393 481.933C295.086 481.933 294.894 482.01 294.741 482.048C294.664 481.818 294.28 481.588 294.856 481.55V481.588Z" fill="#E4E4E4"/>
<path d="M294.74 482.084C294.74 482.084 294.74 482.314 294.433 482.391C294.433 482.314 294.51 482.199 294.74 482.084Z" fill="#E4E4E4"/>
<path d="M296.887 482.891L296.465 482.776L296.311 482.508L296.887 482.891Z" fill="#E4E4E4"/>
<path d="M294.359 477.563L294.896 477.141C295.548 477.064 295.97 477.141 295.701 477.332C295.241 477.448 295.011 477.601 294.359 477.563Z" fill="#E4E4E4"/>
<path d="M299.649 478.637C299.265 478.522 298.805 478.561 298.192 478.522L300.569 478.445L299.649 478.676V478.637Z" fill="#E4E4E4"/>
<path d="M300.148 477.408C300.8 477.331 302.027 476.756 301.874 477.293C301.222 477.37 300.685 477.792 300.148 477.408Z" fill="#E4E4E4"/>
<path d="M296.924 471.348V471.424L293.012 471.539L296.924 471.348Z" fill="#E4E4E4"/>
<path d="M306.092 465.556C307.051 466.016 303.676 465.747 304.865 466.169C303.944 466.323 303.906 465.824 303.1 465.977C304.059 465.671 303.522 465.517 306.092 465.556Z" fill="#E4E4E4"/>
<path d="M303.139 465.98C303.139 465.98 302.794 466.096 302.563 466.134C302.794 466.057 302.985 465.98 303.139 465.98Z" fill="#E4E4E4"/>
<path d="M284.348 405L283.504 404.693L284.847 404.885L284.348 405Z" fill="#E4E4E4"/>
<path d="M287.225 404.31H284.732L286.995 404.042C286.879 404.119 286.688 404.272 287.225 404.31Z" fill="#E4E4E4"/>
<path d="M308.509 446.381H307.895C307.243 446.381 307.205 446.343 307.09 446.189L308.509 446.381Z" fill="#E4E4E4"/>
<path d="M306.513 442.201L306.552 442.278L304.327 442.201H306.513Z" fill="#E4E4E4"/>
<path d="M309.275 438.559C309.275 438.559 308.892 438.904 308.969 439.019C309.352 438.674 306.476 438.597 309.275 438.559Z" fill="#E4E4E4"/>
<path d="M221.259 119.399H367.914C393.331 119.399 413.936 140.004 413.936 165.421V358.865C413.936 384.281 393.331 404.886 367.914 404.886H221.259C195.842 404.886 175.237 384.281 175.237 358.865V165.421C175.237 140.004 195.842 119.399 221.259 119.399Z" stroke="#E4E4E4" stroke-width="3.83512" stroke-miterlimit="10"/>
<path d="M283.538 470.886H308.121C333.538 470.886 354.143 491.49 354.143 516.907V574.626C354.143 600.043 333.538 620.647 308.121 620.647H283.538C258.121 620.647 237.516 600.043 237.516 574.626V516.907C237.516 491.49 258.121 470.886 283.538 470.886Z" fill="black" stroke="#E4E4E4" stroke-width="3.83512" stroke-miterlimit="10"/>
<path d="M366.725 383.219C352.195 383.219 340.416 371.441 340.416 356.911C340.416 342.38 352.195 330.602 366.725 330.602C381.255 330.602 393.034 342.38 393.034 356.911C393.034 371.441 381.255 383.219 366.725 383.219Z" fill="#E3E3E3" stroke="#E4E4E4" stroke-width="3.83512" stroke-miterlimit="10"/>
<path d="M300.914 382.95C286.384 382.95 274.605 371.171 274.605 356.641C274.605 342.111 286.384 330.332 300.914 330.332C315.444 330.332 327.223 342.111 327.223 356.641C327.223 371.171 315.444 382.95 300.914 382.95Z" fill="#E3E3E3" stroke="#E4E4E4" stroke-width="3.83512" stroke-miterlimit="10"/>
<path d="M376.389 376.046C370.458 376.046 365.65 370.895 365.65 364.541C365.65 358.186 370.458 353.035 376.389 353.035C382.319 353.035 387.127 358.186 387.127 364.541C387.127 370.895 382.319 376.046 376.389 376.046Z" fill="black" stroke="black" stroke-width="3.83512" stroke-miterlimit="10"/>
<path d="M355.985 375.547C350.055 375.547 345.247 370.396 345.247 364.042C345.247 357.687 350.055 352.536 355.985 352.536C361.916 352.536 366.724 357.687 366.724 364.042C366.724 370.396 361.916 375.547 355.985 375.547Z" fill="black" stroke="black" stroke-width="3.83512" stroke-miterlimit="10"/>
<path d="M367.299 356.256C361.368 356.256 356.56 351.105 356.56 344.75C356.56 338.396 361.368 333.245 367.299 333.245C373.229 333.245 378.037 338.396 378.037 344.75C378.037 351.105 373.229 356.256 367.299 356.256Z" fill="black" stroke="black" stroke-width="3.83512" stroke-miterlimit="10"/>
<path d="M291.556 371.829C285.625 371.829 280.817 366.678 280.817 360.324C280.817 353.969 285.625 348.818 291.556 348.818C297.486 348.818 302.294 353.969 302.294 360.324C302.294 366.678 297.486 371.829 291.556 371.829Z" fill="black" stroke="black" stroke-width="3.83512" stroke-miterlimit="10"/>
<path d="M311.653 371.442C305.723 371.442 300.915 366.291 300.915 359.937C300.915 353.583 305.723 348.432 311.653 348.432C317.584 348.432 322.392 353.583 322.392 359.937C322.392 366.291 317.584 371.442 311.653 371.442Z" fill="black" stroke="black" stroke-width="3.83512" stroke-miterlimit="10"/>
<path d="M290.5 225.571C144.973 225.571 27 191.865 27 150.286C27 108.707 144.973 75 290.5 75C436.027 75 554 108.707 554 150.286C554 191.865 436.027 225.571 290.5 225.571Z" stroke="#E4E4E4" stroke-width="3.83512" stroke-miterlimit="10"/>
<path d="M292.682 200.476C189.939 200.476 106.65 176.784 106.65 147.558C106.65 118.332 189.939 94.6396 292.682 94.6396C395.424 94.6396 478.714 118.332 478.714 147.558C478.714 176.784 395.424 200.476 292.682 200.476Z" fill="black" stroke="#E4E4E4" stroke-width="3.83512" stroke-miterlimit="10"/>
<path d="M323.778 150.286C323.778 150.286 288.457 74.1819 258.312 150.286" stroke="#E6E6E6" stroke-width="3.83512" stroke-miterlimit="10"/>
<path d="M353.798 479.174C353.568 479.52 352.762 478.101 352.532 477.909C353.299 477.832 354.028 479.52 353.798 479.174Z" fill="#E4E4E4"/>
<path d="M361.046 478.98L360.624 478.481L362.196 479.44L361.046 478.98Z" fill="#E4E4E4"/>
<path d="M366.11 476.451C366.762 479.174 364.039 476.835 363.579 478.215L363.694 478.867L362.313 477.103C363.578 476.796 365.649 477.525 366.11 476.49V476.451Z" fill="#E4E4E4"/>
<path d="M366.76 469.778C366.952 470.852 367.757 470.392 366.146 470.353C366.146 470.2 366.146 470.162 366.146 470.047C366.261 470.047 366.453 469.97 366.722 469.778H366.76Z" fill="#E4E4E4"/>
<path d="M366.222 470.046C365.609 470.238 366.299 469.049 366.222 470.046Z" fill="#E4E4E4"/>
<path d="M369.254 469.625L368.142 469.012C368.103 468.36 368.794 467.976 368.372 467.631C369.407 467.823 369.407 468.475 369.254 469.625Z" fill="#E4E4E4"/>
<path d="M370.633 471.273L370.096 471.043C370.096 470.775 370.173 470.66 370.633 471.273Z" fill="#E4E4E4"/>
<path d="M368.945 470.507L370.096 471.005C370.096 471.466 370.403 472.309 369.597 470.852C369.943 471.581 369.521 470.929 368.945 470.507Z" fill="#E4E4E4"/>
<path d="M368.601 471.081C368.371 471.81 367.949 472.347 369.022 472.96C367.45 473.114 366.952 471.234 368.601 471.081Z" fill="#E4E4E4"/>
<path d="M367.49 478.942L367.298 479.901L366.493 479.249C366.915 479.556 367.183 478.137 367.49 478.942Z" fill="#E4E4E4"/>
<path d="M373.932 466.749C374.124 467.286 374.047 468.322 374.162 469.05L373.395 468.552C373.587 468.092 374.085 467.555 373.932 466.711V466.749Z" fill="#E4E4E4"/>
<path d="M374.16 469.047L375.311 469.776C374.544 470.082 374.275 469.66 374.16 469.047Z" fill="#E4E4E4"/>
<path d="M371.711 474.113L369.678 472.579L371.979 474.036L371.711 474.113Z" fill="#E4E4E4"/>
<path d="M377.422 465.83L376.616 464.603L377.997 466.443L377.422 465.83Z" fill="#E4E4E4"/>
<path d="M379.84 465.636C379.264 464.6 380.07 463.68 379.533 463.066C380.223 463.143 380.952 463.948 381.566 464.754C380.952 464.332 380.415 464.6 379.84 465.598V465.636Z" fill="#E4E4E4"/>
<path d="M382.562 465.905C382.255 465.675 381.91 465.215 381.564 464.755C381.871 464.985 382.216 465.292 382.562 465.905Z" fill="#E4E4E4"/>
<path d="M376.735 469.126C376.735 468.781 376.658 467.861 377.08 467.362V469.05C377.08 469.05 376.85 469.126 376.735 469.126Z" fill="#E4E4E4"/>
<path d="M377.077 469.089C377.461 468.936 377.691 468.821 377.806 468.782C377.729 468.782 377.499 468.897 377.077 469.089Z" fill="#E4E4E4"/>
<path d="M376.654 469.127H376.73C376.73 469.127 376.73 469.318 376.654 469.127Z" fill="#E4E4E4"/>
<path d="M373.47 472.002C374.237 472.731 375.503 473.421 374.889 475.032C374.237 474.035 374.583 473.114 373.47 472.002Z" fill="#E4E4E4"/>
<path d="M376.692 471.236L375.887 471.85C375.81 471.428 375.81 470.776 375.465 470.393L376.73 471.236H376.692Z" fill="#E4E4E4"/>
<path d="M377.229 471.62L376.692 471.237L376.998 471.007L377.229 471.62Z" fill="#E4E4E4"/>
<path d="M381.141 467.67C381.678 468.284 382.138 468.284 382.637 468.36C382.138 468.744 381.601 468.974 381.064 469.089C380.911 468.59 380.527 467.747 381.103 467.67H381.141Z" fill="#E4E4E4"/>
<path d="M379.185 468.474L379.3 468.55C379.3 468.55 379.223 468.742 379.185 468.474Z" fill="#E4E4E4"/>
<path d="M387.662 467.823C387.662 467.823 387.624 468.015 387.585 468.13V467.862H387.662V467.823Z" fill="#E4E4E4"/>
<path d="M381.026 469.396C380.681 469.779 380.374 469.396 380.068 468.974C380.413 469.089 380.72 469.127 381.065 469.089C381.141 469.319 381.18 469.472 381.026 469.396Z" fill="#E4E4E4"/>
<path d="M384.094 466.482C383.902 466.865 383.71 467.172 383.48 467.479C383.634 466.942 383.979 466.098 384.094 466.482Z" fill="#E4E4E4"/>
<path d="M379.341 468.087C379.341 468.087 379.303 468.049 379.265 468.011C379.341 467.629 379.341 467.82 379.341 468.087Z" fill="#E4E4E4"/>
<path d="M379.34 468.088C379.608 468.28 379.838 468.663 380.068 468.97C379.8 468.893 379.531 468.778 379.301 468.548C379.301 468.433 379.34 468.241 379.34 468.088Z" fill="#E4E4E4"/>
<path d="M389.656 478.251C389.541 476.717 388.468 475.375 387.777 477.024C386.895 475.95 386.972 470.926 387.585 468.088C387.662 468.74 387.701 469.353 388.659 470.197C388.353 471.041 386.78 472.23 387.624 473.572C388.813 474.301 388.544 472.997 389.081 472.153C388.698 474.071 390.654 474.838 390.5 477.637L389.503 476.717C389.503 477.139 389.887 477.829 389.618 478.213L389.656 478.251Z" fill="#E4E4E4"/>
<path d="M385.822 468.395L385.4 468.242C385.822 467.935 386.091 467.283 386.589 466.018C387.318 466.708 387.471 467.283 387.548 467.782C386.896 467.858 386.282 468.012 385.669 468.165L385.822 468.357V468.395Z" fill="#E4E4E4"/>
<path d="M383.676 468.474C384.174 470.085 385.133 470.66 384.826 472.501C383.752 472.501 383.906 471.236 383.139 470.584C384.98 470.775 382.487 469.74 383.676 468.666C383.292 468.436 382.947 468.398 382.64 468.359C382.947 468.129 383.215 467.822 383.484 467.516V467.631H383.445C383.407 467.861 383.369 468.014 383.445 467.861H383.484C383.522 468.091 383.599 468.283 383.637 468.474C384.136 468.091 383.637 468.053 383.484 467.861V467.631H383.445L385.401 468.321C385.018 468.589 384.558 468.589 383.676 468.513V468.474Z" fill="#E4E4E4"/>
<path d="M376.691 478.255C376.691 478.255 376.691 477.986 376.653 477.871C376.806 478.024 376.883 478.178 376.691 478.255Z" fill="#E4E4E4"/>
<path d="M377.077 477.102C376.924 476.91 376.655 476.296 376.31 476.565C376.118 477.14 376.502 477.332 376.617 477.869C376.272 477.485 375.505 476.948 376.042 475.951L376.233 476.143C376.732 475.414 377.115 473.19 376.962 472.998C377.115 474.494 377.192 475.568 377.115 477.102H377.077Z" fill="#E4E4E4"/>
<path d="M380.26 473.115L381.832 473.652L381.372 475.186L381.257 474.343C380.528 474.841 380.49 473.767 380.298 473.115H380.26Z" fill="#E4E4E4"/>
<path d="M387.776 466.979L387.431 465.253L388.505 467.669L387.776 466.979Z" fill="#E4E4E4"/>
<path d="M389.811 467.092L389.657 465.597L390.232 466.479L389.811 467.092Z" fill="#E4E4E4"/>
<path d="M433.684 532.941L434.374 533.248C433.952 533.133 433.684 533.018 433.684 532.941Z" fill="#E4E4E4"/>
<path d="M436.101 482.929C437.52 482.316 439.591 481.204 438.402 482.392L437.136 483.505C436.983 482.968 436.561 482.853 436.101 482.929Z" fill="#E4E4E4"/>
<path d="M444.651 514.765C444.651 514.765 444.305 514.765 444.114 514.727C444.651 514.458 445.149 514.228 445.609 513.998C445.303 514.228 444.996 514.497 444.651 514.765Z" fill="#E4E4E4"/>
<path d="M437.978 516.529L439.167 516.951C438.783 516.874 438.362 516.759 437.978 516.529Z" fill="#E4E4E4"/>
<path d="M424.059 540.307L423.1 538.888C423.445 538.735 423.675 539.579 424.059 540.307Z" fill="#E4E4E4"/>
<path d="M410.174 469.933C410.903 469.434 411.401 469.281 411.823 469.319C410.864 470.048 409.982 471.313 410.174 469.933Z" fill="#E4E4E4"/>
<path d="M448.179 543.335C447.757 543.45 447.412 543.335 447.105 543.143C447.488 543.028 447.872 543.028 448.179 543.335Z" fill="#E4E4E4"/>
<path d="M413.435 469.854C413.435 469.854 413.166 470.046 413.013 470.123C412.706 469.739 412.361 469.356 411.824 469.317C412.514 468.78 413.204 468.55 413.435 469.816V469.854Z" fill="#E4E4E4"/>
<path d="M378.802 530.794C378.802 530.794 378.688 530.87 378.611 530.908C378.688 530.718 378.764 530.718 378.802 530.794Z" fill="#E4E4E4"/>
<path d="M356.558 538.274C356.558 538.274 356.903 538.581 357.095 538.735C356.941 538.735 356.75 538.658 356.558 538.274Z" fill="#E4E4E4"/>
<path d="M397.977 466.518C397.558 466.365 397.939 466.327 397.977 466.518Z" fill="#E4E4E4"/>
<path d="M395.564 472.962C395.564 472.962 395.679 473.384 395.679 473.767C395.679 473.384 395.64 473.115 395.564 472.962Z" fill="#E4E4E4"/>
<path d="M413.816 480.939C413.588 481.206 413.626 481.168 413.816 480.939Z" fill="#E4E4E4"/>
<path d="M397.29 467.208C397.29 467.208 397.673 466.863 397.865 466.748C397.75 466.863 397.597 467.016 397.29 467.208Z" fill="#E4E4E4"/>
<path d="M397.404 466.439C397.404 466.439 397.136 466.516 397.021 466.554C397.021 466.286 397.021 466.094 397.404 466.439Z" fill="#E4E4E4"/>
<path d="M398.592 466.672C398.361 466.634 398.093 466.672 397.863 466.787C397.94 466.672 398.016 466.595 397.978 466.519C398.093 466.519 398.285 466.595 398.553 466.672H398.592Z" fill="#E4E4E4"/>
<path d="M404.614 545.253C404.614 545.253 404.538 545.33 404.499 545.368C404.346 544.601 404.499 544.755 404.614 545.253Z" fill="#E4E4E4"/>
<path d="M430.462 501.875L430.5 501.799H430.576L430.462 501.875Z" fill="#E4E4E4"/>
<path d="M430.158 503.529C431.538 501.919 431.155 501.803 430.58 501.803L434.606 499.157C433.149 500.653 431.653 502.11 430.158 503.529Z" fill="#E4E4E4"/>
<path d="M429.273 538.194L428.66 536.699C426.435 535.51 426.742 536.353 425.63 534.513C429.35 538.194 427.394 533.477 431.383 536.699L430.807 535.663C430.807 535.663 430.501 535.625 430.501 535.74C429.043 533.592 433.876 537.581 433.991 536.123C433.914 535.548 433.415 534.934 432.763 534.781C433.3 534.781 433.837 534.781 434.336 534.743C434.374 534.474 433.569 534.052 433.53 534.321L434.566 533.362L434.413 533.285C435.256 533.515 436.56 533.669 437.135 533.707C436.637 533.017 436.56 533.631 436.023 533.247L437.519 533.055C436.445 532.212 434.949 532.212 434.911 532.787C430.501 529.872 436.407 532.787 434.221 530.179C433.952 530.294 433.684 530.447 433.377 530.524C430.846 528.99 431.958 528.952 430.462 527.724C431.344 528.108 434.297 530.677 435.793 530.447C435.525 530.102 435.448 529.757 436.599 529.68C434.873 529.067 435.41 528.837 435.64 528.376L433.3 527.686C434.106 527.418 435.295 527.763 436.483 527.724C436.483 527.034 434.566 526.497 433.032 525.999C432.84 525.04 435.87 527.303 436.56 526.267C435.831 525.27 436.867 524.925 438.439 524.004C437.672 523.314 436.944 524.004 436.253 523.698L438.248 523.314C438.248 523.314 437.596 523.199 437.289 523.199C438.056 522.777 439.743 523.314 440.434 522.547C443.157 522.317 436.522 521.013 439.513 519.977C438.823 519.786 438.018 520.208 437.059 520.169C439.015 518.75 438.401 519.019 440.971 517.523C440.395 517.255 439.82 517.024 439.245 516.833C441.201 517.216 443.157 515.989 444.729 514.685C445.649 514.8 446.455 514.877 446.877 514.992L447.835 513.151C447.414 513.036 446.608 513.419 445.649 513.88C445.841 513.726 445.995 513.611 446.148 513.458C445.151 513.113 443.847 513.765 442.581 514.417C443.08 514.455 443.617 514.532 444.154 514.57C442.773 515.222 441.201 515.836 439.782 516.066C440.05 515.912 440.242 515.721 440.357 515.529C439.973 515.682 439.628 515.836 439.398 515.836C439.13 515.836 439.628 515.605 440.204 515.26L437.481 515.605L438.516 515.299C437.864 514.915 437.135 514.532 436.445 514.225C438.785 512.422 442.313 510.006 442.466 507.552C440.817 508.817 439.475 508.932 437.327 509.891C439.897 509.431 436.905 511.655 437.672 512.346C437.25 511.962 436.215 512.461 435.908 512.691C436.445 511.924 437.02 511.118 437.481 510.313C435.678 511.08 435.985 510.543 435.064 510.466C438.746 509.277 436.905 508.242 437.596 507.091C436.407 507.628 435.333 508.357 435.985 509.009C432.994 509.469 439.475 505.903 436.829 506.133C436.905 506.324 437.135 506.363 436.599 506.746C437.404 505.749 435.908 505.097 435.103 505.903L435.18 506.094C434.144 505.059 432.878 502.489 435.333 500.38C434.988 500.61 432.265 502.834 431.766 503.295C434.221 500.495 436.637 497.504 438.785 494.397C436.752 496.315 431.038 499.881 430.539 501.799C430.002 501.799 429.388 501.799 429.695 500.61C430.117 500.533 433.185 498.462 433.147 498.041C430.194 499.345 431.459 498.616 428.737 499.575C429.427 499.421 432.418 496.2 431.881 495.855C431.459 496.353 428.66 498.769 428.468 499.229C429.197 497.926 429.964 496.583 430.616 495.241C430.309 496.046 428.046 497.849 426.972 498.501C427.663 498.002 426.09 497.772 426.129 497.197L427.241 496.89C425.707 496.315 430.194 491.367 428.737 490.37C428.315 491.214 425.553 494.857 424.633 494.781C425.783 492.902 430.002 485.423 429.542 483.007L428.545 483.851L428.315 481.895C427.202 485.155 424.748 491.981 423.713 494.704C422.639 495.126 422.677 495.778 422.102 495.164C421.181 495.931 421.373 496.852 421.488 497.043C420.875 496.852 420.223 496.698 419.571 496.545C421.143 494.512 419.916 493.592 421.143 491.866C421.258 493.017 421.296 494.167 421.335 495.279C422.984 493.323 424.633 488.568 422.984 488.108C422.102 488.76 420.721 492.096 420.184 492.786C420.529 491.943 419.954 490.639 419.494 491.137L419.264 492.633C418.113 493.055 419.954 489.028 417.883 490.639C417.538 490.6 415.429 493.093 416.119 491.713C417.96 489.335 422.562 481.473 423.214 479.325C422.984 479.402 419.992 480.821 418.957 481.933C417.423 483.736 417.308 487.264 415.966 488.798C416.272 488.146 416.387 487.226 416.387 486.919C415.812 487.302 415.544 488.951 415.007 488.299C416.004 485.845 413.473 487.839 415.62 486.113C415.199 485.116 414.623 486.267 413.856 485.807C414.815 484.388 415.314 480.169 414.738 479.133C414.547 479.785 414.048 480.514 413.818 480.821C412.13 480.399 410.826 481.319 409.369 480.821C409.062 481.396 408.142 481.895 408.104 483.045C408.027 482.547 408.104 481.626 407.605 481.473C406.148 483.429 408.525 482.048 407.145 484.503C407.49 483.045 406.531 482.202 406.109 481.128C406.876 478.903 407.758 481.089 408.142 482.125C409.062 479.018 408.756 475.452 407.298 473.534C406.071 472.384 406.224 475.413 406.109 474.915C403.425 474.915 404.882 468.932 402.197 470.85C401.009 472.729 401.584 474.915 401.162 476.334C402.121 477.293 403.041 475.337 403.808 475.528L402.696 476.334C402.926 477.062 403.54 477.714 404.077 477.178C403.08 478.865 399.781 476.794 397.672 478.366C397.404 477.638 396.867 476.871 397.212 476.065L397.825 476.41C398.554 474.8 396.828 473.994 397.71 473.304C396.943 472.038 396.023 470.159 394.719 471.08L394.412 473.419C394.451 472.729 395.256 472.038 395.601 472.767C395.102 471.693 393.645 475.912 393.147 472.767L394.067 471.156C393.223 469.967 392.034 467.398 390.846 468.203C391.344 465.864 391.114 468.433 391.919 465.71C391.191 469.085 394.987 465.634 393.76 469.162C394.681 466.017 395.256 467.858 396.56 465.212C396.483 465.979 396.061 466.669 397.097 466.324C397.097 466.554 397.212 466.861 397.289 467.014C397.289 467.168 397.289 467.129 397.289 467.014C397.02 467.321 396.828 467.705 396.713 468.165C397.097 469.967 398.592 470.083 399.014 471.041C399.628 470.734 398.861 470.121 399.244 469.354L399.858 470.811C400.088 469.085 401.737 468.127 400.472 466.976H401.737C402.619 466.171 403.693 465.979 404.23 466.784C404.882 466.516 405.381 468.932 405.112 467.513L406.876 468.894L406.991 468.472C408.986 468.779 410.136 472.077 413.128 469.814C413.626 470.428 414.086 471.156 415.314 471.041L416.004 469.699C416.656 470.428 418.995 469.239 418.765 470.811C421.181 467.436 423.099 471.655 424.71 471.77L423.866 473.534C424.825 473.918 425.515 474.838 426.244 476.18L425.323 477.638C425.515 479.402 428.315 478.021 429.695 479.095C429.964 478.481 429.504 478.405 429.005 478.558C432.994 476.487 430.961 483.352 434.067 482.24C434.067 483.007 434.451 483.045 434.949 482.93C434.949 482.93 434.911 482.853 434.949 482.777C434.988 482.777 435.064 482.853 435.103 482.892C435.448 482.815 435.832 482.7 436.177 482.623C435.755 482.815 435.371 482.93 435.18 482.969C435.448 483.237 435.716 483.774 435.832 484.426L437.25 483.199C437.25 483.199 437.289 483.275 437.327 483.314C438.209 483.16 437.059 484.234 435.908 485.078C435.908 485.461 435.832 485.922 435.678 486.343C438.018 484.464 435.947 488.031 438.593 486.152C437.787 487.494 439.628 488.913 437.404 491.291C437.711 491.022 437.979 490.984 437.826 490.754C438.478 490.907 439.168 491.099 438.785 492.096L440.702 490.754L439.091 493.745C440.664 493.4 441.546 493.17 442.466 491.444C441.469 494.627 442.581 493.323 441.316 496.161L442.505 495.203C442.811 495.701 441.623 497.58 442.811 497.12C445.995 496.583 446.378 502.067 450.06 504.062C445.688 505.174 452.553 504.752 449.369 506.171C450.405 505.979 451.134 506.209 451.824 505.366C451.402 507.36 454.355 507.398 451.862 509.431C452.936 509.316 453.243 508.626 453.895 508.626C453.703 508.817 453.166 509.431 453.818 509.431C454.47 509.431 454.585 508.932 454.969 508.51C455.314 510.428 452.207 511.387 449.254 512.192C450.827 512.691 450.75 513.228 448.871 514.186C449.906 514.263 451.057 514.608 451.172 513.458C451.479 513.956 453.205 516.986 450.788 517.293C451.44 517.408 451.095 518.098 450.788 518.29C451.019 519.594 451.249 519.747 451.057 521.051L450.635 520.706C447.72 521.281 449.945 521.78 449.6 522.854H449.906C451.939 525.423 448.833 523.736 451.019 526.42L449.216 526.037C445.304 525.653 451.21 528.415 449.408 529.604L448.487 528.875C447.068 529.22 453.205 532.212 453.396 533.247C453.665 533.515 454.01 533.132 454.317 532.94C455.889 535.817 451.939 532.557 450.942 533.899C452.054 534.589 454.202 534.589 454.048 535.74C454.815 536.737 448.986 537.197 450.597 539.498C449.83 538.77 449.063 538.041 448.066 538.386C447.375 539.153 449.906 542.912 446.685 542.183C446.838 542.451 447.03 542.643 447.26 542.758C446.071 543.065 444.537 544.331 442.888 543.679C445.189 545.865 443.694 546.517 442.313 546.862C440.856 547.207 439.475 547.322 441.546 549.393C440.856 549.968 440.088 550.505 439.36 551.004L439.82 551.425C438.746 552.883 437.327 552.154 436.062 551.349C435.985 551.886 436.522 552.193 436.752 552.423C435.448 554.877 434.796 554.8 431.69 553.266L432.38 555.069C431.881 554.685 431.383 555.759 430.539 556.795C429.734 557.868 428.353 558.712 426.857 558.06C426.934 558.252 427.087 558.597 427.356 558.789C425.668 558.137 424.249 559.748 422.792 560.745C421.335 561.704 419.954 561.895 419.302 558.444C418.688 557.907 418.075 557.332 417.538 556.756C419.686 556.219 417.231 553.765 418.075 552.614C417.346 552.231 416.004 554.647 416.963 555.069L417.116 554.724C417.423 558.367 414.432 555.874 414.316 558.29C410.021 557.753 405.572 558.712 401.852 557.792L403.041 555.222L401.776 555.031C401.277 555.567 400.702 557.025 401.661 557.14C400.74 558.52 400.548 555.414 400.702 554.839C398.669 555.414 400.433 558.175 399.896 558.099L399.244 557.677L399.513 557.408C399.283 556.143 399.59 554.954 398.477 554.762C397.634 555.107 397.634 556.296 397.327 556.334C397.25 556.526 397.135 556.603 396.905 556.296L395.294 556.028L396.598 554.11C396.253 552.844 395.141 553.765 396.598 551.579C394.374 554.954 390.539 551.004 389.503 551.886C389.12 550.045 388.199 549.738 387.01 549.47C387.471 549.163 388.506 546.862 387.432 546.785C385.937 551.732 384.863 548.204 382.715 551.31C384.326 549.316 380.146 549.623 382.562 546.862C381.603 546.9 381.795 548.626 380.721 549.508C379.57 546.862 375.965 548.933 373.856 547.245C374.086 546.632 374.891 545.865 374.815 544.714L372.168 547.245C371.823 546.747 373.357 543.525 371.555 545.251C371.9 544.791 372.437 544.1 372.245 543.755C366.224 544.561 364.306 536.89 356.866 539.843C358.094 539.038 357.748 538.693 357.327 538.386C357.787 538.271 358.132 536.929 358.63 536.162L355.524 537.312C356.444 534.934 353.606 536.008 354.642 533.784L354.987 534.513C355.677 531.598 359.244 529.642 360.97 526.382C360.203 529.68 365.534 523.429 364.613 528.261C365.265 527.763 364.92 527.072 365.495 526.42C365.073 527.993 365.342 528.491 366.454 528.3L366.569 527.916C368.602 529.412 370.251 528.568 373.204 528.875L372.207 530.409C372.859 530.447 373.204 530.026 373.664 529.719C373.051 532.48 372.092 529.105 371.286 532.096C373.626 529.143 375.122 533.937 377.423 530.332C378.266 530.716 376.272 532.135 377.116 532.48L377.806 531.56L377.384 532.979C378.036 532.979 378.918 531.866 379.34 530.984C379.148 531.023 379.072 530.562 378.957 530.409C380.222 529.527 380.759 531.713 381.181 531.444L380.107 531.713C381.948 533.746 385.323 533.515 386.704 536.584L386.205 537.312C387.356 539.498 387.931 537.005 389.58 538.424V538.194C389.657 539.153 390.002 539.728 390.577 539.843C390.462 538.731 392.188 538.348 391.919 537.082C393.185 539.383 392.38 538.693 392.533 542.144L393.3 540.917C393.3 542.298 393.108 542.95 393.952 543.64C393.568 542.183 395.294 541.838 394.949 539.997C397.979 537.772 396.943 544.024 399.321 539.997C399.014 544.062 396.867 541.493 397.135 542.451C396.291 543.525 396.982 545.519 397.749 545.328C398.439 545.443 400.433 540.917 402.044 541.493C401.891 541.493 401.967 541.186 401.776 541.147C402.696 540.38 402.581 542.835 403.808 541.493C403.54 543.909 404.805 541.646 404.077 544.599L402.773 543.448C403.386 544.484 403.195 548.127 405.112 546.9C405.151 546.286 404.959 545.366 404.805 544.867C405.457 544.139 405.419 545.673 406.109 544.867C406.838 541.914 404.499 543.717 404.23 541.224C405.035 540.112 405.304 543.832 405.802 540.572C405.266 544.791 407.49 540.495 407.72 543.87L408.104 542.106C408.18 542.413 408.334 543.333 408.64 543.372V540.956C409.024 543.142 410.673 539.652 411.172 540.879C409.599 540.457 410.328 542.95 409.331 544.062C410.903 546.9 411.594 539.728 413.473 540.956C413.243 540.649 412.207 541.838 412.514 542.758C413.013 542.451 413.664 541.876 414.01 540.956C415.314 541.531 413.549 542.796 413.971 543.985C414.738 541.876 414.547 544.944 415.122 545.75L415.314 543.909C416.963 542.835 415.467 547.82 417.039 546.44L416.541 543.832L417.231 544.522L417.154 542.413C417.845 543.985 418.152 543.602 418.804 542.95C418.688 544.254 419.072 546.325 419.801 546.325C420.184 545.174 419.417 544.599 420.338 544.752C419.992 543.64 419.647 542.183 419.417 543.947C419.34 543.333 419.149 542.796 419.072 542.221C419.417 540.917 420.069 541.838 420.376 541.799C420.261 541.876 420.146 541.991 420.146 542.26C420.644 543.065 421.181 543.832 421.757 544.561C421.833 543.832 421.526 543.333 421.296 542.835C421.565 542.988 421.91 543.794 422.294 543.87C421.833 542.413 421.488 540.917 420.951 540.304C421.373 540.764 421.795 541.301 422.294 541.723C422.178 541.071 422.255 539.843 421.948 539.345C422.025 538.846 422.524 539.46 423.137 539.997C423.713 540.495 424.364 540.917 424.48 540.227C424.633 540.457 424.825 540.687 425.093 540.802C425.63 540.035 425.17 538.309 427.049 539.46C426.666 538.616 426.282 537.811 425.86 537.005C426.819 537.082 427.279 540.15 428.967 540.227C430.232 540.227 427.778 538.233 427.509 537.427C428.66 538.233 431.229 539.69 430.271 537.466C429.695 537.312 429.849 537.734 429.542 537.811L429.273 538.194ZM435.755 530.447C435.333 530.486 434.067 530.409 435.026 530.946C437.059 531.56 436.177 530.946 435.755 530.447ZM440.74 513.726C440.204 514.071 440.549 514.225 441.316 514.378C441.392 514.11 441.277 513.88 440.74 513.726ZM402.504 468.548C402.504 468.548 402.504 468.587 402.504 468.625C403.31 468.012 403.003 468.28 402.504 468.548ZM400.97 469.124C400.855 468.855 400.894 468.587 400.97 468.357C401.009 468.817 401.315 468.894 401.699 468.817C401.545 469.277 401.315 469.584 400.932 469.162L400.97 469.124ZM397.173 555.989L397.557 555.606C397.173 554.915 397.173 555.452 397.173 555.989Z" fill="#E4E4E4"/>
<path d="M438.748 516.296C439.055 516.296 439.4 516.257 439.745 516.181C439.477 516.334 439.093 516.411 438.748 516.296Z" fill="#E4E4E4"/>
<path d="M424.249 540.574V540.612L424.057 540.306L424.249 540.574Z" fill="#E4E4E4"/>
<path d="M415.16 489.451C415.466 489.297 415.735 489.067 415.965 488.799C415.773 489.221 415.505 489.489 415.16 489.451Z" fill="#E4E4E4"/>
<path d="M393.529 465.483L394.449 465.982C393.989 465.867 393.836 466.289 393.605 466.557C393.605 466.135 393.836 465.522 393.529 465.483Z" fill="#E4E4E4"/>
<path d="M386.397 477.218C386.244 476.988 386.167 477.218 386.014 476.988V476.145C386.474 476.145 386.896 476.796 386.397 477.218Z" fill="#E4E4E4"/>
<path d="M392.61 471.618C392.534 473.19 391.997 472.615 391.383 472.347C391.383 472.347 391.46 472.347 391.498 472.347C391.268 470.161 391.958 470.851 392.61 471.618Z" fill="#E4E4E4"/>
<path d="M391.266 472.309C391.266 472.309 390.882 472.194 390.69 472.309C390.614 471.427 390.92 472.118 391.266 472.309Z" fill="#E4E4E4"/>
<path d="M399.284 467.936C398.939 468.32 399.284 465.942 399.054 466.555C398.901 464.561 400.857 469.125 399.284 467.936Z" fill="#E4E4E4"/>
<path d="M392.15 476.721L392.342 474.842L392.648 476.376L392.15 476.721Z" fill="#E4E4E4"/>
<path d="M396.675 475.492C396.368 475.646 396.061 475.799 395.716 475.991C395.716 475.684 395.639 475.492 395.486 475.339C396.061 475.262 396.713 474.955 396.636 475.531L396.675 475.492Z" fill="#E4E4E4"/>
<path d="M395.525 475.298C395.219 475.298 394.95 475.298 394.797 474.953C394.95 474.953 395.295 475.068 395.525 475.298Z" fill="#E4E4E4"/>
<path d="M393.377 477.333L393.645 476.949L394.259 476.834L393.377 477.333Z" fill="#E4E4E4"/>
<path d="M406.53 476.564L407.374 477.331C407.297 477.983 406.952 478.329 406.645 477.983C406.53 477.485 406.223 477.14 406.492 476.564H406.53Z" fill="#E4E4E4"/>
<path d="M402.578 481.17C402.885 480.825 403 480.403 403.23 479.789L402.809 482.128L402.54 481.131L402.578 481.17Z" fill="#E4E4E4"/>
<path d="M405.113 482.242C405.074 482.894 405.918 484.39 404.882 483.968C404.959 483.316 404.192 482.549 405.113 482.242Z" fill="#E4E4E4"/>
<path d="M419.339 484.274L419.147 484.159L420.988 480.707L419.339 484.274Z" fill="#E4E4E4"/>
<path d="M423.636 498.465C422.332 498.541 425.055 496.509 423.636 496.816C424.058 495.972 424.786 496.586 425.132 495.818C424.94 496.931 425.515 496.739 423.636 498.465Z" fill="#E4E4E4"/>
<path d="M425.132 495.818C425.132 495.818 425.208 495.434 425.285 495.166C425.285 495.473 425.208 495.665 425.132 495.818Z" fill="#E4E4E4"/>
<path d="M353.068 538.696L351.995 539.003L353.068 538.121V538.696Z" fill="#E4E4E4"/>
<path d="M353.222 535.434L351.803 537.505L352.531 535.319C352.531 535.319 352.8 535.856 353.222 535.434Z" fill="#E4E4E4"/>
<path d="M431.498 527.459L432.074 527.612C432.649 527.881 432.687 527.996 432.726 528.264L431.498 527.497V527.459Z" fill="#E4E4E4"/>
<path d="M430.348 533.941V533.787L432.074 535.283L430.348 533.941Z" fill="#E4E4E4"/>
<path d="M424.94 535.587C424.94 535.587 425.477 535.625 425.554 535.433C425.017 535.357 426.666 537.773 424.94 535.587Z" fill="#E4E4E4"/>
<path d="M122.043 633.651C122.043 634.15 120.547 633.536 120.24 633.536C120.854 632.769 122.426 633.805 122.043 633.651Z" fill="#E4E4E4"/>
<path d="M128.639 629.05L128.064 628.705C128.677 628.82 129.291 628.935 129.866 629.05H128.639Z" fill="#E4E4E4"/>
<path d="M132.702 625.289C133.93 627.782 130.938 626.056 130.785 627.513L131.092 628.089L129.251 626.823C130.44 626.133 132.511 626.401 132.702 625.327V625.289Z" fill="#E4E4E4"/>
<path d="M132.051 618.694C132.396 619.729 133.086 619.154 131.591 619.346C131.591 619.192 131.591 619.154 131.591 619.039C131.706 619 131.859 618.885 132.089 618.655L132.051 618.694Z" fill="#E4E4E4"/>
<path d="M131.553 619.078C130.977 619.346 131.438 618.081 131.553 619.078Z" fill="#E4E4E4"/>
<path d="M134.315 618.273C133.932 618.081 133.586 617.928 133.203 617.774C133.05 617.122 133.625 616.7 133.203 616.394C134.162 616.509 134.277 617.161 134.354 618.273H134.315Z" fill="#E4E4E4"/>
<path d="M135.81 619.728L135.312 619.536C135.273 619.268 135.312 619.153 135.81 619.728Z" fill="#E4E4E4"/>
<path d="M134.198 619.152L135.31 619.536C135.425 619.996 135.809 620.763 134.85 619.421C135.272 620.111 134.773 619.497 134.198 619.152Z" fill="#E4E4E4"/>
<path d="M133.97 619.729C133.855 620.458 133.586 621.033 134.698 621.532C133.318 621.877 132.474 620.113 133.97 619.729Z" fill="#E4E4E4"/>
<path d="M134.546 627.476L134.622 628.397L133.74 627.898C134.162 628.128 134.085 626.748 134.546 627.476Z" fill="#E4E4E4"/>
<path d="M137.958 615.128C138.188 615.665 138.303 616.662 138.533 617.391L137.805 616.969C137.92 616.509 138.226 615.972 137.958 615.166V615.128Z" fill="#E4E4E4"/>
<path d="M138.534 617.352L139.607 618.004C139.032 618.349 138.764 617.965 138.534 617.352Z" fill="#E4E4E4"/>
<path d="M137.228 622.45C136.576 621.989 135.886 621.529 135.195 621.107C135.962 621.491 136.729 621.951 137.458 622.373L137.228 622.45Z" fill="#E4E4E4"/>
<path d="M140.603 614.091L139.836 612.94L141.102 614.666L140.603 614.091Z" fill="#E4E4E4"/>
<path d="M142.177 613.822C141.563 612.863 141.908 611.904 141.41 611.367C141.87 611.444 142.484 612.249 143.021 612.94C142.56 612.594 142.292 612.825 142.138 613.822H142.177Z" fill="#E4E4E4"/>
<path d="M143.94 613.94C143.71 613.748 143.403 613.326 143.058 612.904C143.288 613.096 143.557 613.403 143.94 613.94Z" fill="#E4E4E4"/>
<path d="M140.644 617.352C140.567 617.007 140.375 616.087 140.644 615.588L140.912 617.237C140.912 617.237 140.759 617.314 140.644 617.352Z" fill="#E4E4E4"/>
<path d="M140.912 617.273C141.18 617.081 141.333 617.004 141.41 616.966C141.333 617.004 141.18 617.119 140.912 617.273Z" fill="#E4E4E4"/>
<path d="M140.565 617.39H140.641C140.641 617.39 140.641 617.581 140.565 617.39Z" fill="#E4E4E4"/>
<path d="M138.379 620.303C139.147 620.993 140.297 621.568 140.029 623.179C139.338 622.259 139.492 621.338 138.379 620.303Z" fill="#E4E4E4"/>
<path d="M140.948 619.424L140.373 620.037C140.22 619.615 140.143 619.002 139.798 618.618L140.948 619.424Z" fill="#E4E4E4"/>
<path d="M141.446 619.805L140.948 619.422L141.139 619.191L141.446 619.805Z" fill="#E4E4E4"/>
<path d="M143.481 615.739C143.941 616.314 144.286 616.275 144.593 616.275C144.401 616.697 144.094 616.966 143.749 617.081C143.519 616.621 143.097 615.777 143.481 615.7V615.739Z" fill="#E4E4E4"/>
<path d="M142.33 616.584L142.406 616.661C142.406 616.661 142.406 616.852 142.33 616.584Z" fill="#E4E4E4"/>
<path d="M147.317 615.244C147.317 615.244 147.355 615.436 147.394 615.551L147.279 615.282H147.317V615.244Z" fill="#E4E4E4"/>
<path d="M143.788 617.391C143.635 617.775 143.328 617.468 143.021 617.008C143.289 617.085 143.52 617.123 143.75 617.085C143.826 617.315 143.903 617.43 143.788 617.391Z" fill="#E4E4E4"/>
<path d="M144.974 614.397C144.974 614.78 144.974 615.087 144.897 615.394C144.859 614.857 144.782 614.013 144.974 614.397Z" fill="#E4E4E4"/>
<path d="M142.367 616.201H142.291C142.291 615.781 142.291 615.934 142.367 616.201Z" fill="#E4E4E4"/>
<path d="M142.369 616.203C142.599 616.395 142.829 616.74 143.021 617.047C142.829 616.97 142.599 616.855 142.407 616.663C142.407 616.548 142.407 616.357 142.369 616.203Z" fill="#E4E4E4"/>
<path d="M152.339 624.521C151.648 623.179 150.459 622.143 150.498 623.907C149.462 623.064 148.082 618.27 147.391 615.547C147.66 616.16 147.89 616.736 148.734 617.349C148.925 618.193 148.35 619.612 149.309 620.724C150.344 621.146 149.692 619.996 149.692 619.114C150.153 620.993 151.725 621.223 152.799 623.792L151.687 623.217C151.84 623.601 152.377 624.138 152.339 624.598V624.521Z" fill="#E4E4E4"/>
<path d="M146.511 616.047L146.243 615.97C146.396 615.625 146.32 615.011 146.204 613.784C146.818 614.359 147.087 614.858 147.278 615.28L146.358 615.855L146.511 616.047Z" fill="#E4E4E4"/>
<path d="M145.243 616.313C145.972 617.809 146.739 618.269 147.046 620.071C146.317 620.225 146.087 618.959 145.435 618.422C146.662 618.422 144.822 617.655 145.282 616.505C144.975 616.313 144.745 616.313 144.553 616.313C144.668 616.045 144.783 615.738 144.86 615.393V615.508C144.86 615.738 144.898 615.853 144.937 615.738C145.013 615.929 145.128 616.121 145.205 616.313C145.397 615.891 145.128 615.891 144.937 615.738L144.86 615.508L146.202 615.968C146.049 616.275 145.78 616.313 145.205 616.313H145.243Z" fill="#E4E4E4"/>
<path d="M142.024 626.212C142.024 626.212 141.947 625.943 141.909 625.828C142.062 625.982 142.139 626.097 142.024 626.212Z" fill="#E4E4E4"/>
<path d="M142.178 625.096C142.178 625.096 141.718 624.329 141.449 624.597C141.372 625.172 141.756 625.326 141.909 625.863C141.602 625.518 140.874 624.981 141.142 624.022L141.296 624.214C141.602 623.485 141.564 621.299 141.411 621.146C141.756 622.603 141.986 623.638 142.178 625.134V625.096Z" fill="#E4E4E4"/>
<path d="M143.979 621.071L145.244 621.493V623.027L144.937 622.222C144.477 622.72 144.247 621.685 143.979 621.071Z" fill="#E4E4E4"/>
<path d="M147.084 614.477L146.317 612.904L147.697 614.975L147.084 614.477Z" fill="#E4E4E4"/>
<path d="M148.046 614.247L147.394 612.904L148.008 613.633L148.046 614.247Z" fill="#E4E4E4"/>
<path d="M201.662 568.453L202.199 568.146C202.199 568.146 201.854 568.415 201.662 568.453Z" fill="#E4E4E4"/>
<path d="M200.662 571.519L199.933 571.289C200.355 571.289 200.662 571.366 200.662 571.519Z" fill="#E4E4E4"/>
<path d="M153.03 591.579C151.764 590.582 149.885 589.086 151.496 589.623L153.068 590.275C152.646 590.697 152.762 591.157 153.068 591.579H153.03Z" fill="#E4E4E4"/>
<path d="M179.378 580.726C179.378 580.726 179.378 581.071 179.416 581.263C179.147 580.764 178.879 580.304 178.611 579.844C178.841 580.112 179.109 580.419 179.378 580.726Z" fill="#E4E4E4"/>
<path d="M182.022 587.092L182.367 585.788C182.367 586.21 182.214 586.632 182.022 587.092Z" fill="#E4E4E4"/>
<path d="M204.648 553.345L206.335 552.923C206.335 553.498 205.491 553.268 204.648 553.345Z" fill="#E4E4E4"/>
<path d="M152.494 610.602C151.919 610.295 151.65 610.18 151.612 609.988C152.494 610.372 153.875 610.909 152.494 610.602Z" fill="#E4E4E4"/>
<path d="M184.516 564.005C184.823 564.005 185.168 564.043 185.513 564.158C185.206 564.158 184.899 564.158 184.516 564.005Z" fill="#E4E4E4"/>
<path d="M151.688 609.412C151.688 609.412 151.918 609.527 152.071 609.604C151.764 609.719 151.534 609.834 151.573 610.026C150.921 609.719 150.499 609.451 151.688 609.451V609.412Z" fill="#E4E4E4"/>
<path d="M219.687 537.885C219.687 537.885 219.764 537.771 219.802 537.694C219.802 537.923 219.764 537.923 219.687 537.885Z" fill="#E4E4E4"/>
<path d="M233.644 522.316C233.644 522.316 233.375 522.201 233.183 522.162C233.26 522.047 233.413 522.086 233.644 522.316Z" fill="#E4E4E4"/>
<path d="M153.452 617.887C153.452 617.887 153.759 618.194 153.989 618.501C153.721 618.194 153.567 618.003 153.452 617.887Z" fill="#E4E4E4"/>
<path d="M162.234 608.108C162.501 608.185 162.54 608.185 162.234 608.108Z" fill="#E4E4E4"/>
<path d="M150.27 612.977C150.27 612.977 150.078 612.632 150.039 612.517C150.116 612.632 150.193 612.785 150.27 612.977Z" fill="#E4E4E4"/>
<path d="M149.771 612.366C149.771 612.366 149.771 612.48 149.81 612.557C149.619 612.366 149.504 612.213 149.771 612.366Z" fill="#E4E4E4"/>
<path d="M150.037 612.326C150.037 612.326 149.999 612.441 150.037 612.555C149.961 612.479 149.923 612.402 149.885 612.364C149.885 612.364 149.961 612.364 150.037 612.364V612.326Z" fill="#E4E4E4"/>
<path d="M201.814 537.693C201.814 537.693 201.776 537.617 201.737 537.54C202.351 537.885 202.236 537.885 201.814 537.693Z" fill="#E4E4E4"/>
<path d="M171.4 591.694H171.324V591.618L171.438 591.694H171.4Z" fill="#E4E4E4"/>
<path d="M172.625 592.229C170.976 590.887 171.053 591.232 171.283 591.615C170.055 590.503 168.867 589.391 167.716 588.202C169.442 589.468 171.053 590.81 172.625 592.229Z" fill="#E4E4E4"/>
<path d="M203.348 561.281C203.846 561.626 204.306 561.971 204.767 562.354C207.336 561.357 206.492 560.399 208.563 561.511C203.424 561.166 207.643 565.614 202.389 564.962L203.348 565.806C203.348 565.614 203.654 565.614 203.616 565.423C205.802 567.263 199.781 565.653 200.088 567.378C200.356 568.03 200.932 568.644 201.66 568.452L200.011 569.334C200.011 569.718 200.855 569.948 200.893 569.526C200.548 570.14 200.165 570.715 199.781 571.252H199.934C199.091 571.252 197.672 571.329 197.058 571.329C197.518 572.057 197.672 571.329 198.209 571.712L196.636 572.096C197.633 573.093 199.206 572.901 199.359 572.096C203.578 575.279 197.863 572.326 199.398 575.739L200.51 575.087C202.734 577.158 201.353 577.426 202.159 579.574C201.584 578.692 199.589 574.934 197.825 575.317C197.979 575.816 197.902 576.314 196.675 576.238C198.209 577.273 197.442 577.542 196.905 578.155L198.899 579.574C197.787 579.919 196.828 579.076 195.639 578.769C195.217 579.651 196.56 581.07 197.557 582.297C196.751 583.793 196.023 579.459 194.412 580.533C194.22 582.105 192.801 582.105 190.768 581.914C190.653 583.102 191.842 582.949 192.072 583.678L190.232 582.681C190.232 582.681 190.538 583.256 190.768 583.486C189.771 583.294 189.196 581.607 188.046 581.645C187.125 580.648 187.394 581.722 187.394 582.834C187.394 583.946 187.202 585.135 185.898 584.1C185.975 584.867 186.78 585.327 187.163 586.209C184.671 585.327 185.093 585.672 182.753 583.793C182.638 584.406 182.485 585.058 182.331 585.71C182.408 583.678 180.567 582.105 179.301 580.648C179.225 579.728 179.148 578.922 179.11 578.539L177.652 577.657C177.652 578.078 177.998 578.845 178.496 579.766C178.381 579.613 178.228 579.421 178.113 579.267C177.998 580.264 178.611 581.53 179.34 582.757C179.34 582.259 179.301 581.722 179.263 581.185C180.03 582.489 180.912 583.946 181.334 585.289C181.142 585.058 180.912 584.867 180.682 584.828C180.912 585.173 181.066 585.519 181.104 585.749C181.142 586.017 180.836 585.557 180.414 585.02L180.989 587.705L180.567 586.707L179.301 588.893C177.346 586.592 175.466 582.872 173.51 582.22C174.469 584.023 174.469 585.365 175.121 587.628C174.891 585.097 176.617 588.357 177.384 587.628C176.962 588.011 177.384 589.085 177.576 589.43L175.505 587.628C176.042 589.507 175.581 589.124 175.466 589.967C175.083 588.088 174.661 587.551 174.201 587.359C173.817 587.168 173.549 587.283 173.089 586.784C173.549 588.011 174.124 589.2 174.393 588.778C175.044 591.616 172.168 584.752 172.513 587.244C172.667 587.244 172.628 587.014 172.935 587.59C172.168 586.631 171.861 587.781 172.59 588.702H172.705C172.36 589.2 171.554 589.469 170.174 588.855C169.637 588.587 169.062 588.242 168.371 587.59C168.678 587.896 171.248 590.428 171.746 590.888C168.908 588.395 165.61 586.286 162.235 584.79C164.46 586.401 169.637 591.003 171.209 591.578C171.401 591.962 171.708 592.345 170.711 592.038C170.404 591.731 167.528 589.315 167.221 589.354C169.56 591.655 168.371 590.696 170.442 592.614C169.982 592.153 166.07 590.044 165.994 590.504C166.607 590.773 169.867 592.614 170.327 592.729C168.947 592.192 167.566 591.808 166.109 591.501C166.914 591.616 169.484 593.035 170.596 593.611C169.829 593.227 170.519 594.109 170.059 594.109L169.177 593.534C169.637 594.378 163.117 592.652 163.079 594.071C163.999 594.071 168.525 594.685 168.985 595.221C166.761 595.03 158.285 595.106 156.482 596.564L157.71 596.909L156.214 597.906C159.551 597.254 166.646 596.065 169.407 595.835C170.366 596.334 170.864 596.104 170.711 596.64C171.861 596.947 172.513 596.487 172.628 596.372L173.28 597.638C170.711 597.408 170.634 598.558 168.525 598.481C169.407 597.944 170.327 597.446 171.248 597.024C168.678 596.717 163.884 597.484 164.306 598.788C165.342 599.095 168.908 598.635 169.752 598.673C168.87 598.788 168.065 599.709 168.678 599.824L170.059 599.363C171.018 599.939 166.646 600.399 169.138 601.204C169.292 601.473 172.475 602.01 170.941 602.086C167.988 601.664 158.899 601.818 156.674 602.201C156.866 602.316 159.512 603.659 160.97 603.966C163.271 604.426 166.454 603.122 168.448 603.505C167.758 603.505 166.876 603.85 166.607 603.966C167.221 604.272 168.793 603.774 168.486 604.541C165.879 604.694 168.717 606.037 166.262 604.886C165.533 605.576 166.799 605.653 166.684 606.497C164.996 606.228 160.931 607.149 160.164 607.686C160.816 607.686 161.698 607.877 162.082 607.954C162.235 609.335 163.347 610.217 163.117 611.597C163.731 611.828 164.344 612.671 165.495 612.595C164.996 612.71 164.076 612.71 163.923 613.17C165.917 614.627 164.498 612.173 166.991 613.515C165.495 613.285 164.651 614.32 163.539 614.666C161.391 613.745 163.539 613.17 164.575 612.633C161.391 612.019 157.901 612.249 156.214 612.48C155.255 612.825 158.055 613.592 157.556 613.515C157.403 615.164 152.724 612.326 153.414 613.515C153.414 613.592 153.529 613.707 153.606 613.86C155.025 615.433 156.904 616.315 158.055 617.273C158.285 617.273 158.4 617.12 158.477 617.005C158.63 616.43 157.748 615.471 157.94 615.164C158.132 615.509 158.323 615.854 158.477 616.2C159.205 616.353 159.934 616.085 159.551 615.548C160.203 616.161 159.972 616.928 159.551 617.695C159.014 618.616 158.208 619.498 158.17 620.763C157.48 620.495 156.636 620.226 156.252 619.459L156.789 619.383C155.907 617.925 154.642 618.194 154.488 617.312C153.299 616.775 151.88 615.586 151.957 616.66L153.146 618.692C152.801 618.117 152.724 617.312 153.299 617.772C152.571 617.043 154.105 621.07 152.149 618.616C152.034 618.079 151.88 617.504 151.727 616.967C150.691 616.238 149.042 614.282 148.889 615.164C148.045 612.978 149.157 615.317 148.199 612.748C149.579 615.854 149.119 612.058 150.538 615.356C149.196 612.48 150.308 613.937 148.889 611.636C149.349 612.249 149.733 612.863 149.656 612.441C149.809 612.595 150.001 612.825 150.116 612.94H150.155C150.231 613.016 150.27 613.055 150.155 612.94C150.346 613.247 150.538 613.592 150.806 613.937C152.034 615.241 152.456 614.819 153.261 615.279C153.184 614.857 152.571 614.704 152.072 614.052C152.456 614.32 152.877 614.55 153.299 614.781C152.072 613.553 151.458 612.556 150.461 612.134L150.576 611.866C150.155 611.406 149.924 611.137 149.963 611.022C149.963 610.945 150.078 610.984 150.346 611.099C150.078 610.83 152.149 611.789 150.922 611.214C151.305 611.252 151.689 611.291 152.072 611.291L151.689 611.099C151.65 610.677 154.757 610.984 151.88 609.373C152.341 609.22 152.916 608.951 152.494 608.414L151.037 608.184C151.612 607.839 149.618 606.957 151.19 606.842C147.201 606.305 150.346 604.694 149.618 603.697L151.574 603.62C151.458 602.968 151.995 602.316 152.724 601.434H154.45C155.83 600.667 153.184 599.363 153.376 597.983C152.724 598.059 152.877 598.443 153.261 598.673C149.387 596.832 156.214 595.298 153.606 593.457C154.258 593.112 154.105 592.844 153.721 592.422C153.721 592.46 153.683 592.499 153.606 592.537C153.606 592.499 153.606 592.422 153.606 592.307C153.338 592.038 153.069 591.731 152.839 591.425C153.223 591.731 153.529 592 153.644 592.192C153.721 591.808 154.066 591.271 154.603 590.811L152.877 590.121C152.877 590.121 152.916 590.044 152.954 590.006C152.417 589.239 153.913 589.776 155.179 590.428C155.524 590.236 155.946 590.082 156.406 590.044C153.683 588.702 157.71 589.085 154.948 587.398C156.482 587.59 157.096 585.25 160.049 586.707C159.704 586.477 159.589 586.247 159.436 586.477C159.359 585.825 159.32 585.135 160.318 585.212L158.515 583.678C159.589 583.908 160.701 584.215 161.737 584.56C161.008 583.141 160.624 582.297 158.745 581.799C162.043 582.144 160.548 581.223 163.539 582.182L162.465 581.108C162.465 581.108 162.964 581.031 163.309 581.108C163.961 581.223 164.651 581.415 164.306 580.686C163.846 579.229 165.112 578.232 166.684 577.426C167.489 577.005 168.333 576.621 169.177 576.161C169.56 575.931 170.02 575.662 170.404 575.317C170.711 575.01 170.941 574.704 171.171 574.282C171.9 578.73 171.746 572.057 172.743 575.355C172.59 574.282 172.743 573.63 172.168 572.863C173.587 573.553 173.357 570.83 174.814 573.438C174.623 572.402 174.201 572.019 174.124 571.367C174.277 571.559 174.661 572.172 174.584 571.52C174.508 570.907 174.201 570.715 173.971 570.293C174.891 570.216 175.888 573.323 176.885 576.199C176.962 574.665 177.154 574.78 178.189 576.544C177.998 575.547 177.844 574.473 177.23 574.32C177.537 574.09 178.189 572.326 179.34 574.473C179.148 573.898 179.647 574.128 179.838 574.32C180.375 573.86 180.299 573.63 180.989 573.438L181.066 573.86C182.945 576.161 181.948 574.052 182.638 574.013L182.446 573.783C182.139 571.29 183.597 574.167 182.945 571.52L184.134 572.901C187.01 575.662 183.405 570.37 184.939 570.907L185.553 571.827C186.933 572.326 182.178 567.494 181.909 567.033C181.679 566.765 181.411 566.803 181.142 566.688C179.685 564.694 183.137 568.069 183.98 567.839C182.983 566.995 181.181 566.075 181.181 565.653C180.337 565.039 185.438 566.803 183.482 565.077C184.325 565.614 185.169 566.19 185.975 566.228C186.588 565.806 182.983 563.62 186.09 564.31C185.86 564.157 185.591 564.08 185.361 563.965C186.281 563.889 186.972 563.198 188.698 563.275C185.629 562.393 186.473 562.048 187.394 561.511C188.276 561.012 189.273 560.437 186.32 560.207L186.703 558.826H186.09C185.706 557.906 187.125 557.599 188.544 557.254C188.161 557.024 187.585 557.177 187.279 557.215C186.09 555.758 186.32 555.643 189.196 554.262L187.279 554.186C188.391 553.802 184.21 552 186.396 550.274C186.166 550.274 185.821 550.351 185.553 550.466C186.665 549.507 185.284 548.395 184.594 547.282C183.865 546.209 183.789 545.173 187.279 544.981L189.081 543.754C189.465 545.48 192.072 543.792 193.185 544.598C193.645 544.061 191.305 542.757 190.845 543.486L191.19 543.639C187.547 543.524 190.193 541.338 187.815 540.916C188.467 538.232 188.467 535.048 189.656 531.98C190.117 530.906 190.653 529.871 191.382 528.989L193.185 531.175C193.453 530.791 193.683 530.408 193.952 530.063C193.722 529.372 192.724 528.145 192.072 528.989C191.305 527.455 194.258 528.682 194.642 529.142C195.332 526.995 191.881 527.225 192.226 526.803C192.494 526.649 192.763 526.496 193.031 526.343L193.108 526.726C194.412 527.148 195.217 528.03 196.023 527.225C196.291 526.343 195.294 525.614 195.486 525.346C195.371 525.192 195.409 525.039 195.831 525C196.291 524.578 196.751 524.195 197.211 523.85L197.787 526.113C198.976 526.688 199.014 525.269 199.666 527.8C199.129 525.882 200.318 524.809 201.622 524.31C202.926 523.735 204.268 523.658 204.383 523.006C205.764 524.272 206.531 524.042 207.566 523.62C207.375 524.118 207.758 526.573 208.563 526.113C207.298 521.089 209.791 523.62 210.098 519.861C209.676 522.354 212.935 520.206 212.092 523.773C212.82 523.313 211.977 521.856 212.514 520.628C214.508 522.508 216.694 519.248 218.918 520.053C218.918 520.743 218.496 521.741 218.88 522.776L220.261 519.478C220.644 519.861 220.337 523.39 221.296 521.127C221.143 521.664 220.913 522.508 221.143 522.776C225.438 519.861 228.966 526.419 232.763 520.398C232.226 521.664 232.533 521.817 232.878 521.894C232.648 522.201 232.801 523.543 232.725 524.463C233.262 523.658 233.76 522.814 234.259 521.971C234.489 524.502 235.716 522.124 235.946 524.54L235.486 524.118C236.215 526.956 234.681 530.485 234.719 534.166C233.952 530.906 232.303 538.96 231.114 534.205C230.769 534.933 231.306 535.394 231.114 536.237C230.846 534.627 230.462 534.281 229.657 534.933V535.317C227.624 534.742 226.55 536.199 224.172 536.966L224.556 535.163C224.057 535.355 223.866 535.892 223.597 536.314C223.329 533.514 224.978 536.314 224.786 533.246C223.712 536.851 221.373 532.939 220.606 537.081C219.915 537.043 221.028 535.01 220.299 534.972L219.992 536.084V534.627C219.455 534.818 219.148 536.237 219.033 537.196C219.148 537.081 219.302 537.503 219.417 537.58C218.727 538.845 217.883 537.004 217.653 537.426L218.305 536.774C216.502 535.585 214.546 537.004 212.935 534.857L213.012 533.975C211.632 532.517 212.13 535.01 210.749 534.435L210.826 534.627C210.443 533.821 209.982 533.476 209.637 533.629C210.136 534.55 209.446 535.662 210.059 536.659C208.525 535.278 209.215 535.47 207.566 532.632L207.758 534.051C207.106 532.901 206.876 532.249 206.071 532.134C206.991 533.092 206.416 534.32 207.49 535.662C207.413 537.311 206.799 536.736 206.224 536.314C205.649 535.892 205.189 535.7 205.994 537.81C203.654 534.588 205.956 535.394 205.304 534.78C205.073 533.476 203.578 532.364 203.309 532.939C202.926 533.284 205.073 537.695 204.498 538.04C204.537 537.963 204.728 538.232 204.767 538.155C205.112 539.114 203.463 537.426 204.23 538.883C202.504 537.196 204.038 539.267 201.89 537.081C202.236 537.081 202.619 537.081 202.964 537.081C202.159 536.697 199.244 534.55 199.819 536.467C200.318 536.813 201.085 537.158 201.545 537.349C202.044 538.116 200.817 537.311 201.353 538.078C203.693 539.996 202.466 537.81 204.345 539.267C205.112 540.302 202.312 538.155 204.767 540.379C203.194 538.96 203.156 539.229 203.233 539.535C203.309 539.842 203.501 540.187 202.082 539.459L203.578 540.494C203.309 540.379 202.504 539.996 202.466 540.149C203.194 540.533 203.885 540.916 204.537 541.3C204.076 541.07 203.923 541.031 203.923 541.146C203.961 541.453 205.572 542.489 204.767 542.258C205.073 541.875 202.887 541.146 201.89 540.226C199.167 540.034 205.917 542.834 204.843 543.064C205.073 543.064 203.961 542.335 203.118 542.182C203.386 542.45 204 542.949 204.882 543.294C204.345 543.754 203.118 542.68 201.967 542.642C204.038 543.447 201.008 542.757 200.203 543.064L202.005 543.447C202.964 544.598 198.132 543.025 199.398 544.329L202.005 544.253L201.277 544.675L203.386 544.828C201.775 545.135 202.159 545.442 202.696 546.055C201.392 545.825 199.321 545.902 199.244 546.515C200.318 546.976 201.008 546.362 200.74 547.206C201.89 547.052 203.348 546.899 201.66 546.477C202.274 546.477 202.849 546.362 203.424 546.362C204.652 546.784 203.693 547.359 203.654 547.628C203.578 547.513 203.501 547.397 203.233 547.321C202.351 547.666 201.507 548.088 200.663 548.51C201.353 548.701 201.929 548.51 202.466 548.395C202.274 548.663 201.43 548.855 201.277 549.238C202.772 549.123 204.345 549.123 205.035 548.586C204.498 548.97 203.923 549.353 203.386 549.814C204.038 549.89 205.189 550.427 205.764 550.235C206.646 550.887 202.926 552.115 204.115 553.112C203.808 553.189 203.539 553.304 203.348 553.534C203.731 554.492 205.61 555.413 203.539 556.755C204.46 556.985 205.342 557.254 206.224 557.522C205.61 558.596 202.849 556.487 201.814 558.213C200.932 559.401 204.115 558.711 204.843 559.171C203.463 559.823 200.663 560.705 202.734 562.124C203.271 561.741 202.926 561.396 203.118 561.051L203.348 561.281ZM197.825 575.355C198.324 575.355 199.628 575.356 198.784 574.665C196.751 573.937 197.557 574.665 197.825 575.355ZM178.803 584.636C179.148 585.173 179.301 584.79 179.417 584.061C179.148 583.985 178.956 584.138 178.803 584.636ZM151.765 612.556H151.842C151.382 612.058 151.574 612.249 151.765 612.556ZM152.149 613.362C151.919 613.247 151.727 613.055 151.535 612.863C151.919 613.131 151.995 613.093 151.957 612.94C152.341 613.247 152.571 613.515 152.149 613.362ZM196.329 526.113V526.649C197.173 526.726 196.79 526.458 196.329 526.113Z" fill="#E4E4E4"/>
<path d="M181.716 586.364C181.716 586.058 181.563 585.712 181.486 585.367C181.678 585.636 181.831 585.942 181.716 586.364Z" fill="#E4E4E4"/>
<path d="M204.345 553.419V553.38L204.651 553.342L204.345 553.419Z" fill="#E4E4E4"/>
<path d="M169.601 604.043C169.332 603.851 168.987 603.736 168.642 603.659C169.102 603.659 169.486 603.736 169.601 604.043Z" fill="#E4E4E4"/>
<path d="M148.619 612.212L149.117 612.48C149.117 612.48 149.117 612.864 149.232 613.132C149.002 612.749 148.734 612.173 148.657 612.212H148.619Z" fill="#E4E4E4"/>
<path d="M149.503 624.372C149.503 624.372 149.311 624.411 149.158 624.219L148.889 623.414C149.273 623.337 149.771 623.874 149.541 624.372H149.503Z" fill="#E4E4E4"/>
<path d="M151.382 617.696C152.11 619.077 151.573 618.77 151.113 618.693C151.113 618.693 151.152 618.693 151.19 618.693C150.116 616.814 150.768 617.274 151.42 617.734L151.382 617.696Z" fill="#E4E4E4"/>
<path d="M150.997 618.694C150.997 618.694 150.729 618.694 150.69 618.809C150.269 618.042 150.69 618.579 150.997 618.694Z" fill="#E4E4E4"/>
<path d="M150.997 613.057C151.227 613.402 149.539 611.676 149.961 612.136C148.466 610.794 152.032 613.517 150.997 613.057Z" fill="#E4E4E4"/>
<path d="M153.566 622.336L152.799 620.61L153.758 621.838L153.566 622.336Z" fill="#E4E4E4"/>
<path d="M155.562 619.346C155.523 619.614 155.446 619.883 155.37 620.151C155.178 619.883 154.986 619.767 154.833 619.729C155.14 619.461 155.216 618.885 155.562 619.346Z" fill="#E4E4E4"/>
<path d="M154.869 619.768C154.869 619.768 154.562 619.998 154.294 619.768C154.409 619.729 154.601 619.653 154.869 619.768Z" fill="#E4E4E4"/>
<path d="M154.716 622.375L154.677 621.915L155.022 621.531L154.716 622.375Z" fill="#E4E4E4"/>
<path d="M159.166 613.744C159.396 613.591 159.664 613.438 159.894 613.284C160.546 613.399 160.892 613.744 160.546 613.898C160.048 613.898 159.741 614.051 159.166 613.744Z" fill="#E4E4E4"/>
<path d="M162.886 618.236C162.656 617.814 162.311 617.584 161.813 617.162L163.922 618.274H162.886V618.236Z" fill="#E4E4E4"/>
<path d="M164.576 615.892C165.228 616.083 166.878 615.125 166.264 616.352C165.612 616.237 164.768 616.966 164.576 615.892Z" fill="#E4E4E4"/>
<path d="M163.038 602.971L163 603.162L159.088 603.201L163.038 602.971Z" fill="#E4E4E4"/>
<path d="M172.625 595.3C173.507 595.761 170.247 594.879 171.359 595.377C170.439 595.3 170.477 594.955 169.672 594.879C170.669 594.802 170.17 594.61 172.625 595.3Z" fill="#E4E4E4"/>
<path d="M235.446 520.246L235.867 519.44L235.599 520.744L235.446 520.246Z" fill="#E4E4E4"/>
<path d="M236.406 523.12V520.627L236.789 522.851C236.674 522.736 236.444 522.545 236.406 523.081V523.12Z" fill="#E4E4E4"/>
<path d="M200.662 580.112L200.125 579.805C199.665 579.307 199.78 579.115 199.933 578.731L200.662 580.112Z" fill="#E4E4E4"/>
<path d="M204.266 568.032V568.224L202.195 567.304L204.266 568.032Z" fill="#E4E4E4"/>
<path d="M208.296 558.865C208.372 559.21 207.874 559.594 207.951 559.977C208.411 559.172 205.496 558.712 208.296 558.865Z" fill="#E4E4E4"/>
<path d="M239.705 621.723H350.885C365.415 621.723 377.194 633.502 377.194 648.032V648.07C377.194 662.6 365.415 674.379 350.885 674.379H239.705C225.175 674.379 213.396 662.6 213.396 648.07V648.032C213.396 633.502 225.175 621.723 239.705 621.723Z" stroke="#E4E4E4" stroke-width="3.83512" stroke-miterlimit="10"/>
<path d="M251.785 647.727C251.67 662.492 267.586 664.026 298.344 663.604C329.101 663.182 343.79 663.106 343.061 647.918C342.486 635.953 327.989 632.118 298.344 632.31C265.975 632.54 251.9 634.074 251.785 647.727Z" stroke="#E4E4E4" stroke-width="3.83512" stroke-miterlimit="10"/>
<path d="M352.225 645.12C346.4 645.12 341.678 640.536 341.678 634.88C341.678 629.225 346.4 624.641 352.225 624.641C358.05 624.641 362.771 629.225 362.771 634.88C362.771 640.536 358.05 645.12 352.225 645.12Z" fill="black" stroke="#E4E4E4" stroke-width="3.83512" stroke-miterlimit="10"/>
<path d="M346.089 672.617C341.641 672.617 338.035 669.114 338.035 664.793C338.035 660.473 341.641 656.97 346.089 656.97C350.537 656.97 354.143 660.473 354.143 664.793C354.143 669.114 350.537 672.617 346.089 672.617Z" fill="black" stroke="#E4E4E4" stroke-width="3.83512" stroke-miterlimit="10"/>
<path d="M330.293 673.768C326.988 673.768 324.31 671.175 324.31 667.977C324.31 664.778 326.988 662.186 330.293 662.186C333.597 662.186 336.275 664.778 336.275 667.977C336.275 671.175 333.597 673.768 330.293 673.768Z" fill="black" stroke="#E4E4E4" stroke-width="3.83512" stroke-miterlimit="10"/>
<path d="M316.523 673.764C313.643 673.764 311.308 671.48 311.308 668.663C311.308 665.846 313.643 663.562 316.523 663.562C319.404 663.562 321.739 665.846 321.739 668.663C321.739 671.48 319.404 673.764 316.523 673.764Z" fill="black" stroke="#E4E4E4" stroke-width="3.83512" stroke-miterlimit="10"/>
<path d="M303.213 673.918C300.332 673.918 297.997 671.635 297.997 668.818C297.997 666 300.332 663.717 303.213 663.717C306.094 663.717 308.429 666 308.429 668.818C308.429 671.635 306.094 673.918 303.213 673.918Z" fill="black" stroke="#E4E4E4" stroke-width="3.83512" stroke-miterlimit="10"/>
<path d="M289.752 674.342C286.871 674.342 284.536 672.058 284.536 669.241C284.536 666.424 286.871 664.141 289.752 664.141C292.633 664.141 294.968 666.424 294.968 669.241C294.968 672.058 292.633 674.342 289.752 674.342Z" fill="black" stroke="#E4E4E4" stroke-width="3.83512" stroke-miterlimit="10"/>
<path d="M276.292 673.764C273.411 673.764 271.076 671.48 271.076 668.663C271.076 665.846 273.411 663.562 276.292 663.562C279.173 663.562 281.508 665.846 281.508 668.663C281.508 671.48 279.173 673.764 276.292 673.764Z" fill="black" stroke="#E4E4E4" stroke-width="3.83512" stroke-miterlimit="10"/>
<path d="M314.988 632.155C311.684 632.155 309.005 629.563 309.005 626.364C309.005 623.166 311.684 620.573 314.988 620.573C318.292 620.573 320.971 623.166 320.971 626.364C320.971 629.563 318.292 632.155 314.988 632.155Z" fill="black" stroke="#E4E4E4" stroke-width="3.83512" stroke-miterlimit="10"/>
<path d="M331.9 635.224C327.77 635.224 324.422 632.219 324.422 628.512C324.422 624.806 327.77 621.801 331.9 621.801C336.031 621.801 339.379 624.806 339.379 628.512C339.379 632.219 336.031 635.224 331.9 635.224Z" fill="black" stroke="#E4E4E4" stroke-width="3.83512" stroke-miterlimit="10"/>
<path d="M300.416 631.811C297.535 631.811 295.2 629.527 295.2 626.71C295.2 623.893 297.535 621.609 300.416 621.609C303.297 621.609 305.632 623.893 305.632 626.71C305.632 629.527 303.297 631.811 300.416 631.811Z" fill="black" stroke="#E4E4E4" stroke-width="3.83512" stroke-miterlimit="10"/>
<path d="M286.532 632.002C283.652 632.002 281.317 629.719 281.317 626.902C281.317 624.084 283.652 621.801 286.532 621.801C289.413 621.801 291.748 624.084 291.748 626.902C291.748 629.719 289.413 632.002 286.532 632.002Z" fill="black" stroke="#E4E4E4" stroke-width="3.83512" stroke-miterlimit="10"/>
<path d="M272.765 631.886C269.884 631.886 267.549 629.602 267.549 626.785C267.549 623.968 269.884 621.685 272.765 621.685C275.645 621.685 277.98 623.968 277.98 626.785C277.98 629.602 275.645 631.886 272.765 631.886Z" fill="black" stroke="#E4E4E4" stroke-width="3.83512" stroke-miterlimit="10"/>
<path d="M260.146 633.612C257.265 633.612 254.93 631.328 254.93 628.511C254.93 625.694 257.265 623.41 260.146 623.41C263.026 623.41 265.361 625.694 265.361 628.511C265.361 631.328 263.026 633.612 260.146 633.612Z" fill="black" stroke="#E4E4E4" stroke-width="3.83512" stroke-miterlimit="10"/>
<path d="M263.14 673.458C260.259 673.458 257.924 671.175 257.924 668.358C257.924 665.541 260.259 663.257 263.14 663.257C266.02 663.257 268.355 665.541 268.355 668.358C268.355 671.175 266.02 673.458 263.14 673.458Z" fill="black" stroke="#E4E4E4" stroke-width="3.83512" stroke-miterlimit="10"/>
<path d="M247.489 671.58C243.147 671.58 239.627 668.163 239.627 663.948C239.627 659.733 243.147 656.316 247.489 656.316C251.831 656.316 255.351 659.733 255.351 663.948C255.351 668.163 251.831 671.58 247.489 671.58Z" fill="black" stroke="#E4E4E4" stroke-width="3.83512" stroke-miterlimit="10"/>
<path d="M228.469 665.254C221.945 665.254 216.657 659.845 216.657 653.173C216.657 646.501 221.945 641.093 228.469 641.093C234.993 641.093 240.281 646.501 240.281 653.173C240.281 659.845 234.993 665.254 228.469 665.254Z" fill="black" stroke="#E4E4E4" stroke-width="3.83512" stroke-miterlimit="10"/>
<path d="M243.809 643.353C238.811 643.353 234.759 639.215 234.759 634.111C234.759 629.006 238.811 624.868 243.809 624.868C248.808 624.868 252.86 629.006 252.86 634.111C252.86 639.215 248.808 643.353 243.809 643.353Z" fill="black" stroke="#E4E4E4" stroke-width="3.83512" stroke-miterlimit="10"/>
<path d="M363.042 663.989C357.218 663.989 352.496 659.405 352.496 653.75C352.496 648.094 357.218 643.51 363.042 643.51C368.867 643.51 373.589 648.094 373.589 653.75C373.589 659.405 368.867 663.989 363.042 663.989Z" fill="black" stroke="#E4E4E4" stroke-width="3.83512" stroke-miterlimit="10"/>
<path d="M501.082 161.196C488.729 161.196 478.714 149.961 478.714 136.101C478.714 122.241 488.729 111.006 501.082 111.006C513.435 111.006 523.449 122.241 523.449 136.101C523.449 149.961 513.435 161.196 501.082 161.196Z" fill="black" stroke="#E4E4E4" stroke-width="3.83512" stroke-miterlimit="10"/>
<path d="M484.17 198.294C475.131 198.294 467.803 189.745 467.803 179.2C467.803 168.654 475.131 160.105 484.17 160.105C493.209 160.105 500.536 168.654 500.536 179.2C500.536 189.745 493.209 198.294 484.17 198.294Z" fill="black" stroke="#E4E4E4" stroke-width="3.83512" stroke-miterlimit="10"/>
<path d="M452.528 209.205C444.694 209.205 438.343 201.877 438.343 192.838C438.343 183.799 444.694 176.472 452.528 176.472C460.361 176.472 466.712 183.799 466.712 192.838C466.712 201.877 460.361 209.205 452.528 209.205Z" fill="black" stroke="#E4E4E4" stroke-width="3.83512" stroke-miterlimit="10"/>
<path d="M424.159 213.569C417.531 213.569 412.157 207.707 412.157 200.476C412.157 193.245 417.531 187.383 424.159 187.383C430.788 187.383 436.161 193.245 436.161 200.476C436.161 207.707 430.788 213.569 424.159 213.569Z" fill="black" stroke="#E4E4E4" stroke-width="3.83512" stroke-miterlimit="10"/>
<path d="M399.064 219.025C392.436 219.025 387.062 212.918 387.062 205.386C387.062 197.853 392.436 191.747 399.064 191.747C405.693 191.747 411.066 197.853 411.066 205.386C411.066 212.918 405.693 219.025 399.064 219.025Z" fill="black" stroke="#E4E4E4" stroke-width="3.83512" stroke-miterlimit="10"/>
<path d="M373.969 220.115C367.943 220.115 363.058 214.742 363.058 208.113C363.058 201.485 367.943 196.111 373.969 196.111C379.995 196.111 384.88 201.485 384.88 208.113C384.88 214.742 379.995 220.115 373.969 220.115Z" fill="black" stroke="#E4E4E4" stroke-width="3.83512" stroke-miterlimit="10"/>
<path d="M349.965 222.298C343.939 222.298 339.054 216.925 339.054 210.296C339.054 203.667 343.939 198.294 349.965 198.294C355.991 198.294 360.876 203.667 360.876 210.296C360.876 216.925 355.991 222.298 349.965 222.298Z" fill="black" stroke="#E4E4E4" stroke-width="3.83512" stroke-miterlimit="10"/>
<path d="M325.415 224.481C319.69 224.481 315.049 219.107 315.049 212.479C315.049 205.85 319.69 200.477 325.415 200.477C331.14 200.477 335.78 205.85 335.78 212.479C335.78 219.107 331.14 224.481 325.415 224.481Z" fill="black" stroke="#E4E4E4" stroke-width="3.83512" stroke-miterlimit="10"/>
<path d="M514.175 186.292C508.45 186.292 503.809 180.919 503.809 174.29C503.809 167.662 508.45 162.288 514.175 162.288C519.899 162.288 524.54 167.662 524.54 174.29C524.54 180.919 519.899 186.292 514.175 186.292Z" fill="black" stroke="#E4E4E4" stroke-width="3.83512" stroke-miterlimit="10"/>
<path d="M535.997 171.016C527.862 171.016 521.267 163.445 521.267 154.104C521.267 144.764 527.862 137.192 535.997 137.192C544.132 137.192 550.727 144.764 550.727 154.104C550.727 163.445 544.132 171.016 535.997 171.016Z" fill="black" stroke="#E4E4E4" stroke-width="3.83512" stroke-miterlimit="10"/>
</svg>
