<svg  viewBox="0 0 410 433" fill="none" xmlns="http://www.w3.org/2000/svg">
<path d="M29.019 235.147C38.1142 235.147 45.4873 227.774 45.4873 218.679C45.4873 209.584 38.1142 202.211 29.019 202.211C19.9239 202.211 12.5508 209.584 12.5508 218.679C12.5508 227.774 19.9239 235.147 29.019 235.147Z" fill="#E3E3E3" stroke="#E4E4E4" stroke-width="2.40062" stroke-miterlimit="10"/>
<path d="M380.448 235.147C389.543 235.147 396.916 227.774 396.916 218.679C396.916 209.584 389.543 202.211 380.448 202.211C371.353 202.211 363.979 209.584 363.979 218.679C363.979 227.774 371.353 235.147 380.448 235.147Z" fill="#E3E3E3" stroke="#E4E4E4" stroke-width="2.40062" stroke-miterlimit="10"/>
<path d="M148.952 53.8545C158.047 53.8545 165.42 46.4814 165.42 37.3862C165.42 28.2911 158.047 20.918 148.952 20.918C139.856 20.918 132.483 28.2911 132.483 37.3862C132.483 46.4814 139.856 53.8545 148.952 53.8545Z" fill="#E3E3E3" stroke="#E4E4E4" stroke-width="2.40062" stroke-miterlimit="10"/>
<path d="M204.734 53.8545C213.829 53.8545 221.202 46.4814 221.202 37.3862C221.202 28.2911 213.829 20.918 204.734 20.918C195.639 20.918 188.266 28.2911 188.266 37.3862C188.266 46.4814 195.639 53.8545 204.734 53.8545Z" fill="#E3E3E3" stroke="#E4E4E4" stroke-width="2.40062" stroke-miterlimit="10"/>
<path d="M260.516 53.8545C269.611 53.8545 276.985 46.4814 276.985 37.3862C276.985 28.2911 269.611 20.918 260.516 20.918C251.421 20.918 244.048 28.2911 244.048 37.3862C244.048 46.4814 251.421 53.8545 260.516 53.8545Z" fill="#E3E3E3" stroke="#E4E4E4" stroke-width="2.40062" stroke-miterlimit="10"/>
<rect x="2.67755" y="2.67755" width="404.645" height="245.665" stroke="#E4E4E4" stroke-width="5.3551"/>
<rect x="2.67755" y="342.949" width="404.645" height="86.6857" stroke="#E4E4E4" stroke-width="5.3551"/>
<rect x="55.6707" y="209.072" width="89.4748" height="39.2707" stroke="#E4E4E4" stroke-width="5.3551"/>
<rect x="58.5713" y="235.68" width="83.6735" height="30.6803" fill="black"/>
<rect x="263.46" y="209.072" width="89.4748" height="39.2707" stroke="#E4E4E4" stroke-width="5.3551"/>
<rect x="285.773" y="168.63" width="46.2435" height="39.2707" stroke="#E4E4E4" stroke-width="5.3551"/>
<rect x="76.5897" y="168.63" width="46.2435" height="39.2707" stroke="#E4E4E4" stroke-width="5.3551"/>
<rect x="266.36" y="232.891" width="83.6735" height="30.6803" fill="black"/>
<rect x="288.674" y="189.659" width="40.4422" height="30.6803" fill="black"/>
<rect x="79.4902" y="198.027" width="40.4422" height="30.6803" fill="black"/>
<rect x="55.6707" y="303.902" width="89.4748" height="39.2707" stroke="#E4E4E4" stroke-width="5.3551"/>
<rect x="76.5887" y="263.46" width="46.2435" height="39.2707" stroke="#E4E4E4" stroke-width="5.3551"/>
<rect x="79.4902" y="292.857" width="40.4422" height="30.6803" fill="black"/>
<rect x="58.5713" y="330.51" width="83.6735" height="30.6803" fill="black"/>
<rect x="264.854" y="303.902" width="89.4748" height="39.2707" stroke="#E4E4E4" stroke-width="5.3551"/>
<rect x="285.772" y="263.46" width="46.2435" height="39.2707" stroke="#E4E4E4" stroke-width="5.3551"/>
<rect x="288.674" y="292.857" width="40.4422" height="30.6803" fill="black"/>
<rect x="267.755" y="330.51" width="83.6735" height="30.6803" fill="black"/>
</svg>
