<svg viewBox="0 0 963 710" fill="none" xmlns="http://www.w3.org/2000/svg">
<rect x="207" y="710" width="181" height="454" transform="rotate(-90 207 710)" fill="#E4E4E4"/>
<rect x="163" y="536" width="65" height="112" transform="rotate(-90 163 536)" fill="#E4E4E4"/>
<rect x="207" y="477" width="65" height="112" transform="rotate(-90 207 477)" fill="#E4E4E4"/>
<rect x="138" y="421" width="65" height="112" transform="rotate(-90 138 421)" fill="#E4E4E4"/>
<rect x="112" y="356" width="65" height="112" transform="rotate(-90 112 356)" fill="#E4E4E4"/>
<rect y="356" width="65" height="112" transform="rotate(-90 0 356)" fill="#E4E4E4"/>
<rect x="482" y="529" width="181" height="222" transform="rotate(-90 482 529)" fill="#E4E4E4"/>
<rect x="398" y="356" width="181" height="222" transform="rotate(-90 398 356)" fill="#E4E4E4"/>
<rect x="509" y="181" width="181" height="454" transform="rotate(-90 509 181)" fill="#E4E4E4"/>
</svg>
