<svg viewBox="0 0 1310 196" fill="none" xmlns="http://www.w3.org/2000/svg">
<rect x="1246" width="64" height="67" fill="black"/>
<rect x="1187" y="25.5576" width="43.268" height="43.6884" transform="rotate(-28.3677 1187 25.5576)" fill="black"/>
<rect x="599.772" y="141.47" width="43.268" height="43.6884" transform="rotate(-22.1073 599.772 141.47)" fill="black"/>
<rect x="543.772" y="138.47" width="43.268" height="43.6884" transform="rotate(-22.1073 543.772 138.47)" fill="black"/>
<rect x="337.772" y="140.47" width="43.268" height="43.6884" transform="rotate(-22.1073 337.772 140.47)" fill="black"/>
<rect x="1010" y="18.1992" width="43.268" height="43.6884" transform="rotate(-9.57831 1010 18.1992)" fill="black"/>
<rect x="424.631" y="114.854" width="43.268" height="43.6884" transform="rotate(-3.31794 424.631 114.854)" fill="black"/>
<rect x="368.631" y="111.854" width="43.268" height="43.6884" transform="rotate(-3.31794 368.631 111.854)" fill="black"/>
<rect x="162.631" y="113.854" width="43.268" height="43.6884" transform="rotate(-3.31794 162.631 113.854)" fill="black"/>
<rect x="1111.76" y="28.6689" width="66.0122" height="35.2194" transform="rotate(-16.4876 1111.76 28.6689)" fill="black"/>
<rect x="524.645" y="136.358" width="66.0122" height="35.2194" transform="rotate(-10.2273 524.645 136.358)" fill="black"/>
<rect x="468.645" y="133.358" width="66.0122" height="35.2194" transform="rotate(-10.2273 468.645 133.358)" fill="black"/>
<rect x="262.645" y="135.358" width="66.0122" height="35.2194" transform="rotate(-10.2273 262.645 135.358)" fill="black"/>
<rect x="1074.81" y="7.21191" width="26.0694" height="35.2194" transform="rotate(9.261 1074.81 7.21191)" fill="black"/>
<rect x="490.253" y="111" width="26.0694" height="35.2194" transform="rotate(15.5214 490.253 111)" fill="black"/>
<rect x="434.253" y="108" width="26.0694" height="35.2194" transform="rotate(15.5214 434.253 108)" fill="black"/>
<rect x="228.253" y="110" width="26.0694" height="35.2194" transform="rotate(15.5214 228.253 110)" fill="black"/>
<rect x="963" y="67.7256" width="26.0694" height="35.2194" transform="rotate(-71.5231 963 67.7256)" fill="black"/>
<rect x="372.51" y="158.96" width="26.0694" height="35.2194" transform="rotate(-65.2627 372.51 158.96)" fill="black"/>
<rect x="316.51" y="155.96" width="26.0694" height="35.2194" transform="rotate(-65.2627 316.51 155.96)" fill="black"/>
<rect x="110.51" y="157.96" width="26.0694" height="35.2194" transform="rotate(-65.2627 110.51 157.96)" fill="black"/>
<rect x="128.51" y="139.373" width="26.0694" height="35.2194" transform="rotate(-65.2627 128.51 139.373)" fill="black"/>
<rect x="66.0781" y="145.607" width="26.0694" height="35.2194" transform="rotate(14.3999 66.0781 145.607)" fill="black"/>
<rect x="55.0781" y="114.607" width="26.0694" height="35.2194" transform="rotate(14.3999 55.0781 114.607)" fill="black"/>
<rect x="912" y="93.792" width="51.4436" height="35.2194" transform="rotate(-71.5231 912 93.792)" fill="black"/>
<rect x="318.972" y="179.31" width="51.4436" height="35.2194" transform="rotate(-65.2627 318.972 179.31)" fill="black"/>
<rect x="262.972" y="176.31" width="51.4436" height="35.2194" transform="rotate(-65.2627 262.972 176.31)" fill="black"/>
<rect x="56.9717" y="178.31" width="51.4436" height="35.2194" transform="rotate(-65.2627 56.9717 178.31)" fill="black"/>
<rect x="74.9717" y="159.723" width="51.4436" height="35.2194" transform="rotate(-65.2627 74.9717 159.723)" fill="black"/>
<rect x="36.4521" y="96.5898" width="51.4436" height="35.2194" transform="rotate(14.3999 36.4521 96.5898)" fill="black"/>
<rect x="25.4521" y="65.5898" width="51.4436" height="35.2194" transform="rotate(14.3999 25.4521 65.5898)" fill="black"/>
<rect x="859.443" y="115.562" width="46.8593" height="52.24" transform="rotate(-99.1401 859.443 115.562)" fill="black"/>
<rect x="264.354" y="195.219" width="46.8593" height="52.24" transform="rotate(-92.8798 264.354 195.219)" fill="black"/>
<rect x="208.354" y="192.219" width="46.8593" height="52.24" transform="rotate(-92.8798 208.354 192.219)" fill="black"/>
<rect x="2.35449" y="194.219" width="46.8593" height="52.24" transform="rotate(-92.8798 2.35449 194.219)" fill="black"/>
<rect x="20.3545" y="175.632" width="46.8593" height="52.24" transform="rotate(-92.8798 20.3545 175.632)" fill="black"/>
<rect x="11" y="45.7139" width="46.8593" height="52.24" transform="rotate(-13.2171 11 45.7139)" fill="black"/>
<rect y="14.7139" width="46.8593" height="52.24" transform="rotate(-13.2171 0 14.7139)" fill="black"/>
<rect x="719.532" y="144.074" width="28.5317" height="30.8799" transform="rotate(-99.1401 719.532 144.074)" fill="black"/>
<rect x="665.934" y="165.345" width="31.0586" height="42.0535" transform="rotate(-99.1401 665.934 165.345)" fill="black"/>
<rect x="756.953" y="123.955" width="12.2952" height="93.2733" transform="rotate(-99.1401 756.953 123.955)" fill="black"/>
</svg>
